<?xml version="1.0" encoding="utf-8" standalone="no"?>
<!DOCTYPE svg PUBLIC "-//W3C//DTD SVG 1.1//EN"
  "http://www.w3.org/Graphics/SVG/1.1/DTD/svg11.dtd">
<svg xmlns:xlink="http://www.w3.org/1999/xlink" width="360.36pt" height="340.741969pt" viewBox="0 0 360.36 340.741969" xmlns="http://www.w3.org/2000/svg" version="1.1">
 <metadata>
  <rdf:RDF xmlns:dc="http://purl.org/dc/elements/1.1/" xmlns:cc="http://creativecommons.org/ns#" xmlns:rdf="http://www.w3.org/1999/02/22-rdf-syntax-ns#">
   <cc:Work>
    <dc:type rdf:resource="http://purl.org/dc/dcmitype/StillImage"/>
    <dc:date>2026-05-12T14:13:36.446734</dc:date>
    <dc:format>image/svg+xml</dc:format>
    <dc:creator>
     <cc:Agent>
      <dc:title>Matplotlib v3.10.9, https://matplotlib.org/</dc:title>
     </cc:Agent>
    </dc:creator>
   </cc:Work>
  </rdf:RDF>
 </metadata>
 <defs>
  <style type="text/css">*{stroke-linejoin: round; stroke-linecap: butt}</style>
 </defs>
 <g id="figure_1">
  <g id="patch_1">
   <path d="M 0 340.741969 
L 360.36 340.741969 
L 360.36 0 
L 0 0 
z
" style="fill: #ffffff"/>
  </g>
  <g id="axes_1">
   <g id="patch_2">
    <path d="M 7.2 333.541969 
L 353.16 333.541969 
L 353.16 23.077969 
L 7.2 23.077969 
z
" style="fill: #ffffff"/>
   </g>
   <g id="patch_3">
    <path d="M 332.101565 305.317969 
L 323.076522 308.140369 
L 323.076522 305.353249 
L 37.283478 305.353249 
L 37.283478 305.282689 
L 323.076522 305.282689 
L 323.076522 302.495569 
z
" clip-path="url(#p198ce8c7f5)" style="fill: #333333; stroke: #333333; stroke-width: 1.2; stroke-linejoin: miter"/>
   </g>
   <g id="patch_4">
    <path d="M 37.283478 42.834769 
L 40.291826 51.301969 
L 37.321083 51.301969 
L 37.321083 305.317969 
L 37.245874 305.317969 
L 37.245874 51.301969 
L 34.27513 51.301969 
z
" clip-path="url(#p198ce8c7f5)" style="fill: #333333; stroke: #333333; stroke-width: 1.2; stroke-linejoin: miter"/>
   </g>
   <g id="PathCollection_1">
    <defs>
     <path id="m1a5c12d4e1" d="M 0 5.244044 
C 1.390737 5.244044 2.7247 4.691499 3.708099 3.708099 
C 4.691499 2.7247 5.244044 1.390737 5.244044 0 
C 5.244044 -1.390737 4.691499 -2.7247 3.708099 -3.708099 
C 2.7247 -4.691499 1.390737 -5.244044 0 -5.244044 
C -1.390737 -5.244044 -2.7247 -4.691499 -3.708099 -3.708099 
C -4.691499 -2.7247 -5.244044 -1.390737 -5.244044 0 
C -5.244044 1.390737 -4.691499 2.7247 -3.708099 3.708099 
C -2.7247 4.691499 -1.390737 5.244044 0 5.244044 
z
" style="stroke: #e45756; stroke-width: 2"/>
    </defs>
    <g clip-path="url(#p198ce8c7f5)">
     <use xlink:href="#m1a5c12d4e1" x="37.283478" y="305.317969" style="fill: #ffffff; stroke: #e45756; stroke-width: 2"/>
    </g>
   </g>
   <g id="PathCollection_2">
    <defs>
     <path id="m15f28d7dad" d="M 0 4.472136 
C 1.186024 4.472136 2.323632 4.000923 3.162278 3.162278 
C 4.000923 2.323632 4.472136 1.186024 4.472136 0 
C 4.472136 -1.186024 4.000923 -2.323632 3.162278 -3.162278 
C 2.323632 -4.000923 1.186024 -4.472136 0 -4.472136 
C -1.186024 -4.472136 -2.323632 -4.000923 -3.162278 -3.162278 
C -4.000923 -2.323632 -4.472136 -1.186024 -4.472136 0 
C -4.472136 1.186024 -4.000923 2.323632 -3.162278 3.162278 
C -2.323632 4.000923 -1.186024 4.472136 0 4.472136 
z
" style="stroke: #c77c7c; stroke-opacity: 0.65"/>
    </defs>
    <g clip-path="url(#p198ce8c7f5)">
     <use xlink:href="#m15f28d7dad" x="234.930515" y="175.769416" style="fill: #f4a7a7; fill-opacity: 0.65; stroke: #c77c7c; stroke-opacity: 0.65"/>
     <use xlink:href="#m15f28d7dad" x="249.010209" y="126.857783" style="fill: #f4a7a7; fill-opacity: 0.65; stroke: #c77c7c; stroke-opacity: 0.65"/>
     <use xlink:href="#m15f28d7dad" x="163.676596" y="182.244594" style="fill: #f4a7a7; fill-opacity: 0.65; stroke: #c77c7c; stroke-opacity: 0.65"/>
     <use xlink:href="#m15f28d7dad" x="229.343396" y="157.895896" style="fill: #f4a7a7; fill-opacity: 0.65; stroke: #c77c7c; stroke-opacity: 0.65"/>
     <use xlink:href="#m15f28d7dad" x="224.774508" y="171.152742" style="fill: #f4a7a7; fill-opacity: 0.65; stroke: #c77c7c; stroke-opacity: 0.65"/>
     <use xlink:href="#m15f28d7dad" x="253.083335" y="130.877619" style="fill: #f4a7a7; fill-opacity: 0.65; stroke: #c77c7c; stroke-opacity: 0.65"/>
     <use xlink:href="#m15f28d7dad" x="227.390972" y="122.24762" style="fill: #f4a7a7; fill-opacity: 0.65; stroke: #c77c7c; stroke-opacity: 0.65"/>
     <use xlink:href="#m15f28d7dad" x="240.07274" y="171.307055" style="fill: #f4a7a7; fill-opacity: 0.65; stroke: #c77c7c; stroke-opacity: 0.65"/>
     <use xlink:href="#m15f28d7dad" x="236.953189" y="173.766533" style="fill: #f4a7a7; fill-opacity: 0.65; stroke: #c77c7c; stroke-opacity: 0.65"/>
     <use xlink:href="#m15f28d7dad" x="253.0534" y="151.318939" style="fill: #f4a7a7; fill-opacity: 0.65; stroke: #c77c7c; stroke-opacity: 0.65"/>
     <use xlink:href="#m15f28d7dad" x="219.465849" y="166.902205" style="fill: #f4a7a7; fill-opacity: 0.65; stroke: #c77c7c; stroke-opacity: 0.65"/>
     <use xlink:href="#m15f28d7dad" x="263.922428" y="153.902229" style="fill: #f4a7a7; fill-opacity: 0.65; stroke: #c77c7c; stroke-opacity: 0.65"/>
     <use xlink:href="#m15f28d7dad" x="211.775347" y="158.782259" style="fill: #f4a7a7; fill-opacity: 0.65; stroke: #c77c7c; stroke-opacity: 0.65"/>
     <use xlink:href="#m15f28d7dad" x="242.119615" y="141.060962" style="fill: #f4a7a7; fill-opacity: 0.65; stroke: #c77c7c; stroke-opacity: 0.65"/>
     <use xlink:href="#m15f28d7dad" x="238.342472" y="139.446413" style="fill: #f4a7a7; fill-opacity: 0.65; stroke: #c77c7c; stroke-opacity: 0.65"/>
     <use xlink:href="#m15f28d7dad" x="292.954837" y="160.122794" style="fill: #f4a7a7; fill-opacity: 0.65; stroke: #c77c7c; stroke-opacity: 0.65"/>
     <use xlink:href="#m15f28d7dad" x="209.124672" y="170.1829" style="fill: #f4a7a7; fill-opacity: 0.65; stroke: #c77c7c; stroke-opacity: 0.65"/>
     <use xlink:href="#m15f28d7dad" x="244.762561" y="122.204869" style="fill: #f4a7a7; fill-opacity: 0.65; stroke: #c77c7c; stroke-opacity: 0.65"/>
     <use xlink:href="#m15f28d7dad" x="221.705885" y="170.834473" style="fill: #f4a7a7; fill-opacity: 0.65; stroke: #c77c7c; stroke-opacity: 0.65"/>
     <use xlink:href="#m15f28d7dad" x="199.261792" y="134.018929" style="fill: #f4a7a7; fill-opacity: 0.65; stroke: #c77c7c; stroke-opacity: 0.65"/>
     <use xlink:href="#m15f28d7dad" x="248.782872" y="136.672231" style="fill: #f4a7a7; fill-opacity: 0.65; stroke: #c77c7c; stroke-opacity: 0.65"/>
     <use xlink:href="#m15f28d7dad" x="204.283328" y="144.352513" style="fill: #f4a7a7; fill-opacity: 0.65; stroke: #c77c7c; stroke-opacity: 0.65"/>
     <use xlink:href="#m15f28d7dad" x="228.991048" y="144.685235" style="fill: #f4a7a7; fill-opacity: 0.65; stroke: #c77c7c; stroke-opacity: 0.65"/>
     <use xlink:href="#m15f28d7dad" x="252.831607" y="144.564053" style="fill: #f4a7a7; fill-opacity: 0.65; stroke: #c77c7c; stroke-opacity: 0.65"/>
     <use xlink:href="#m15f28d7dad" x="246.750503" y="148.417036" style="fill: #f4a7a7; fill-opacity: 0.65; stroke: #c77c7c; stroke-opacity: 0.65"/>
     <use xlink:href="#m15f28d7dad" x="234.43782" y="134.495675" style="fill: #f4a7a7; fill-opacity: 0.65; stroke: #c77c7c; stroke-opacity: 0.65"/>
     <use xlink:href="#m15f28d7dad" x="179.277086" y="157.980569" style="fill: #f4a7a7; fill-opacity: 0.65; stroke: #c77c7c; stroke-opacity: 0.65"/>
     <use xlink:href="#m15f28d7dad" x="210.44725" y="165.863696" style="fill: #f4a7a7; fill-opacity: 0.65; stroke: #c77c7c; stroke-opacity: 0.65"/>
     <use xlink:href="#m15f28d7dad" x="216.61412" y="113.166898" style="fill: #f4a7a7; fill-opacity: 0.65; stroke: #c77c7c; stroke-opacity: 0.65"/>
     <use xlink:href="#m15f28d7dad" x="197.955645" y="126.173367" style="fill: #f4a7a7; fill-opacity: 0.65; stroke: #c77c7c; stroke-opacity: 0.65"/>
     <use xlink:href="#m15f28d7dad" x="172.147312" y="158.356289" style="fill: #f4a7a7; fill-opacity: 0.65; stroke: #c77c7c; stroke-opacity: 0.65"/>
     <use xlink:href="#m15f28d7dad" x="230.446205" y="135.608622" style="fill: #f4a7a7; fill-opacity: 0.65; stroke: #c77c7c; stroke-opacity: 0.65"/>
     <use xlink:href="#m15f28d7dad" x="247.771195" y="130.493465" style="fill: #f4a7a7; fill-opacity: 0.65; stroke: #c77c7c; stroke-opacity: 0.65"/>
     <use xlink:href="#m15f28d7dad" x="214.289811" y="161.504209" style="fill: #f4a7a7; fill-opacity: 0.65; stroke: #c77c7c; stroke-opacity: 0.65"/>
     <use xlink:href="#m15f28d7dad" x="252.406661" y="154.81042" style="fill: #f4a7a7; fill-opacity: 0.65; stroke: #c77c7c; stroke-opacity: 0.65"/>
     <use xlink:href="#m15f28d7dad" x="185.009282" y="178.07363" style="fill: #f4a7a7; fill-opacity: 0.65; stroke: #c77c7c; stroke-opacity: 0.65"/>
     <use xlink:href="#m15f28d7dad" x="196.261878" y="137.808087" style="fill: #f4a7a7; fill-opacity: 0.65; stroke: #c77c7c; stroke-opacity: 0.65"/>
     <use xlink:href="#m15f28d7dad" x="229.804112" y="133.033742" style="fill: #f4a7a7; fill-opacity: 0.65; stroke: #c77c7c; stroke-opacity: 0.65"/>
     <use xlink:href="#m15f28d7dad" x="211.809309" y="146.170673" style="fill: #f4a7a7; fill-opacity: 0.65; stroke: #c77c7c; stroke-opacity: 0.65"/>
     <use xlink:href="#m15f28d7dad" x="245.066149" y="157.725591" style="fill: #f4a7a7; fill-opacity: 0.65; stroke: #c77c7c; stroke-opacity: 0.65"/>
     <use xlink:href="#m15f28d7dad" x="239.733675" y="166.432892" style="fill: #f4a7a7; fill-opacity: 0.65; stroke: #c77c7c; stroke-opacity: 0.65"/>
     <use xlink:href="#m15f28d7dad" x="213.837199" y="159.513368" style="fill: #f4a7a7; fill-opacity: 0.65; stroke: #c77c7c; stroke-opacity: 0.65"/>
     <use xlink:href="#m15f28d7dad" x="187.531451" y="138.059696" style="fill: #f4a7a7; fill-opacity: 0.65; stroke: #c77c7c; stroke-opacity: 0.65"/>
     <use xlink:href="#m15f28d7dad" x="210.4779" y="149.777414" style="fill: #f4a7a7; fill-opacity: 0.65; stroke: #c77c7c; stroke-opacity: 0.65"/>
     <use xlink:href="#m15f28d7dad" x="240.490876" y="139.058435" style="fill: #f4a7a7; fill-opacity: 0.65; stroke: #c77c7c; stroke-opacity: 0.65"/>
    </g>
   </g>
   <g id="PathCollection_3">
    <defs>
     <path id="ma3a0778b66" d="M 0 4.472136 
C 1.186024 4.472136 2.323632 4.000923 3.162278 3.162278 
C 4.000923 2.323632 4.472136 1.186024 4.472136 0 
C 4.472136 -1.186024 4.000923 -2.323632 3.162278 -3.162278 
C 2.323632 -4.000923 1.186024 -4.472136 0 -4.472136 
C -1.186024 -4.472136 -2.323632 -4.000923 -3.162278 -3.162278 
C -4.000923 -2.323632 -4.472136 -1.186024 -4.472136 0 
C -4.472136 1.186024 -4.000923 2.323632 -3.162278 3.162278 
C -2.323632 4.000923 -1.186024 4.472136 0 4.472136 
z
" style="stroke: #4c78a8; stroke-opacity: 0.85"/>
    </defs>
    <g clip-path="url(#p198ce8c7f5)">
     <use xlink:href="#ma3a0778b66" x="123.773478" y="224.173969" style="fill: #a7c7e7; fill-opacity: 0.85; stroke: #4c78a8; stroke-opacity: 0.85"/>
     <use xlink:href="#ma3a0778b66" x="138.815217" y="238.285969" style="fill: #a7c7e7; fill-opacity: 0.85; stroke: #4c78a8; stroke-opacity: 0.85"/>
     <use xlink:href="#ma3a0778b66" x="161.377826" y="245.341969" style="fill: #a7c7e7; fill-opacity: 0.85; stroke: #4c78a8; stroke-opacity: 0.85"/>
    </g>
   </g>
   <g id="patch_5">
    <path d="M 38.65491 303.865285 
Q 95.569495 243.578734 151.102569 184.755543 
" clip-path="url(#p198ce8c7f5)" style="fill: none; stroke: #8b4513; stroke-width: 1.8; stroke-linecap: round"/>
    <path d="M 144.382225 187.212571 
L 151.102569 184.755543 
L 149.035985 191.606034 
" clip-path="url(#p198ce8c7f5)" style="fill: none; stroke: #8b4513; stroke-width: 1.8; stroke-linecap: round"/>
   </g>
   <g id="matplotlib.axis_1"/>
   <g id="matplotlib.axis_2"/>
   <g id="line2d_1">
    <path d="M 63.606522 111.454369 
L 65.961542 113.995241 
L 68.316561 116.536114 
L 70.671581 119.076987 
L 73.026601 121.61786 
L 75.381621 124.158732 
L 77.73664 126.699605 
L 80.09166 129.240478 
L 82.44668 131.781351 
L 84.8017 134.322223 
L 87.156719 136.863096 
L 89.511739 139.403969 
L 91.866759 141.944841 
L 94.221779 144.485714 
L 96.576798 147.026587 
L 98.931818 149.56746 
L 101.286838 152.108332 
L 103.641858 154.649205 
L 105.996877 157.190078 
L 108.351897 159.730951 
L 110.706917 162.271823 
L 113.061937 164.812696 
L 115.416957 167.353569 
L 117.771976 169.894441 
L 120.126996 172.435314 
L 122.482016 174.976187 
L 124.837036 177.51706 
L 127.192055 180.057932 
L 129.547075 182.598805 
L 131.902095 185.139678 
L 134.257115 187.680551 
L 136.612134 190.221423 
L 138.967154 192.762296 
L 141.322174 195.303169 
L 143.677194 197.844041 
L 146.032213 200.384914 
L 148.387233 202.925787 
L 150.742253 205.46666 
L 153.097273 208.007532 
L 155.452292 210.548405 
L 157.807312 213.089278 
L 160.162332 215.630151 
L 162.517352 218.171023 
L 164.872372 220.711896 
L 167.227391 223.252769 
L 169.582411 225.793641 
L 171.937431 228.334514 
L 174.292451 230.875387 
L 176.64747 233.41626 
L 179.00249 235.957132 
L 181.35751 238.498005 
L 183.71253 241.038878 
L 186.067549 243.579751 
L 188.422569 246.120623 
L 190.777589 248.661496 
L 193.132609 251.202369 
L 195.487628 253.743241 
L 197.842648 256.284114 
L 200.197668 258.824987 
L 202.552688 261.36586 
L 204.907708 263.906732 
L 207.262727 266.447605 
L 209.617747 268.988478 
L 211.972767 271.529351 
L 214.327787 274.070223 
L 216.682806 276.611096 
L 219.037826 279.151969 
L 221.392846 281.692841 
L 223.747866 284.233714 
L 226.102885 286.774587 
L 228.457905 289.31546 
L 230.812925 291.856332 
L 233.167945 294.397205 
L 235.522964 296.938078 
L 237.877984 299.478951 
L 240.233004 302.019823 
L 242.588024 304.560696 
L 244.943043 307.101569 
L 247.298063 309.642441 
L 249.653083 312.183314 
L 252.008103 314.724187 
L 254.363123 317.26506 
L 256.718142 319.805932 
L 259.073162 322.346805 
L 261.428182 324.887678 
L 263.783202 327.428551 
L 266.138221 329.969423 
L 268.493241 332.510296 
L 270.848261 335.051169 
L 273.203281 337.592041 
L 275.5583 340.132914 
L 277.04966 341.741969 
" clip-path="url(#p198ce8c7f5)" style="fill: none; stroke: #7b2cbf; stroke-width: 2.5; stroke-linecap: square"/>
   </g>
   <g id="patch_6">
    <path d="M 7.2 333.541969 
L 7.2 23.077969 
" style="fill: none; stroke: #000000; stroke-width: 0.8; stroke-linejoin: miter; stroke-linecap: square"/>
   </g>
   <g id="patch_7">
    <path d="M 7.2 333.541969 
L 353.16 333.541969 
" style="fill: none; stroke: #000000; stroke-width: 0.8; stroke-linejoin: miter; stroke-linecap: square"/>
   </g>
   <g id="text_1">
    <!-- $\phi_1(x)$ -->
    <g transform="translate(326.836957 314.490769) scale(0.12 -0.12)">
     <defs>
      <path id="STIXGeneral-Italic-3d5" d="M 3078 4371 
L 2650 2822 
Q 3098 2822 3296 2746 
Q 3808 2547 3808 1939 
Q 3808 1709 3728 1446 
Q 3648 1184 3481 915 
Q 3315 646 3088 425 
Q 2861 205 2537 67 
Q 2214 -70 1850 -70 
L 1504 -1312 
L 1005 -1312 
L 1350 -70 
Q 883 -70 666 0 
Q 173 160 173 819 
Q 173 1018 256 1274 
Q 339 1530 502 1802 
Q 666 2074 886 2301 
Q 1107 2528 1417 2675 
Q 1728 2822 2061 2822 
L 2157 2822 
L 2586 4371 
L 3078 4371 
z
M 2611 2688 
L 1888 64 
Q 2125 64 2330 166 
Q 2694 352 2982 998 
Q 3270 1645 3270 2093 
Q 3270 2464 2982 2643 
Q 2906 2688 2611 2688 
z
M 1389 64 
L 2118 2688 
Q 1760 2688 1427 2365 
Q 1094 2042 902 1568 
Q 710 1094 710 646 
Q 710 237 1018 115 
Q 1152 64 1389 64 
z
" transform="scale(0.015625)"/>
      <path id="STIXGeneral-Regular-31" d="M 2522 0 
L 755 0 
L 755 96 
Q 1107 115 1235 227 
Q 1363 339 1363 608 
L 1363 3482 
Q 1363 3795 1171 3795 
Q 1082 3795 883 3718 
L 710 3654 
L 710 3744 
L 1856 4326 
L 1914 4307 
L 1914 486 
Q 1914 275 2042 185 
Q 2170 96 2522 96 
L 2522 0 
z
" transform="scale(0.015625)"/>
      <path id="STIXGeneral-Regular-28" d="M 1946 -1030 
L 1869 -1133 
Q 1126 -710 716 32 
Q 307 774 307 1613 
Q 307 3386 1888 4326 
L 1946 4224 
Q 1293 3667 1075 3126 
Q 858 2586 858 1632 
Q 858 685 1082 96 
Q 1306 -493 1946 -1030 
z
" transform="scale(0.015625)"/>
      <path id="STIXGeneral-Italic-78" d="M 1555 2272 
L 1632 1907 
Q 1971 2426 2179 2624 
Q 2387 2822 2598 2822 
Q 2714 2822 2787 2755 
Q 2861 2688 2861 2585 
Q 2861 2483 2800 2419 
Q 2739 2355 2643 2355 
Q 2586 2355 2490 2409 
Q 2394 2464 2310 2464 
Q 2125 2464 1683 1690 
Q 1683 1606 1734 1402 
L 1939 544 
Q 2003 282 2131 282 
Q 2234 282 2432 538 
Q 2451 563 2476 598 
Q 2502 634 2521 662 
Q 2541 691 2566 717 
L 2662 659 
Q 2387 230 2227 80 
Q 2067 -70 1882 -70 
Q 1728 -70 1645 26 
Q 1562 122 1504 365 
L 1318 1126 
L 755 365 
Q 557 96 432 13 
Q 307 -70 147 -70 
Q 0 -70 -86 0 
Q -173 70 -173 198 
Q -173 294 -112 361 
Q -51 429 45 429 
Q 122 429 250 358 
Q 346 301 416 301 
Q 525 301 742 614 
L 1267 1357 
L 1088 2150 
Q 1024 2432 969 2509 
Q 915 2586 794 2586 
Q 717 2586 544 2541 
L 429 2509 
L 410 2611 
L 480 2637 
Q 992 2822 1229 2822 
Q 1350 2822 1420 2707 
Q 1491 2592 1555 2272 
z
" transform="scale(0.015625)"/>
      <path id="STIXGeneral-Regular-29" d="M 186 4224 
L 262 4326 
Q 992 3891 1408 3148 
Q 1824 2406 1824 1581 
Q 1824 -166 243 -1133 
L 186 -1030 
Q 845 -486 1059 54 
Q 1274 595 1274 1562 
Q 1274 2534 1059 3120 
Q 845 3706 186 4224 
z
" transform="scale(0.015625)"/>
     </defs>
     <use xlink:href="#STIXGeneral-Italic-3d5" transform="translate(0 0.703125)"/>
     <use xlink:href="#STIXGeneral-Regular-31" transform="translate(62.699997 -12.525) scale(0.7)"/>
     <use xlink:href="#STIXGeneral-Regular-28" transform="translate(102.109361 0.703125)"/>
     <use xlink:href="#STIXGeneral-Italic-78" transform="translate(135.409349 0.703125)"/>
     <use xlink:href="#STIXGeneral-Regular-29" transform="translate(179.809343 0.703125)"/>
    </g>
   </g>
   <g id="text_2">
    <!-- $\phi_2(x)$ -->
    <g transform="translate(10.960435 49.890769) scale(0.12 -0.12)">
     <defs>
      <path id="STIXGeneral-Regular-32" d="M 3034 877 
L 2688 0 
L 186 0 
L 186 77 
L 1325 1286 
Q 1773 1754 1965 2144 
Q 2157 2534 2157 2950 
Q 2157 3379 1920 3616 
Q 1683 3853 1267 3853 
Q 922 3853 720 3673 
Q 518 3494 326 3021 
L 192 3053 
Q 301 3648 630 3987 
Q 960 4326 1523 4326 
Q 2054 4326 2380 4006 
Q 2707 3686 2707 3200 
Q 2707 2477 1888 1613 
L 832 486 
L 2330 486 
Q 2541 486 2665 569 
Q 2790 653 2944 915 
L 3034 877 
z
" transform="scale(0.015625)"/>
     </defs>
     <use xlink:href="#STIXGeneral-Italic-3d5" transform="translate(0 0.703125)"/>
     <use xlink:href="#STIXGeneral-Regular-32" transform="translate(62.699997 -12.525) scale(0.7)"/>
     <use xlink:href="#STIXGeneral-Regular-28" transform="translate(102.109361 0.703125)"/>
     <use xlink:href="#STIXGeneral-Italic-78" transform="translate(135.409349 0.703125)"/>
     <use xlink:href="#STIXGeneral-Regular-29" transform="translate(179.809343 0.703125)"/>
    </g>
   </g>
   <g id="text_3">
    <!-- origin -->
    <g transform="translate(23.745913 318.018769) scale(0.1 -0.1)">
     <defs>
      <path id="DejaVuSans-6f" d="M 1959 3097 
Q 1497 3097 1228 2736 
Q 959 2375 959 1747 
Q 959 1119 1226 758 
Q 1494 397 1959 397 
Q 2419 397 2687 759 
Q 2956 1122 2956 1747 
Q 2956 2369 2687 2733 
Q 2419 3097 1959 3097 
z
M 1959 3584 
Q 2709 3584 3137 3096 
Q 3566 2609 3566 1747 
Q 3566 888 3137 398 
Q 2709 -91 1959 -91 
Q 1206 -91 779 398 
Q 353 888 353 1747 
Q 353 2609 779 3096 
Q 1206 3584 1959 3584 
z
" transform="scale(0.015625)"/>
      <path id="DejaVuSans-72" d="M 2631 2963 
Q 2534 3019 2420 3045 
Q 2306 3072 2169 3072 
Q 1681 3072 1420 2755 
Q 1159 2438 1159 1844 
L 1159 0 
L 581 0 
L 581 3500 
L 1159 3500 
L 1159 2956 
Q 1341 3275 1631 3429 
Q 1922 3584 2338 3584 
Q 2397 3584 2469 3576 
Q 2541 3569 2628 3553 
L 2631 2963 
z
" transform="scale(0.015625)"/>
      <path id="DejaVuSans-69" d="M 603 3500 
L 1178 3500 
L 1178 0 
L 603 0 
L 603 3500 
z
M 603 4863 
L 1178 4863 
L 1178 4134 
L 603 4134 
L 603 4863 
z
" transform="scale(0.015625)"/>
      <path id="DejaVuSans-67" d="M 2906 1791 
Q 2906 2416 2648 2759 
Q 2391 3103 1925 3103 
Q 1463 3103 1205 2759 
Q 947 2416 947 1791 
Q 947 1169 1205 825 
Q 1463 481 1925 481 
Q 2391 481 2648 825 
Q 2906 1169 2906 1791 
z
M 3481 434 
Q 3481 -459 3084 -895 
Q 2688 -1331 1869 -1331 
Q 1566 -1331 1297 -1286 
Q 1028 -1241 775 -1147 
L 775 -588 
Q 1028 -725 1275 -790 
Q 1522 -856 1778 -856 
Q 2344 -856 2625 -561 
Q 2906 -266 2906 331 
L 2906 616 
Q 2728 306 2450 153 
Q 2172 0 1784 0 
Q 1141 0 747 490 
Q 353 981 353 1791 
Q 353 2603 747 3093 
Q 1141 3584 1784 3584 
Q 2172 3584 2450 3431 
Q 2728 3278 2906 2969 
L 2906 3500 
L 3481 3500 
L 3481 434 
z
" transform="scale(0.015625)"/>
      <path id="DejaVuSans-6e" d="M 3513 2113 
L 3513 0 
L 2938 0 
L 2938 2094 
Q 2938 2591 2744 2837 
Q 2550 3084 2163 3084 
Q 1697 3084 1428 2787 
Q 1159 2491 1159 1978 
L 1159 0 
L 581 0 
L 581 3500 
L 1159 3500 
L 1159 2956 
Q 1366 3272 1645 3428 
Q 1925 3584 2291 3584 
Q 2894 3584 3203 3211 
Q 3513 2838 3513 2113 
z
" transform="scale(0.015625)"/>
     </defs>
     <use xlink:href="#DejaVuSans-6f"/>
     <use xlink:href="#DejaVuSans-72" transform="translate(61.181641 0)"/>
     <use xlink:href="#DejaVuSans-69" transform="translate(102.294922 0)"/>
     <use xlink:href="#DejaVuSans-67" transform="translate(130.078125 0)"/>
     <use xlink:href="#DejaVuSans-69" transform="translate(193.554688 0)"/>
     <use xlink:href="#DejaVuSans-6e" transform="translate(221.337891 0)"/>
    </g>
   </g>
   <g id="text_4">
    <!-- $w^\top \phi(x)-\rho=0$ -->
    <g transform="translate(210.445513 212.836205) rotate(-318) scale(0.12 -0.12)">
     <defs>
      <path id="STIXGeneral-Italic-77" d="M 2579 2726 
L 2784 474 
Q 3418 1261 3629 1597 
Q 3840 1933 3840 2138 
Q 3840 2227 3699 2362 
Q 3565 2490 3565 2624 
Q 3565 2701 3638 2761 
Q 3712 2822 3814 2822 
Q 3955 2822 4051 2720 
Q 4147 2618 4147 2464 
Q 4147 1882 2790 230 
L 2733 160 
Q 2509 -115 2445 -115 
Q 2394 -115 2374 109 
L 2189 2093 
L 1619 1120 
Q 1472 877 1267 486 
Q 954 -115 858 -115 
Q 813 -115 800 -57 
Q 787 0 774 186 
L 749 768 
Q 698 1818 576 2317 
Q 531 2490 476 2538 
Q 422 2586 275 2586 
L 96 2586 
L 96 2669 
Q 602 2752 704 2778 
Q 736 2784 777 2797 
Q 819 2810 844 2816 
Q 870 2822 890 2822 
Q 941 2822 960 2790 
Q 979 2758 1011 2605 
Q 1171 1837 1216 806 
L 2445 2752 
Q 2483 2816 2528 2816 
Q 2579 2816 2579 2726 
z
" transform="scale(0.015625)"/>
      <path id="STIXGeneral-Regular-22a4" d="M 4077 3814 
L 2400 3814 
L 2400 0 
L 1978 0 
L 1978 3814 
L 307 3814 
L 307 4237 
L 4077 4237 
L 4077 3814 
z
" transform="scale(0.015625)"/>
      <path id="STIXGeneral-Regular-2212" d="M 3974 1408 
L 410 1408 
L 410 1830 
L 3974 1830 
L 3974 1408 
z
" transform="scale(0.015625)"/>
      <path id="STIXGeneral-Italic-3c1" d="M -58 -864 
L 422 966 
Q 640 1811 1081 2316 
Q 1523 2822 2042 2822 
Q 2189 2822 2278 2816 
Q 2368 2810 2525 2765 
Q 2682 2720 2774 2633 
Q 2867 2547 2940 2371 
Q 3014 2195 3014 1946 
Q 3014 1210 2403 570 
Q 1792 -70 1107 -70 
Q 864 -70 672 38 
L 442 -864 
Q 378 -1126 243 -1312 
L -256 -1312 
Q -128 -1114 -58 -864 
z
M 2445 1997 
Q 2445 2291 2333 2489 
Q 2221 2688 2022 2688 
Q 1747 2688 1472 2361 
Q 1197 2035 1056 1530 
Q 762 467 762 288 
Q 762 186 851 118 
Q 941 51 1075 51 
Q 1472 58 1798 390 
Q 2125 723 2285 1161 
Q 2445 1600 2445 1997 
z
" transform="scale(0.015625)"/>
      <path id="STIXGeneral-Regular-3d" d="M 4077 2048 
L 307 2048 
L 307 2470 
L 4077 2470 
L 4077 2048 
z
M 4077 768 
L 307 768 
L 307 1190 
L 4077 1190 
L 4077 768 
z
" transform="scale(0.015625)"/>
      <path id="STIXGeneral-Regular-30" d="M 3046 2112 
Q 3046 1683 2963 1302 
Q 2880 922 2717 602 
Q 2554 282 2266 96 
Q 1978 -90 1600 -90 
Q 1210 -90 915 108 
Q 621 307 461 640 
Q 301 973 227 1350 
Q 154 1728 154 2150 
Q 154 2746 301 3222 
Q 448 3699 790 4012 
Q 1133 4326 1626 4326 
Q 2253 4326 2649 3712 
Q 3046 3098 3046 2112 
z
M 2432 2080 
Q 2432 3091 2217 3625 
Q 2003 4160 1587 4160 
Q 1190 4160 979 3622 
Q 768 3085 768 2106 
Q 768 1120 979 598 
Q 1190 77 1600 77 
Q 2003 77 2217 598 
Q 2432 1120 2432 2080 
z
" transform="scale(0.015625)"/>
     </defs>
     <use xlink:href="#STIXGeneral-Italic-77" transform="translate(0 0.382812)"/>
     <use xlink:href="#STIXGeneral-Regular-22a4" transform="translate(82.981119 35.657812) scale(0.7)"/>
     <use xlink:href="#STIXGeneral-Italic-3d5" transform="translate(145.448481 0.382812)"/>
     <use xlink:href="#STIXGeneral-Regular-28" transform="translate(208.148478 0.382812)"/>
     <use xlink:href="#STIXGeneral-Italic-78" transform="translate(241.448466 0.382812)"/>
     <use xlink:href="#STIXGeneral-Regular-29" transform="translate(285.84846 0.382812)"/>
     <use xlink:href="#STIXGeneral-Regular-2212" transform="translate(333.588444 0.382812)"/>
     <use xlink:href="#STIXGeneral-Italic-3c1" transform="translate(416.528425 0.382812)"/>
     <use xlink:href="#STIXGeneral-Regular-3d" transform="translate(481.368415 0.382812)"/>
     <use xlink:href="#STIXGeneral-Regular-30" transform="translate(564.308396 0.382812)"/>
    </g>
   </g>
   <g id="text_5">
    <!-- normal points, $\xi_i=0$ -->
    <g style="fill: #aa4a4a" transform="translate(229.065652 73.881169) scale(0.11 -0.11)">
     <defs>
      <path id="DejaVuSans-6d" d="M 3328 2828 
Q 3544 3216 3844 3400 
Q 4144 3584 4550 3584 
Q 5097 3584 5394 3201 
Q 5691 2819 5691 2113 
L 5691 0 
L 5113 0 
L 5113 2094 
Q 5113 2597 4934 2840 
Q 4756 3084 4391 3084 
Q 3944 3084 3684 2787 
Q 3425 2491 3425 1978 
L 3425 0 
L 2847 0 
L 2847 2094 
Q 2847 2600 2669 2842 
Q 2491 3084 2119 3084 
Q 1678 3084 1418 2786 
Q 1159 2488 1159 1978 
L 1159 0 
L 581 0 
L 581 3500 
L 1159 3500 
L 1159 2956 
Q 1356 3278 1631 3431 
Q 1906 3584 2284 3584 
Q 2666 3584 2933 3390 
Q 3200 3197 3328 2828 
z
" transform="scale(0.015625)"/>
      <path id="DejaVuSans-61" d="M 2194 1759 
Q 1497 1759 1228 1600 
Q 959 1441 959 1056 
Q 959 750 1161 570 
Q 1363 391 1709 391 
Q 2188 391 2477 730 
Q 2766 1069 2766 1631 
L 2766 1759 
L 2194 1759 
z
M 3341 1997 
L 3341 0 
L 2766 0 
L 2766 531 
Q 2569 213 2275 61 
Q 1981 -91 1556 -91 
Q 1019 -91 701 211 
Q 384 513 384 1019 
Q 384 1609 779 1909 
Q 1175 2209 1959 2209 
L 2766 2209 
L 2766 2266 
Q 2766 2663 2505 2880 
Q 2244 3097 1772 3097 
Q 1472 3097 1187 3025 
Q 903 2953 641 2809 
L 641 3341 
Q 956 3463 1253 3523 
Q 1550 3584 1831 3584 
Q 2591 3584 2966 3190 
Q 3341 2797 3341 1997 
z
" transform="scale(0.015625)"/>
      <path id="DejaVuSans-6c" d="M 603 4863 
L 1178 4863 
L 1178 0 
L 603 0 
L 603 4863 
z
" transform="scale(0.015625)"/>
      <path id="DejaVuSans-20" transform="scale(0.015625)"/>
      <path id="DejaVuSans-70" d="M 1159 525 
L 1159 -1331 
L 581 -1331 
L 581 3500 
L 1159 3500 
L 1159 2969 
Q 1341 3281 1617 3432 
Q 1894 3584 2278 3584 
Q 2916 3584 3314 3078 
Q 3713 2572 3713 1747 
Q 3713 922 3314 415 
Q 2916 -91 2278 -91 
Q 1894 -91 1617 61 
Q 1341 213 1159 525 
z
M 3116 1747 
Q 3116 2381 2855 2742 
Q 2594 3103 2138 3103 
Q 1681 3103 1420 2742 
Q 1159 2381 1159 1747 
Q 1159 1113 1420 752 
Q 1681 391 2138 391 
Q 2594 391 2855 752 
Q 3116 1113 3116 1747 
z
" transform="scale(0.015625)"/>
      <path id="DejaVuSans-74" d="M 1172 4494 
L 1172 3500 
L 2356 3500 
L 2356 3053 
L 1172 3053 
L 1172 1153 
Q 1172 725 1289 603 
Q 1406 481 1766 481 
L 2356 481 
L 2356 0 
L 1766 0 
Q 1100 0 847 248 
Q 594 497 594 1153 
L 594 3053 
L 172 3053 
L 172 3500 
L 594 3500 
L 594 4494 
L 1172 4494 
z
" transform="scale(0.015625)"/>
      <path id="DejaVuSans-73" d="M 2834 3397 
L 2834 2853 
Q 2591 2978 2328 3040 
Q 2066 3103 1784 3103 
Q 1356 3103 1142 2972 
Q 928 2841 928 2578 
Q 928 2378 1081 2264 
Q 1234 2150 1697 2047 
L 1894 2003 
Q 2506 1872 2764 1633 
Q 3022 1394 3022 966 
Q 3022 478 2636 193 
Q 2250 -91 1575 -91 
Q 1294 -91 989 -36 
Q 684 19 347 128 
L 347 722 
Q 666 556 975 473 
Q 1284 391 1588 391 
Q 1994 391 2212 530 
Q 2431 669 2431 922 
Q 2431 1156 2273 1281 
Q 2116 1406 1581 1522 
L 1381 1569 
Q 847 1681 609 1914 
Q 372 2147 372 2553 
Q 372 3047 722 3315 
Q 1072 3584 1716 3584 
Q 2034 3584 2315 3537 
Q 2597 3491 2834 3397 
z
" transform="scale(0.015625)"/>
      <path id="DejaVuSans-2c" d="M 750 794 
L 1409 794 
L 1409 256 
L 897 -744 
L 494 -744 
L 750 256 
L 750 794 
z
" transform="scale(0.015625)"/>
      <path id="STIXGeneral-Italic-3be" d="M 1894 4371 
L 1920 4269 
Q 1453 4115 1453 3808 
Q 1453 3654 1638 3622 
Q 2221 4013 2554 4013 
Q 2854 4013 2854 3814 
Q 2854 3622 2601 3510 
Q 2349 3398 1856 3398 
Q 1619 3398 1465 3180 
Q 1312 2963 1312 2790 
Q 1312 2573 1478 2451 
Q 1856 2714 2362 2714 
Q 2701 2714 2701 2522 
Q 2701 2406 2617 2326 
Q 2534 2246 2406 2208 
Q 2278 2170 2169 2154 
Q 2061 2138 1965 2138 
Q 1779 2138 1504 2221 
Q 1158 2106 841 1741 
Q 525 1376 518 1043 
Q 518 730 694 589 
Q 870 448 1216 448 
Q 1261 448 1350 451 
Q 1440 454 1459 454 
Q 1862 454 2080 294 
Q 2298 134 2298 -134 
Q 2298 -422 2118 -678 
Q 1978 -896 1728 -1040 
Q 1478 -1184 1261 -1184 
Q 1082 -1184 957 -1101 
Q 832 -1018 832 -851 
Q 832 -742 909 -662 
Q 986 -582 1107 -582 
Q 1210 -582 1328 -675 
Q 1446 -768 1523 -768 
Q 1734 -768 1888 -643 
Q 2042 -518 2042 -326 
Q 2042 -6 1555 -6 
Q 1472 -6 1270 -38 
Q 1069 -70 973 -70 
Q 192 -70 192 685 
Q 198 1210 508 1651 
Q 819 2093 1312 2336 
Q 1075 2496 1075 2739 
Q 1075 3117 1446 3424 
Q 1363 3424 1254 3510 
Q 1146 3597 1146 3712 
Q 1146 4179 1894 4371 
z
" transform="scale(0.015625)"/>
      <path id="STIXGeneral-Italic-69" d="M 1690 3834 
Q 1690 3699 1597 3603 
Q 1504 3507 1376 3507 
Q 1235 3507 1152 3600 
Q 1069 3693 1069 3846 
Q 1069 3994 1155 4090 
Q 1242 4186 1370 4186 
Q 1498 4186 1594 4080 
Q 1690 3974 1690 3834 
z
M 1421 730 
L 1504 659 
Q 1235 243 1049 86 
Q 864 -70 627 -70 
Q 314 -70 314 282 
Q 314 467 454 992 
L 762 2125 
Q 819 2330 819 2406 
Q 819 2502 745 2528 
Q 672 2554 410 2560 
L 410 2662 
Q 704 2688 1434 2822 
L 1459 2803 
L 858 608 
Q 794 390 794 326 
Q 794 230 883 230 
Q 1043 230 1421 730 
z
" transform="scale(0.015625)"/>
     </defs>
     <use xlink:href="#DejaVuSans-6e" transform="translate(0 0.015625)"/>
     <use xlink:href="#DejaVuSans-6f" transform="translate(63.378906 0.015625)"/>
     <use xlink:href="#DejaVuSans-72" transform="translate(124.560547 0.015625)"/>
     <use xlink:href="#DejaVuSans-6d" transform="translate(165.673828 0.015625)"/>
     <use xlink:href="#DejaVuSans-61" transform="translate(263.085938 0.015625)"/>
     <use xlink:href="#DejaVuSans-6c" transform="translate(324.365234 0.015625)"/>
     <use xlink:href="#DejaVuSans-20" transform="translate(352.148438 0.015625)"/>
     <use xlink:href="#DejaVuSans-70" transform="translate(383.935547 0.015625)"/>
     <use xlink:href="#DejaVuSans-6f" transform="translate(447.412109 0.015625)"/>
     <use xlink:href="#DejaVuSans-69" transform="translate(508.59375 0.015625)"/>
     <use xlink:href="#DejaVuSans-6e" transform="translate(536.376953 0.015625)"/>
     <use xlink:href="#DejaVuSans-74" transform="translate(599.755859 0.015625)"/>
     <use xlink:href="#DejaVuSans-73" transform="translate(638.964844 0.015625)"/>
     <use xlink:href="#DejaVuSans-2c" transform="translate(691.064453 0.015625)"/>
     <use xlink:href="#DejaVuSans-20" transform="translate(722.851562 0.015625)"/>
     <use xlink:href="#STIXGeneral-Italic-3be" transform="translate(754.638672 0.015625)"/>
     <use xlink:href="#STIXGeneral-Italic-69" transform="translate(800.038666 -13.2125) scale(0.7)"/>
     <use xlink:href="#STIXGeneral-Regular-3d" transform="translate(838.348029 0.015625)"/>
     <use xlink:href="#STIXGeneral-Regular-30" transform="translate(921.28801 0.015625)"/>
    </g>
   </g>
   <g id="text_6">
    <!-- violations, $\xi_i&gt;0$ -->
    <g style="fill: #2f5f8f" transform="translate(89.929565 203.005969) scale(0.11 -0.11)">
     <defs>
      <path id="DejaVuSans-76" d="M 191 3500 
L 800 3500 
L 1894 563 
L 2988 3500 
L 3597 3500 
L 2284 0 
L 1503 0 
L 191 3500 
z
" transform="scale(0.015625)"/>
      <path id="STIXGeneral-Regular-3e" d="M 3974 1594 
L 358 -154 
L 358 250 
L 3123 1626 
L 358 3002 
L 358 3418 
L 3974 1658 
L 3974 1594 
z
" transform="scale(0.015625)"/>
     </defs>
     <use xlink:href="#DejaVuSans-76" transform="translate(0 0.015625)"/>
     <use xlink:href="#DejaVuSans-69" transform="translate(59.179688 0.015625)"/>
     <use xlink:href="#DejaVuSans-6f" transform="translate(86.962891 0.015625)"/>
     <use xlink:href="#DejaVuSans-6c" transform="translate(148.144531 0.015625)"/>
     <use xlink:href="#DejaVuSans-61" transform="translate(175.927734 0.015625)"/>
     <use xlink:href="#DejaVuSans-74" transform="translate(237.207031 0.015625)"/>
     <use xlink:href="#DejaVuSans-69" transform="translate(276.416016 0.015625)"/>
     <use xlink:href="#DejaVuSans-6f" transform="translate(304.199219 0.015625)"/>
     <use xlink:href="#DejaVuSans-6e" transform="translate(365.380859 0.015625)"/>
     <use xlink:href="#DejaVuSans-73" transform="translate(428.759766 0.015625)"/>
     <use xlink:href="#DejaVuSans-2c" transform="translate(480.859375 0.015625)"/>
     <use xlink:href="#DejaVuSans-20" transform="translate(512.646484 0.015625)"/>
     <use xlink:href="#STIXGeneral-Italic-3be" transform="translate(544.433594 0.015625)"/>
     <use xlink:href="#STIXGeneral-Italic-69" transform="translate(589.833588 -13.2125) scale(0.7)"/>
     <use xlink:href="#STIXGeneral-Regular-3e" transform="translate(628.14295 0.015625)"/>
     <use xlink:href="#STIXGeneral-Regular-30" transform="translate(711.082932 0.015625)"/>
    </g>
   </g>
   <g id="text_7">
    <!-- $\rho$ -->
    <g style="fill: #8b4513" transform="translate(93.69 238.285969) scale(0.14 -0.14)">
     <use xlink:href="#STIXGeneral-Italic-3c1" transform="translate(0 0.90625)"/>
    </g>
   </g>
   <g id="text_8">
    <!-- OC-SVM Concept in Feature Space -->
    <g transform="translate(68.559766 17.077969) scale(0.13 -0.13)">
     <defs>
      <path id="DejaVuSans-4f" d="M 2522 4238 
Q 1834 4238 1429 3725 
Q 1025 3213 1025 2328 
Q 1025 1447 1429 934 
Q 1834 422 2522 422 
Q 3209 422 3611 934 
Q 4013 1447 4013 2328 
Q 4013 3213 3611 3725 
Q 3209 4238 2522 4238 
z
M 2522 4750 
Q 3503 4750 4090 4092 
Q 4678 3434 4678 2328 
Q 4678 1225 4090 567 
Q 3503 -91 2522 -91 
Q 1538 -91 948 565 
Q 359 1222 359 2328 
Q 359 3434 948 4092 
Q 1538 4750 2522 4750 
z
" transform="scale(0.015625)"/>
      <path id="DejaVuSans-43" d="M 4122 4306 
L 4122 3641 
Q 3803 3938 3442 4084 
Q 3081 4231 2675 4231 
Q 1875 4231 1450 3742 
Q 1025 3253 1025 2328 
Q 1025 1406 1450 917 
Q 1875 428 2675 428 
Q 3081 428 3442 575 
Q 3803 722 4122 1019 
L 4122 359 
Q 3791 134 3420 21 
Q 3050 -91 2638 -91 
Q 1578 -91 968 557 
Q 359 1206 359 2328 
Q 359 3453 968 4101 
Q 1578 4750 2638 4750 
Q 3056 4750 3426 4639 
Q 3797 4528 4122 4306 
z
" transform="scale(0.015625)"/>
      <path id="DejaVuSans-2d" d="M 313 2009 
L 1997 2009 
L 1997 1497 
L 313 1497 
L 313 2009 
z
" transform="scale(0.015625)"/>
      <path id="DejaVuSans-53" d="M 3425 4513 
L 3425 3897 
Q 3066 4069 2747 4153 
Q 2428 4238 2131 4238 
Q 1616 4238 1336 4038 
Q 1056 3838 1056 3469 
Q 1056 3159 1242 3001 
Q 1428 2844 1947 2747 
L 2328 2669 
Q 3034 2534 3370 2195 
Q 3706 1856 3706 1288 
Q 3706 609 3251 259 
Q 2797 -91 1919 -91 
Q 1588 -91 1214 -16 
Q 841 59 441 206 
L 441 856 
Q 825 641 1194 531 
Q 1563 422 1919 422 
Q 2459 422 2753 634 
Q 3047 847 3047 1241 
Q 3047 1584 2836 1778 
Q 2625 1972 2144 2069 
L 1759 2144 
Q 1053 2284 737 2584 
Q 422 2884 422 3419 
Q 422 4038 858 4394 
Q 1294 4750 2059 4750 
Q 2388 4750 2728 4690 
Q 3069 4631 3425 4513 
z
" transform="scale(0.015625)"/>
      <path id="DejaVuSans-56" d="M 1831 0 
L 50 4666 
L 709 4666 
L 2188 738 
L 3669 4666 
L 4325 4666 
L 2547 0 
L 1831 0 
z
" transform="scale(0.015625)"/>
      <path id="DejaVuSans-4d" d="M 628 4666 
L 1569 4666 
L 2759 1491 
L 3956 4666 
L 4897 4666 
L 4897 0 
L 4281 0 
L 4281 4097 
L 3078 897 
L 2444 897 
L 1241 4097 
L 1241 0 
L 628 0 
L 628 4666 
z
" transform="scale(0.015625)"/>
      <path id="DejaVuSans-63" d="M 3122 3366 
L 3122 2828 
Q 2878 2963 2633 3030 
Q 2388 3097 2138 3097 
Q 1578 3097 1268 2742 
Q 959 2388 959 1747 
Q 959 1106 1268 751 
Q 1578 397 2138 397 
Q 2388 397 2633 464 
Q 2878 531 3122 666 
L 3122 134 
Q 2881 22 2623 -34 
Q 2366 -91 2075 -91 
Q 1284 -91 818 406 
Q 353 903 353 1747 
Q 353 2603 823 3093 
Q 1294 3584 2113 3584 
Q 2378 3584 2631 3529 
Q 2884 3475 3122 3366 
z
" transform="scale(0.015625)"/>
      <path id="DejaVuSans-65" d="M 3597 1894 
L 3597 1613 
L 953 1613 
Q 991 1019 1311 708 
Q 1631 397 2203 397 
Q 2534 397 2845 478 
Q 3156 559 3463 722 
L 3463 178 
Q 3153 47 2828 -22 
Q 2503 -91 2169 -91 
Q 1331 -91 842 396 
Q 353 884 353 1716 
Q 353 2575 817 3079 
Q 1281 3584 2069 3584 
Q 2775 3584 3186 3129 
Q 3597 2675 3597 1894 
z
M 3022 2063 
Q 3016 2534 2758 2815 
Q 2500 3097 2075 3097 
Q 1594 3097 1305 2825 
Q 1016 2553 972 2059 
L 3022 2063 
z
" transform="scale(0.015625)"/>
      <path id="DejaVuSans-46" d="M 628 4666 
L 3309 4666 
L 3309 4134 
L 1259 4134 
L 1259 2759 
L 3109 2759 
L 3109 2228 
L 1259 2228 
L 1259 0 
L 628 0 
L 628 4666 
z
" transform="scale(0.015625)"/>
      <path id="DejaVuSans-75" d="M 544 1381 
L 544 3500 
L 1119 3500 
L 1119 1403 
Q 1119 906 1312 657 
Q 1506 409 1894 409 
Q 2359 409 2629 706 
Q 2900 1003 2900 1516 
L 2900 3500 
L 3475 3500 
L 3475 0 
L 2900 0 
L 2900 538 
Q 2691 219 2414 64 
Q 2138 -91 1772 -91 
Q 1169 -91 856 284 
Q 544 659 544 1381 
z
M 1991 3584 
L 1991 3584 
z
" transform="scale(0.015625)"/>
     </defs>
     <use xlink:href="#DejaVuSans-4f"/>
     <use xlink:href="#DejaVuSans-43" transform="translate(78.710938 0)"/>
     <use xlink:href="#DejaVuSans-2d" transform="translate(148.535156 0)"/>
     <use xlink:href="#DejaVuSans-53" transform="translate(184.619141 0)"/>
     <use xlink:href="#DejaVuSans-56" transform="translate(248.095703 0)"/>
     <use xlink:href="#DejaVuSans-4d" transform="translate(316.503906 0)"/>
     <use xlink:href="#DejaVuSans-20" transform="translate(402.783203 0)"/>
     <use xlink:href="#DejaVuSans-43" transform="translate(434.570312 0)"/>
     <use xlink:href="#DejaVuSans-6f" transform="translate(504.394531 0)"/>
     <use xlink:href="#DejaVuSans-6e" transform="translate(565.576172 0)"/>
     <use xlink:href="#DejaVuSans-63" transform="translate(628.955078 0)"/>
     <use xlink:href="#DejaVuSans-65" transform="translate(683.935547 0)"/>
     <use xlink:href="#DejaVuSans-70" transform="translate(745.458984 0)"/>
     <use xlink:href="#DejaVuSans-74" transform="translate(808.935547 0)"/>
     <use xlink:href="#DejaVuSans-20" transform="translate(848.144531 0)"/>
     <use xlink:href="#DejaVuSans-69" transform="translate(879.931641 0)"/>
     <use xlink:href="#DejaVuSans-6e" transform="translate(907.714844 0)"/>
     <use xlink:href="#DejaVuSans-20" transform="translate(971.09375 0)"/>
     <use xlink:href="#DejaVuSans-46" transform="translate(1002.880859 0)"/>
     <use xlink:href="#DejaVuSans-65" transform="translate(1054.900391 0)"/>
     <use xlink:href="#DejaVuSans-61" transform="translate(1116.423828 0)"/>
     <use xlink:href="#DejaVuSans-74" transform="translate(1177.703125 0)"/>
     <use xlink:href="#DejaVuSans-75" transform="translate(1216.912109 0)"/>
     <use xlink:href="#DejaVuSans-72" transform="translate(1280.291016 0)"/>
     <use xlink:href="#DejaVuSans-65" transform="translate(1319.154297 0)"/>
     <use xlink:href="#DejaVuSans-20" transform="translate(1380.677734 0)"/>
     <use xlink:href="#DejaVuSans-53" transform="translate(1412.464844 0)"/>
     <use xlink:href="#DejaVuSans-70" transform="translate(1475.941406 0)"/>
     <use xlink:href="#DejaVuSans-61" transform="translate(1539.417969 0)"/>
     <use xlink:href="#DejaVuSans-63" transform="translate(1600.697266 0)"/>
     <use xlink:href="#DejaVuSans-65" transform="translate(1655.677734 0)"/>
    </g>
   </g>
  </g>
 </g>
 <defs>
  <clipPath id="p198ce8c7f5">
   <rect x="7.2" y="23.077969" width="345.96" height="310.464"/>
  </clipPath>
 </defs>
</svg>
