<?xml version="1.0" encoding="utf-8" standalone="no"?>
<!DOCTYPE svg PUBLIC "-//W3C//DTD SVG 1.1//EN"
  "http://www.w3.org/Graphics/SVG/1.1/DTD/svg11.dtd">
<svg xmlns:xlink="http://www.w3.org/1999/xlink" width="684pt" height="331.173656pt" viewBox="0 0 684 331.173656" xmlns="http://www.w3.org/2000/svg" version="1.1">
 <metadata>
  <rdf:RDF xmlns:dc="http://purl.org/dc/elements/1.1/" xmlns:cc="http://creativecommons.org/ns#" xmlns:rdf="http://www.w3.org/1999/02/22-rdf-syntax-ns#">
   <cc:Work>
    <dc:type rdf:resource="http://purl.org/dc/dcmitype/StillImage"/>
    <dc:date>2026-05-12T14:13:36.887619</dc:date>
    <dc:format>image/svg+xml</dc:format>
    <dc:creator>
     <cc:Agent>
      <dc:title>Matplotlib v3.10.9, https://matplotlib.org/</dc:title>
     </cc:Agent>
    </dc:creator>
   </cc:Work>
  </rdf:RDF>
 </metadata>
 <defs>
  <style type="text/css">*{stroke-linejoin: round; stroke-linecap: butt}</style>
 </defs>
 <g id="figure_1">
  <g id="patch_1">
   <path d="M 0 331.173656 
L 684 331.173656 
L 684 0 
L 0 0 
z
" style="fill: #ffffff"/>
  </g>
  <g id="axes_1">
   <g id="patch_2">
    <path d="M 40.68 233.162936 
L 152.28 233.162936 
Q 162.324 233.162936 162.324 224.181656 
L 162.324 124.389656 
Q 162.324 115.408376 152.28 115.408376 
L 40.68 115.408376 
Q 30.636 115.408376 30.636 124.389656 
L 30.636 224.181656 
Q 30.636 233.162936 40.68 233.162936 
z
" clip-path="url(#p36a1b0f825)" style="fill: #f7f7f7; stroke: #333333; stroke-width: 1.6; stroke-linejoin: miter"/>
   </g>
   <g id="patch_3">
    <path d="M 60.21 201.728456 
L 72.486 201.728456 
L 72.486 190.751336 
L 60.21 190.751336 
z
" clip-path="url(#p36a1b0f825)" style="fill: #262626; stroke: #ffffff; stroke-width: 0.5; stroke-linejoin: miter"/>
   </g>
   <g id="patch_4">
    <path d="M 74.718 201.728456 
L 86.994 201.728456 
L 86.994 190.751336 
L 74.718 190.751336 
z
" clip-path="url(#p36a1b0f825)" style="fill: #666666; stroke: #ffffff; stroke-width: 0.5; stroke-linejoin: miter"/>
   </g>
   <g id="patch_5">
    <path d="M 89.226 201.728456 
L 101.502 201.728456 
L 101.502 190.751336 
L 89.226 190.751336 
z
" clip-path="url(#p36a1b0f825)" style="fill: #a6a6a6; stroke: #ffffff; stroke-width: 0.5; stroke-linejoin: miter"/>
   </g>
   <g id="patch_6">
    <path d="M 103.734 201.728456 
L 116.01 201.728456 
L 116.01 190.751336 
L 103.734 190.751336 
z
" clip-path="url(#p36a1b0f825)" style="fill: #e6e6e6; stroke: #ffffff; stroke-width: 0.5; stroke-linejoin: miter"/>
   </g>
   <g id="patch_7">
    <path d="M 60.21 188.755496 
L 72.486 188.755496 
L 72.486 177.778376 
L 60.21 177.778376 
z
" clip-path="url(#p36a1b0f825)" style="fill: #666666; stroke: #ffffff; stroke-width: 0.5; stroke-linejoin: miter"/>
   </g>
   <g id="patch_8">
    <path d="M 74.718 188.755496 
L 86.994 188.755496 
L 86.994 177.778376 
L 74.718 177.778376 
z
" clip-path="url(#p36a1b0f825)" style="fill: #a6a6a6; stroke: #ffffff; stroke-width: 0.5; stroke-linejoin: miter"/>
   </g>
   <g id="patch_9">
    <path d="M 89.226 188.755496 
L 101.502 188.755496 
L 101.502 177.778376 
L 89.226 177.778376 
z
" clip-path="url(#p36a1b0f825)" style="fill: #e6e6e6; stroke: #ffffff; stroke-width: 0.5; stroke-linejoin: miter"/>
   </g>
   <g id="patch_10">
    <path d="M 103.734 188.755496 
L 116.01 188.755496 
L 116.01 177.778376 
L 103.734 177.778376 
z
" clip-path="url(#p36a1b0f825)" style="fill: #262626; stroke: #ffffff; stroke-width: 0.5; stroke-linejoin: miter"/>
   </g>
   <g id="patch_11">
    <path d="M 60.21 175.782536 
L 72.486 175.782536 
L 72.486 164.805416 
L 60.21 164.805416 
z
" clip-path="url(#p36a1b0f825)" style="fill: #a6a6a6; stroke: #ffffff; stroke-width: 0.5; stroke-linejoin: miter"/>
   </g>
   <g id="patch_12">
    <path d="M 74.718 175.782536 
L 86.994 175.782536 
L 86.994 164.805416 
L 74.718 164.805416 
z
" clip-path="url(#p36a1b0f825)" style="fill: #e6e6e6; stroke: #ffffff; stroke-width: 0.5; stroke-linejoin: miter"/>
   </g>
   <g id="patch_13">
    <path d="M 89.226 175.782536 
L 101.502 175.782536 
L 101.502 164.805416 
L 89.226 164.805416 
z
" clip-path="url(#p36a1b0f825)" style="fill: #262626; stroke: #ffffff; stroke-width: 0.5; stroke-linejoin: miter"/>
   </g>
   <g id="patch_14">
    <path d="M 103.734 175.782536 
L 116.01 175.782536 
L 116.01 164.805416 
L 103.734 164.805416 
z
" clip-path="url(#p36a1b0f825)" style="fill: #666666; stroke: #ffffff; stroke-width: 0.5; stroke-linejoin: miter"/>
   </g>
   <g id="patch_15">
    <path d="M 60.21 162.809576 
L 72.486 162.809576 
L 72.486 151.832456 
L 60.21 151.832456 
z
" clip-path="url(#p36a1b0f825)" style="fill: #e6e6e6; stroke: #ffffff; stroke-width: 0.5; stroke-linejoin: miter"/>
   </g>
   <g id="patch_16">
    <path d="M 74.718 162.809576 
L 86.994 162.809576 
L 86.994 151.832456 
L 74.718 151.832456 
z
" clip-path="url(#p36a1b0f825)" style="fill: #262626; stroke: #ffffff; stroke-width: 0.5; stroke-linejoin: miter"/>
   </g>
   <g id="patch_17">
    <path d="M 89.226 162.809576 
L 101.502 162.809576 
L 101.502 151.832456 
L 89.226 151.832456 
z
" clip-path="url(#p36a1b0f825)" style="fill: #666666; stroke: #ffffff; stroke-width: 0.5; stroke-linejoin: miter"/>
   </g>
   <g id="patch_18">
    <path d="M 103.734 162.809576 
L 116.01 162.809576 
L 116.01 151.832456 
L 103.734 151.832456 
z
" clip-path="url(#p36a1b0f825)" style="fill: #a6a6a6; stroke: #ffffff; stroke-width: 0.5; stroke-linejoin: miter"/>
   </g>
   <g id="patch_19">
    <path d="M 230.4 233.162936 
L 353.16 233.162936 
Q 363.204 233.162936 363.204 224.181656 
L 363.204 124.389656 
Q 363.204 115.408376 353.16 115.408376 
L 230.4 115.408376 
Q 220.356 115.408376 220.356 124.389656 
L 220.356 224.181656 
Q 220.356 233.162936 230.4 233.162936 
z
" clip-path="url(#p36a1b0f825)" style="fill: #eef4ff; stroke: #333333; stroke-width: 1.6; stroke-linejoin: miter"/>
   </g>
   <g id="patch_20">
    <path d="M 249.93 196.738856 
L 259.974 196.738856 
L 259.974 149.337656 
L 249.93 149.337656 
z
" clip-path="url(#p36a1b0f825)" style="fill: #4c78a8; opacity: 0.65; stroke: #333333; stroke-width: 0.4; stroke-linejoin: miter"/>
   </g>
   <g id="patch_21">
    <path d="M 271.134 196.738856 
L 281.178 196.738856 
L 281.178 149.337656 
L 271.134 149.337656 
z
" clip-path="url(#p36a1b0f825)" style="fill: #4c78a8; opacity: 0.65; stroke: #333333; stroke-width: 0.4; stroke-linejoin: miter"/>
   </g>
   <g id="patch_22">
    <path d="M 292.338 196.738856 
L 302.382 196.738856 
L 302.382 149.337656 
L 292.338 149.337656 
z
" clip-path="url(#p36a1b0f825)" style="fill: #4c78a8; opacity: 0.65; stroke: #333333; stroke-width: 0.4; stroke-linejoin: miter"/>
   </g>
   <g id="patch_23">
    <path d="M 313.542 196.738856 
L 323.586 196.738856 
L 323.586 149.337656 
L 313.542 149.337656 
z
" clip-path="url(#p36a1b0f825)" style="fill: #4c78a8; opacity: 0.65; stroke: #333333; stroke-width: 0.4; stroke-linejoin: miter"/>
   </g>
   <g id="patch_24">
    <path d="M 431.28 268.090136 
L 621 268.090136 
Q 631.044 268.090136 631.044 259.108856 
L 631.044 89.462456 
Q 631.044 80.481176 621 80.481176 
L 431.28 80.481176 
Q 421.236 80.481176 421.236 89.462456 
L 421.236 259.108856 
Q 421.236 268.090136 431.28 268.090136 
z
" clip-path="url(#p36a1b0f825)" style="fill: #ffffff; stroke: #333333; stroke-width: 1.6; stroke-linejoin: miter"/>
   </g>
   <g id="patch_25">
    <path d="M 526.14 221.686856 
C 540.198416 221.686856 553.682929 216.692367 563.62373 207.803366 
C 573.564532 198.914366 579.15 186.856601 579.15 174.285656 
C 579.15 161.714711 573.564532 149.656947 563.62373 140.767946 
C 553.682929 131.878946 540.198416 126.884456 526.14 126.884456 
C 512.081584 126.884456 498.597071 131.878946 488.65627 140.767946 
C 478.715468 149.656947 473.13 161.714711 473.13 174.285656 
C 473.13 186.856601 478.715468 198.914366 488.65627 207.803366 
C 498.597071 216.692367 512.081584 221.686856 526.14 221.686856 
z
" clip-path="url(#p36a1b0f825)" style="fill: #a7c7e7; opacity: 0.22; stroke: #222222; stroke-width: 2; stroke-linejoin: miter"/>
   </g>
   <g id="PathCollection_1">
    <defs>
     <path id="m5623cea257" d="M 0 2.738613 
C 0.726289 2.738613 1.422928 2.450055 1.936492 1.936492 
C 2.450055 1.422928 2.738613 0.726289 2.738613 0 
C 2.738613 -0.726289 2.450055 -1.422928 1.936492 -1.936492 
C 1.422928 -2.450055 0.726289 -2.738613 0 -2.738613 
C -0.726289 -2.738613 -1.422928 -2.450055 -1.936492 -1.936492 
C -2.450055 -1.422928 -2.738613 -0.726289 -2.738613 0 
C -2.738613 0.726289 -2.450055 1.422928 -1.936492 1.936492 
C -1.422928 2.450055 -0.726289 2.738613 0 2.738613 
z
" style="stroke: #4c78a8; stroke-opacity: 0.8"/>
    </defs>
    <g clip-path="url(#p36a1b0f825)">
     <use xlink:href="#m5623cea257" x="533.791446" y="194.004254" style="fill: #4c78a8; fill-opacity: 0.8; stroke: #4c78a8; stroke-opacity: 0.8"/>
     <use xlink:href="#m5623cea257" x="544.98383" y="156.452098" style="fill: #4c78a8; fill-opacity: 0.8; stroke: #4c78a8; stroke-opacity: 0.8"/>
     <use xlink:href="#m5623cea257" x="477.149506" y="198.975605" style="fill: #4c78a8; fill-opacity: 0.8; stroke: #4c78a8; stroke-opacity: 0.8"/>
     <use xlink:href="#m5623cea257" x="529.350073" y="180.281768" style="fill: #4c78a8; fill-opacity: 0.8; stroke: #4c78a8; stroke-opacity: 0.8"/>
     <use xlink:href="#m5623cea257" x="525.718123" y="190.459779" style="fill: #4c78a8; fill-opacity: 0.8; stroke: #4c78a8; stroke-opacity: 0.8"/>
     <use xlink:href="#m5623cea257" x="548.221683" y="159.538348" style="fill: #4c78a8; fill-opacity: 0.8; stroke: #4c78a8; stroke-opacity: 0.8"/>
     <use xlink:href="#m5623cea257" x="527.798031" y="152.912622" style="fill: #4c78a8; fill-opacity: 0.8; stroke: #4c78a8; stroke-opacity: 0.8"/>
     <use xlink:href="#m5623cea257" x="537.87916" y="190.578254" style="fill: #4c78a8; fill-opacity: 0.8; stroke: #4c78a8; stroke-opacity: 0.8"/>
     <use xlink:href="#m5623cea257" x="535.399332" y="192.466531" style="fill: #4c78a8; fill-opacity: 0.8; stroke: #4c78a8; stroke-opacity: 0.8"/>
     <use xlink:href="#m5623cea257" x="548.197887" y="175.232275" style="fill: #4c78a8; fill-opacity: 0.8; stroke: #4c78a8; stroke-opacity: 0.8"/>
     <use xlink:href="#m5623cea257" x="521.498106" y="187.196407" style="fill: #4c78a8; fill-opacity: 0.8; stroke: #4c78a8; stroke-opacity: 0.8"/>
     <use xlink:href="#m5623cea257" x="556.838013" y="177.215609" style="fill: #4c78a8; fill-opacity: 0.8; stroke: #4c78a8; stroke-opacity: 0.8"/>
     <use xlink:href="#m5623cea257" x="515.384688" y="180.962277" style="fill: #4c78a8; fill-opacity: 0.8; stroke: #4c78a8; stroke-opacity: 0.8"/>
     <use xlink:href="#m5623cea257" x="539.506284" y="167.356661" style="fill: #4c78a8; fill-opacity: 0.8; stroke: #4c78a8; stroke-opacity: 0.8"/>
     <use xlink:href="#m5623cea257" x="536.503716" y="166.117083" style="fill: #4c78a8; fill-opacity: 0.8; stroke: #4c78a8; stroke-opacity: 0.8"/>
     <use xlink:href="#m5623cea257" x="579.916771" y="181.99148" style="fill: #4c78a8; fill-opacity: 0.8; stroke: #4c78a8; stroke-opacity: 0.8"/>
     <use xlink:href="#m5623cea257" x="513.277585" y="189.715178" style="fill: #4c78a8; fill-opacity: 0.8; stroke: #4c78a8; stroke-opacity: 0.8"/>
     <use xlink:href="#m5623cea257" x="541.607243" y="152.8798" style="fill: #4c78a8; fill-opacity: 0.8; stroke: #4c78a8; stroke-opacity: 0.8"/>
     <use xlink:href="#m5623cea257" x="523.278779" y="190.215426" style="fill: #4c78a8; fill-opacity: 0.8; stroke: #4c78a8; stroke-opacity: 0.8"/>
     <use xlink:href="#m5623cea257" x="505.437277" y="161.950105" style="fill: #4c78a8; fill-opacity: 0.8; stroke: #4c78a8; stroke-opacity: 0.8"/>
     <use xlink:href="#m5623cea257" x="544.803112" y="163.987191" style="fill: #4c78a8; fill-opacity: 0.8; stroke: #4c78a8; stroke-opacity: 0.8"/>
     <use xlink:href="#m5623cea257" x="509.429051" y="169.883766" style="fill: #4c78a8; fill-opacity: 0.8; stroke: #4c78a8; stroke-opacity: 0.8"/>
     <use xlink:href="#m5623cea257" x="529.069981" y="170.139215" style="fill: #4c78a8; fill-opacity: 0.8; stroke: #4c78a8; stroke-opacity: 0.8"/>
     <use xlink:href="#m5623cea257" x="548.021577" y="170.046177" style="fill: #4c78a8; fill-opacity: 0.8; stroke: #4c78a8; stroke-opacity: 0.8"/>
     <use xlink:href="#m5623cea257" x="543.18752" y="173.004325" style="fill: #4c78a8; fill-opacity: 0.8; stroke: #4c78a8; stroke-opacity: 0.8"/>
     <use xlink:href="#m5623cea257" x="533.399788" y="162.316128" style="fill: #4c78a8; fill-opacity: 0.8; stroke: #4c78a8; stroke-opacity: 0.8"/>
     <use xlink:href="#m5623cea257" x="489.550817" y="180.346776" style="fill: #4c78a8; fill-opacity: 0.8; stroke: #4c78a8; stroke-opacity: 0.8"/>
     <use xlink:href="#m5623cea257" x="514.328943" y="186.399087" style="fill: #4c78a8; fill-opacity: 0.8; stroke: #4c78a8; stroke-opacity: 0.8"/>
     <use xlink:href="#m5623cea257" x="519.231178" y="145.940851" style="fill: #4c78a8; fill-opacity: 0.8; stroke: #4c78a8; stroke-opacity: 0.8"/>
     <use xlink:href="#m5623cea257" x="504.398981" y="155.926634" style="fill: #4c78a8; fill-opacity: 0.8; stroke: #4c78a8; stroke-opacity: 0.8"/>
     <use xlink:href="#m5623cea257" x="483.88314" y="180.635237" style="fill: #4c78a8; fill-opacity: 0.8; stroke: #4c78a8; stroke-opacity: 0.8"/>
     <use xlink:href="#m5623cea257" x="530.226729" y="163.170599" style="fill: #4c78a8; fill-opacity: 0.8; stroke: #4c78a8; stroke-opacity: 0.8"/>
     <use xlink:href="#m5623cea257" x="543.998899" y="159.243412" style="fill: #4c78a8; fill-opacity: 0.8; stroke: #4c78a8; stroke-opacity: 0.8"/>
     <use xlink:href="#m5623cea257" x="517.383513" y="183.052068" style="fill: #4c78a8; fill-opacity: 0.8; stroke: #4c78a8; stroke-opacity: 0.8"/>
     <use xlink:href="#m5623cea257" x="547.683774" y="177.912878" style="fill: #4c78a8; fill-opacity: 0.8; stroke: #4c78a8; stroke-opacity: 0.8"/>
     <use xlink:href="#m5623cea257" x="494.107516" y="195.773326" style="fill: #4c78a8; fill-opacity: 0.8; stroke: #4c78a8; stroke-opacity: 0.8"/>
     <use xlink:href="#m5623cea257" x="503.052553" y="164.85925" style="fill: #4c78a8; fill-opacity: 0.8; stroke: #4c78a8; stroke-opacity: 0.8"/>
     <use xlink:href="#m5623cea257" x="529.71631" y="161.193723" style="fill: #4c78a8; fill-opacity: 0.8; stroke: #4c78a8; stroke-opacity: 0.8"/>
     <use xlink:href="#m5623cea257" x="515.411686" y="171.279668" style="fill: #4c78a8; fill-opacity: 0.8; stroke: #4c78a8; stroke-opacity: 0.8"/>
     <use xlink:href="#m5623cea257" x="541.848575" y="180.151015" style="fill: #4c78a8; fill-opacity: 0.8; stroke: #4c78a8; stroke-opacity: 0.8"/>
     <use xlink:href="#m5623cea257" x="537.609626" y="186.83609" style="fill: #4c78a8; fill-opacity: 0.8; stroke: #4c78a8; stroke-opacity: 0.8"/>
     <use xlink:href="#m5623cea257" x="517.023718" y="181.52359" style="fill: #4c78a8; fill-opacity: 0.8; stroke: #4c78a8; stroke-opacity: 0.8"/>
     <use xlink:href="#m5623cea257" x="496.112466" y="165.052424" style="fill: #4c78a8; fill-opacity: 0.8; stroke: #4c78a8; stroke-opacity: 0.8"/>
     <use xlink:href="#m5623cea257" x="514.353307" y="174.048762" style="fill: #4c78a8; fill-opacity: 0.8; stroke: #4c78a8; stroke-opacity: 0.8"/>
     <use xlink:href="#m5623cea257" x="538.211549" y="165.819211" style="fill: #4c78a8; fill-opacity: 0.8; stroke: #4c78a8; stroke-opacity: 0.8"/>
     <use xlink:href="#m5623cea257" x="542.84782" y="176.152988" style="fill: #4c78a8; fill-opacity: 0.8; stroke: #4c78a8; stroke-opacity: 0.8"/>
     <use xlink:href="#m5623cea257" x="515.510979" y="175.797152" style="fill: #4c78a8; fill-opacity: 0.8; stroke: #4c78a8; stroke-opacity: 0.8"/>
     <use xlink:href="#m5623cea257" x="483.771032" y="201.723603" style="fill: #4c78a8; fill-opacity: 0.8; stroke: #4c78a8; stroke-opacity: 0.8"/>
     <use xlink:href="#m5623cea257" x="492.927013" y="193.193935" style="fill: #4c78a8; fill-opacity: 0.8; stroke: #4c78a8; stroke-opacity: 0.8"/>
     <use xlink:href="#m5623cea257" x="536.178331" y="191.453974" style="fill: #4c78a8; fill-opacity: 0.8; stroke: #4c78a8; stroke-opacity: 0.8"/>
     <use xlink:href="#m5623cea257" x="516.644338" y="149.651664" style="fill: #4c78a8; fill-opacity: 0.8; stroke: #4c78a8; stroke-opacity: 0.8"/>
     <use xlink:href="#m5623cea257" x="517.194212" y="160.302007" style="fill: #4c78a8; fill-opacity: 0.8; stroke: #4c78a8; stroke-opacity: 0.8"/>
     <use xlink:href="#m5623cea257" x="502.69686" y="178.180851" style="fill: #4c78a8; fill-opacity: 0.8; stroke: #4c78a8; stroke-opacity: 0.8"/>
     <use xlink:href="#m5623cea257" x="502.284946" y="180.713886" style="fill: #4c78a8; fill-opacity: 0.8; stroke: #4c78a8; stroke-opacity: 0.8"/>
     <use xlink:href="#m5623cea257" x="547.240137" y="207.036481" style="fill: #4c78a8; fill-opacity: 0.8; stroke: #4c78a8; stroke-opacity: 0.8"/>
     <use xlink:href="#m5623cea257" x="537.048378" y="169.778075" style="fill: #4c78a8; fill-opacity: 0.8; stroke: #4c78a8; stroke-opacity: 0.8"/>
     <use xlink:href="#m5623cea257" x="511.220895" y="201.703607" style="fill: #4c78a8; fill-opacity: 0.8; stroke: #4c78a8; stroke-opacity: 0.8"/>
     <use xlink:href="#m5623cea257" x="527.951172" y="184.325092" style="fill: #4c78a8; fill-opacity: 0.8; stroke: #4c78a8; stroke-opacity: 0.8"/>
     <use xlink:href="#m5623cea257" x="531.9825" y="173.871329" style="fill: #4c78a8; fill-opacity: 0.8; stroke: #4c78a8; stroke-opacity: 0.8"/>
     <use xlink:href="#m5623cea257" x="566.360668" y="178.823954" style="fill: #4c78a8; fill-opacity: 0.8; stroke: #4c78a8; stroke-opacity: 0.8"/>
    </g>
   </g>
   <g id="PathCollection_2">
    <defs>
     <path id="mff29e00820" d="M -3.354102 3.354102 
L 3.354102 -3.354102 
M -3.354102 -3.354102 
L 3.354102 3.354102 
" style="stroke: #e45756; stroke-opacity: 0.95; stroke-width: 1.5"/>
    </defs>
    <g clip-path="url(#p36a1b0f825)">
     <use xlink:href="#mff29e00820" x="571.659991" y="122.779532" style="fill: #e45756; fill-opacity: 0.95; stroke: #e45756; stroke-opacity: 0.95; stroke-width: 1.5"/>
     <use xlink:href="#mff29e00820" x="584.149647" y="112.182412" style="fill: #e45756; fill-opacity: 0.95; stroke: #e45756; stroke-opacity: 0.95; stroke-width: 1.5"/>
     <use xlink:href="#mff29e00820" x="590.327857" y="121.184497" style="fill: #e45756; fill-opacity: 0.95; stroke: #e45756; stroke-opacity: 0.95; stroke-width: 1.5"/>
     <use xlink:href="#mff29e00820" x="596.637414" y="135.06627" style="fill: #e45756; fill-opacity: 0.95; stroke: #e45756; stroke-opacity: 0.95; stroke-width: 1.5"/>
     <use xlink:href="#mff29e00820" x="575.514336" y="132.711494" style="fill: #e45756; fill-opacity: 0.95; stroke: #e45756; stroke-opacity: 0.95; stroke-width: 1.5"/>
     <use xlink:href="#mff29e00820" x="578.02475" y="136.75406" style="fill: #e45756; fill-opacity: 0.95; stroke: #e45756; stroke-opacity: 0.95; stroke-width: 1.5"/>
     <use xlink:href="#mff29e00820" x="588.319456" y="126.385501" style="fill: #e45756; fill-opacity: 0.95; stroke: #e45756; stroke-opacity: 0.95; stroke-width: 1.5"/>
     <use xlink:href="#mff29e00820" x="567.167222" y="133.510856" style="fill: #e45756; fill-opacity: 0.95; stroke: #e45756; stroke-opacity: 0.95; stroke-width: 1.5"/>
    </g>
   </g>
   <g id="PathCollection_3">
    <defs>
     <path id="mcb17a0d92b" d="M 0 4.743416 
C 1.257969 4.743416 2.464584 4.24362 3.354102 3.354102 
C 4.24362 2.464584 4.743416 1.257969 4.743416 0 
C 4.743416 -1.257969 4.24362 -2.464584 3.354102 -3.354102 
C 2.464584 -4.24362 1.257969 -4.743416 0 -4.743416 
C -1.257969 -4.743416 -2.464584 -4.24362 -3.354102 -3.354102 
C -4.24362 -2.464584 -4.743416 -1.257969 -4.743416 0 
C -4.743416 1.257969 -4.24362 2.464584 -3.354102 3.354102 
C -2.464584 4.24362 -1.257969 4.743416 0 4.743416 
z
" style="stroke: #333333"/>
    </defs>
    <g clip-path="url(#p36a1b0f825)">
     <use xlink:href="#mcb17a0d92b" x="526.14" y="174.285656" style="fill: #f2c14e; stroke: #333333"/>
    </g>
   </g>
   <g id="patch_26">
    <path d="M 162.651396 174.285656 
Q 192.735855 174.285656 221.03146 174.285656 
" clip-path="url(#p36a1b0f825)" style="fill: none; stroke: #444444; stroke-width: 1.6; stroke-linecap: round"/>
    <path d="M 215.03146 171.285656 
L 221.03146 174.285656 
L 215.03146 177.285656 
" clip-path="url(#p36a1b0f825)" style="fill: none; stroke: #444444; stroke-width: 1.6; stroke-linecap: round"/>
   </g>
   <g id="patch_27">
    <path d="M 360.741396 174.285656 
Q 390.825855 174.285656 419.12146 174.285656 
" clip-path="url(#p36a1b0f825)" style="fill: none; stroke: #444444; stroke-width: 1.6; stroke-linecap: round"/>
    <path d="M 413.12146 171.285656 
L 419.12146 174.285656 
L 413.12146 177.285656 
" clip-path="url(#p36a1b0f825)" style="fill: none; stroke: #444444; stroke-width: 1.6; stroke-linecap: round"/>
   </g>
   <g id="text_1">
    <!-- Input -->
    <g transform="translate(80.94375 170.878219) scale(0.12 -0.12)">
     <defs>
      <path id="DejaVuSans-49" d="M 628 4666 
L 1259 4666 
L 1259 0 
L 628 0 
L 628 4666 
z
" transform="scale(0.015625)"/>
      <path id="DejaVuSans-6e" d="M 3513 2113 
L 3513 0 
L 2938 0 
L 2938 2094 
Q 2938 2591 2744 2837 
Q 2550 3084 2163 3084 
Q 1697 3084 1428 2787 
Q 1159 2491 1159 1978 
L 1159 0 
L 581 0 
L 581 3500 
L 1159 3500 
L 1159 2956 
Q 1366 3272 1645 3428 
Q 1925 3584 2291 3584 
Q 2894 3584 3203 3211 
Q 3513 2838 3513 2113 
z
" transform="scale(0.015625)"/>
      <path id="DejaVuSans-70" d="M 1159 525 
L 1159 -1331 
L 581 -1331 
L 581 3500 
L 1159 3500 
L 1159 2969 
Q 1341 3281 1617 3432 
Q 1894 3584 2278 3584 
Q 2916 3584 3314 3078 
Q 3713 2572 3713 1747 
Q 3713 922 3314 415 
Q 2916 -91 2278 -91 
Q 1894 -91 1617 61 
Q 1341 213 1159 525 
z
M 3116 1747 
Q 3116 2381 2855 2742 
Q 2594 3103 2138 3103 
Q 1681 3103 1420 2742 
Q 1159 2381 1159 1747 
Q 1159 1113 1420 752 
Q 1681 391 2138 391 
Q 2594 391 2855 752 
Q 3116 1113 3116 1747 
z
" transform="scale(0.015625)"/>
      <path id="DejaVuSans-75" d="M 544 1381 
L 544 3500 
L 1119 3500 
L 1119 1403 
Q 1119 906 1312 657 
Q 1506 409 1894 409 
Q 2359 409 2629 706 
Q 2900 1003 2900 1516 
L 2900 3500 
L 3475 3500 
L 3475 0 
L 2900 0 
L 2900 538 
Q 2691 219 2414 64 
Q 2138 -91 1772 -91 
Q 1169 -91 856 284 
Q 544 659 544 1381 
z
M 1991 3584 
L 1991 3584 
z
" transform="scale(0.015625)"/>
      <path id="DejaVuSans-74" d="M 1172 4494 
L 1172 3500 
L 2356 3500 
L 2356 3053 
L 1172 3053 
L 1172 1153 
Q 1172 725 1289 603 
Q 1406 481 1766 481 
L 2356 481 
L 2356 0 
L 1766 0 
Q 1100 0 847 248 
Q 594 497 594 1153 
L 594 3053 
L 172 3053 
L 172 3500 
L 594 3500 
L 594 4494 
L 1172 4494 
z
" transform="scale(0.015625)"/>
     </defs>
     <use xlink:href="#DejaVuSans-49"/>
     <use xlink:href="#DejaVuSans-6e" transform="translate(29.492188 0)"/>
     <use xlink:href="#DejaVuSans-70" transform="translate(92.871094 0)"/>
     <use xlink:href="#DejaVuSans-75" transform="translate(156.347656 0)"/>
     <use xlink:href="#DejaVuSans-74" transform="translate(219.726562 0)"/>
    </g>
    <!-- $x$ -->
    <g transform="translate(93.78 184.315594) scale(0.12 -0.12)">
     <defs>
      <path id="STIXGeneral-Italic-78" d="M 1555 2272 
L 1632 1907 
Q 1971 2426 2179 2624 
Q 2387 2822 2598 2822 
Q 2714 2822 2787 2755 
Q 2861 2688 2861 2585 
Q 2861 2483 2800 2419 
Q 2739 2355 2643 2355 
Q 2586 2355 2490 2409 
Q 2394 2464 2310 2464 
Q 2125 2464 1683 1690 
Q 1683 1606 1734 1402 
L 1939 544 
Q 2003 282 2131 282 
Q 2234 282 2432 538 
Q 2451 563 2476 598 
Q 2502 634 2521 662 
Q 2541 691 2566 717 
L 2662 659 
Q 2387 230 2227 80 
Q 2067 -70 1882 -70 
Q 1728 -70 1645 26 
Q 1562 122 1504 365 
L 1318 1126 
L 755 365 
Q 557 96 432 13 
Q 307 -70 147 -70 
Q 0 -70 -86 0 
Q -173 70 -173 198 
Q -173 294 -112 361 
Q -51 429 45 429 
Q 122 429 250 358 
Q 346 301 416 301 
Q 525 301 742 614 
L 1267 1357 
L 1088 2150 
Q 1024 2432 969 2509 
Q 915 2586 794 2586 
Q 717 2586 544 2541 
L 429 2509 
L 410 2611 
L 480 2637 
Q 992 2822 1229 2822 
Q 1350 2822 1420 2707 
Q 1491 2592 1555 2272 
z
" transform="scale(0.015625)"/>
     </defs>
     <use xlink:href="#STIXGeneral-Italic-78" transform="translate(0 0.90625)"/>
    </g>
   </g>
   <g id="text_2">
    <!-- Neural Network -->
    <g transform="translate(245.027812 164.147344) scale(0.12 -0.12)">
     <defs>
      <path id="DejaVuSans-4e" d="M 628 4666 
L 1478 4666 
L 3547 763 
L 3547 4666 
L 4159 4666 
L 4159 0 
L 3309 0 
L 1241 3903 
L 1241 0 
L 628 0 
L 628 4666 
z
" transform="scale(0.015625)"/>
      <path id="DejaVuSans-65" d="M 3597 1894 
L 3597 1613 
L 953 1613 
Q 991 1019 1311 708 
Q 1631 397 2203 397 
Q 2534 397 2845 478 
Q 3156 559 3463 722 
L 3463 178 
Q 3153 47 2828 -22 
Q 2503 -91 2169 -91 
Q 1331 -91 842 396 
Q 353 884 353 1716 
Q 353 2575 817 3079 
Q 1281 3584 2069 3584 
Q 2775 3584 3186 3129 
Q 3597 2675 3597 1894 
z
M 3022 2063 
Q 3016 2534 2758 2815 
Q 2500 3097 2075 3097 
Q 1594 3097 1305 2825 
Q 1016 2553 972 2059 
L 3022 2063 
z
" transform="scale(0.015625)"/>
      <path id="DejaVuSans-72" d="M 2631 2963 
Q 2534 3019 2420 3045 
Q 2306 3072 2169 3072 
Q 1681 3072 1420 2755 
Q 1159 2438 1159 1844 
L 1159 0 
L 581 0 
L 581 3500 
L 1159 3500 
L 1159 2956 
Q 1341 3275 1631 3429 
Q 1922 3584 2338 3584 
Q 2397 3584 2469 3576 
Q 2541 3569 2628 3553 
L 2631 2963 
z
" transform="scale(0.015625)"/>
      <path id="DejaVuSans-61" d="M 2194 1759 
Q 1497 1759 1228 1600 
Q 959 1441 959 1056 
Q 959 750 1161 570 
Q 1363 391 1709 391 
Q 2188 391 2477 730 
Q 2766 1069 2766 1631 
L 2766 1759 
L 2194 1759 
z
M 3341 1997 
L 3341 0 
L 2766 0 
L 2766 531 
Q 2569 213 2275 61 
Q 1981 -91 1556 -91 
Q 1019 -91 701 211 
Q 384 513 384 1019 
Q 384 1609 779 1909 
Q 1175 2209 1959 2209 
L 2766 2209 
L 2766 2266 
Q 2766 2663 2505 2880 
Q 2244 3097 1772 3097 
Q 1472 3097 1187 3025 
Q 903 2953 641 2809 
L 641 3341 
Q 956 3463 1253 3523 
Q 1550 3584 1831 3584 
Q 2591 3584 2966 3190 
Q 3341 2797 3341 1997 
z
" transform="scale(0.015625)"/>
      <path id="DejaVuSans-6c" d="M 603 4863 
L 1178 4863 
L 1178 0 
L 603 0 
L 603 4863 
z
" transform="scale(0.015625)"/>
      <path id="DejaVuSans-20" transform="scale(0.015625)"/>
      <path id="DejaVuSans-77" d="M 269 3500 
L 844 3500 
L 1563 769 
L 2278 3500 
L 2956 3500 
L 3675 769 
L 4391 3500 
L 4966 3500 
L 4050 0 
L 3372 0 
L 2619 2869 
L 1863 0 
L 1184 0 
L 269 3500 
z
" transform="scale(0.015625)"/>
      <path id="DejaVuSans-6f" d="M 1959 3097 
Q 1497 3097 1228 2736 
Q 959 2375 959 1747 
Q 959 1119 1226 758 
Q 1494 397 1959 397 
Q 2419 397 2687 759 
Q 2956 1122 2956 1747 
Q 2956 2369 2687 2733 
Q 2419 3097 1959 3097 
z
M 1959 3584 
Q 2709 3584 3137 3096 
Q 3566 2609 3566 1747 
Q 3566 888 3137 398 
Q 2709 -91 1959 -91 
Q 1206 -91 779 398 
Q 353 888 353 1747 
Q 353 2609 779 3096 
Q 1206 3584 1959 3584 
z
" transform="scale(0.015625)"/>
      <path id="DejaVuSans-6b" d="M 581 4863 
L 1159 4863 
L 1159 1991 
L 2875 3500 
L 3609 3500 
L 1753 1863 
L 3688 0 
L 2938 0 
L 1159 1709 
L 1159 0 
L 581 0 
L 581 4863 
z
" transform="scale(0.015625)"/>
     </defs>
     <use xlink:href="#DejaVuSans-4e"/>
     <use xlink:href="#DejaVuSans-65" transform="translate(74.804688 0)"/>
     <use xlink:href="#DejaVuSans-75" transform="translate(136.328125 0)"/>
     <use xlink:href="#DejaVuSans-72" transform="translate(199.707031 0)"/>
     <use xlink:href="#DejaVuSans-61" transform="translate(240.820312 0)"/>
     <use xlink:href="#DejaVuSans-6c" transform="translate(302.099609 0)"/>
     <use xlink:href="#DejaVuSans-20" transform="translate(329.882812 0)"/>
     <use xlink:href="#DejaVuSans-4e" transform="translate(361.669922 0)"/>
     <use xlink:href="#DejaVuSans-65" transform="translate(436.474609 0)"/>
     <use xlink:href="#DejaVuSans-74" transform="translate(497.998047 0)"/>
     <use xlink:href="#DejaVuSans-77" transform="translate(537.207031 0)"/>
     <use xlink:href="#DejaVuSans-6f" transform="translate(618.994141 0)"/>
     <use xlink:href="#DejaVuSans-72" transform="translate(680.175781 0)"/>
     <use xlink:href="#DejaVuSans-6b" transform="translate(721.289062 0)"/>
    </g>
    <!-- Encoder -->
    <g transform="translate(267.248437 177.584719) scale(0.12 -0.12)">
     <defs>
      <path id="DejaVuSans-45" d="M 628 4666 
L 3578 4666 
L 3578 4134 
L 1259 4134 
L 1259 2753 
L 3481 2753 
L 3481 2222 
L 1259 2222 
L 1259 531 
L 3634 531 
L 3634 0 
L 628 0 
L 628 4666 
z
" transform="scale(0.015625)"/>
      <path id="DejaVuSans-63" d="M 3122 3366 
L 3122 2828 
Q 2878 2963 2633 3030 
Q 2388 3097 2138 3097 
Q 1578 3097 1268 2742 
Q 959 2388 959 1747 
Q 959 1106 1268 751 
Q 1578 397 2138 397 
Q 2388 397 2633 464 
Q 2878 531 3122 666 
L 3122 134 
Q 2881 22 2623 -34 
Q 2366 -91 2075 -91 
Q 1284 -91 818 406 
Q 353 903 353 1747 
Q 353 2603 823 3093 
Q 1294 3584 2113 3584 
Q 2378 3584 2631 3529 
Q 2884 3475 3122 3366 
z
" transform="scale(0.015625)"/>
      <path id="DejaVuSans-64" d="M 2906 2969 
L 2906 4863 
L 3481 4863 
L 3481 0 
L 2906 0 
L 2906 525 
Q 2725 213 2448 61 
Q 2172 -91 1784 -91 
Q 1150 -91 751 415 
Q 353 922 353 1747 
Q 353 2572 751 3078 
Q 1150 3584 1784 3584 
Q 2172 3584 2448 3432 
Q 2725 3281 2906 2969 
z
M 947 1747 
Q 947 1113 1208 752 
Q 1469 391 1925 391 
Q 2381 391 2643 752 
Q 2906 1113 2906 1747 
Q 2906 2381 2643 2742 
Q 2381 3103 1925 3103 
Q 1469 3103 1208 2742 
Q 947 2381 947 1747 
z
" transform="scale(0.015625)"/>
     </defs>
     <use xlink:href="#DejaVuSans-45"/>
     <use xlink:href="#DejaVuSans-6e" transform="translate(63.183594 0)"/>
     <use xlink:href="#DejaVuSans-63" transform="translate(126.5625 0)"/>
     <use xlink:href="#DejaVuSans-6f" transform="translate(181.542969 0)"/>
     <use xlink:href="#DejaVuSans-64" transform="translate(242.724609 0)"/>
     <use xlink:href="#DejaVuSans-65" transform="translate(306.201172 0)"/>
     <use xlink:href="#DejaVuSans-72" transform="translate(367.724609 0)"/>
    </g>
    <!-- $\phi(x; W)$ -->
    <g transform="translate(273.78 191.022094) scale(0.12 -0.12)">
     <defs>
      <path id="STIXGeneral-Italic-3d5" d="M 3078 4371 
L 2650 2822 
Q 3098 2822 3296 2746 
Q 3808 2547 3808 1939 
Q 3808 1709 3728 1446 
Q 3648 1184 3481 915 
Q 3315 646 3088 425 
Q 2861 205 2537 67 
Q 2214 -70 1850 -70 
L 1504 -1312 
L 1005 -1312 
L 1350 -70 
Q 883 -70 666 0 
Q 173 160 173 819 
Q 173 1018 256 1274 
Q 339 1530 502 1802 
Q 666 2074 886 2301 
Q 1107 2528 1417 2675 
Q 1728 2822 2061 2822 
L 2157 2822 
L 2586 4371 
L 3078 4371 
z
M 2611 2688 
L 1888 64 
Q 2125 64 2330 166 
Q 2694 352 2982 998 
Q 3270 1645 3270 2093 
Q 3270 2464 2982 2643 
Q 2906 2688 2611 2688 
z
M 1389 64 
L 2118 2688 
Q 1760 2688 1427 2365 
Q 1094 2042 902 1568 
Q 710 1094 710 646 
Q 710 237 1018 115 
Q 1152 64 1389 64 
z
" transform="scale(0.015625)"/>
      <path id="STIXGeneral-Regular-28" d="M 1946 -1030 
L 1869 -1133 
Q 1126 -710 716 32 
Q 307 774 307 1613 
Q 307 3386 1888 4326 
L 1946 4224 
Q 1293 3667 1075 3126 
Q 858 2586 858 1632 
Q 858 685 1082 96 
Q 1306 -493 1946 -1030 
z
" transform="scale(0.015625)"/>
      <path id="STIXGeneral-Regular-3b" d="M 1116 2832 
Q 1222 2726 1222 2579 
Q 1222 2432 1116 2329 
Q 1011 2227 870 2227 
Q 723 2227 617 2332 
Q 512 2438 512 2579 
Q 512 2733 614 2835 
Q 717 2938 870 2938 
Q 1011 2938 1116 2832 
z
M 685 -902 
L 621 -781 
Q 1152 -435 1152 -102 
Q 1152 -70 1126 -41 
Q 1101 -13 1062 -13 
Q 1043 -13 979 -25 
Q 915 -38 883 -38 
Q 512 -38 512 294 
Q 512 448 621 550 
Q 730 653 890 653 
Q 1107 653 1254 496 
Q 1402 339 1402 83 
Q 1402 -218 1210 -480 
Q 1018 -742 685 -902 
z
" transform="scale(0.015625)"/>
      <path id="STIXGeneral-Italic-57" d="M 5798 4179 
L 5798 4077 
Q 5613 4019 5526 3936 
Q 5440 3853 5306 3597 
L 3379 -115 
L 3251 -115 
L 2931 2784 
L 2899 2784 
L 1478 -115 
L 1357 -115 
L 966 3174 
Q 915 3622 883 3766 
Q 851 3910 781 3981 
Q 717 4045 454 4077 
L 454 4179 
L 1958 4179 
L 1958 4077 
Q 1696 4051 1597 3987 
Q 1498 3923 1498 3750 
Q 1498 3667 1504 3622 
L 1786 1037 
L 2886 3264 
L 2835 3680 
Q 2810 3923 2723 3993 
Q 2637 4064 2355 4077 
L 2355 4179 
L 3866 4179 
L 3866 4077 
Q 3616 4051 3523 3987 
Q 3430 3923 3430 3770 
Q 3430 3750 3436 3715 
Q 3443 3680 3443 3674 
L 3699 1037 
L 4902 3373 
Q 5050 3654 5050 3808 
Q 5050 4070 4621 4077 
L 4621 4179 
L 5798 4179 
z
" transform="scale(0.015625)"/>
      <path id="STIXGeneral-Regular-29" d="M 186 4224 
L 262 4326 
Q 992 3891 1408 3148 
Q 1824 2406 1824 1581 
Q 1824 -166 243 -1133 
L 186 -1030 
Q 845 -486 1059 54 
Q 1274 595 1274 1562 
Q 1274 2534 1059 3120 
Q 845 3706 186 4224 
z
" transform="scale(0.015625)"/>
     </defs>
     <use xlink:href="#STIXGeneral-Italic-3d5" transform="translate(0 0.703125)"/>
     <use xlink:href="#STIXGeneral-Regular-28" transform="translate(62.699997 0.703125)"/>
     <use xlink:href="#STIXGeneral-Italic-78" transform="translate(95.999985 0.703125)"/>
     <use xlink:href="#STIXGeneral-Regular-3b" transform="translate(140.399979 0.703125)"/>
     <use xlink:href="#STIXGeneral-Italic-57" transform="translate(182.639963 0.703125)"/>
     <use xlink:href="#STIXGeneral-Regular-29" transform="translate(265.939951 0.703125)"/>
    </g>
   </g>
   <g id="text_3">
    <!-- Latent Space -->
    <g transform="translate(486.728437 177.596906) scale(0.12 -0.12)">
     <defs>
      <path id="DejaVuSans-4c" d="M 628 4666 
L 1259 4666 
L 1259 531 
L 3531 531 
L 3531 0 
L 628 0 
L 628 4666 
z
" transform="scale(0.015625)"/>
      <path id="DejaVuSans-53" d="M 3425 4513 
L 3425 3897 
Q 3066 4069 2747 4153 
Q 2428 4238 2131 4238 
Q 1616 4238 1336 4038 
Q 1056 3838 1056 3469 
Q 1056 3159 1242 3001 
Q 1428 2844 1947 2747 
L 2328 2669 
Q 3034 2534 3370 2195 
Q 3706 1856 3706 1288 
Q 3706 609 3251 259 
Q 2797 -91 1919 -91 
Q 1588 -91 1214 -16 
Q 841 59 441 206 
L 441 856 
Q 825 641 1194 531 
Q 1563 422 1919 422 
Q 2459 422 2753 634 
Q 3047 847 3047 1241 
Q 3047 1584 2836 1778 
Q 2625 1972 2144 2069 
L 1759 2144 
Q 1053 2284 737 2584 
Q 422 2884 422 3419 
Q 422 4038 858 4394 
Q 1294 4750 2059 4750 
Q 2388 4750 2728 4690 
Q 3069 4631 3425 4513 
z
" transform="scale(0.015625)"/>
     </defs>
     <use xlink:href="#DejaVuSans-4c"/>
     <use xlink:href="#DejaVuSans-61" transform="translate(55.712891 0)"/>
     <use xlink:href="#DejaVuSans-74" transform="translate(116.992188 0)"/>
     <use xlink:href="#DejaVuSans-65" transform="translate(156.201172 0)"/>
     <use xlink:href="#DejaVuSans-6e" transform="translate(217.724609 0)"/>
     <use xlink:href="#DejaVuSans-74" transform="translate(281.103516 0)"/>
     <use xlink:href="#DejaVuSans-20" transform="translate(320.3125 0)"/>
     <use xlink:href="#DejaVuSans-53" transform="translate(352.099609 0)"/>
     <use xlink:href="#DejaVuSans-70" transform="translate(415.576172 0)"/>
     <use xlink:href="#DejaVuSans-61" transform="translate(479.052734 0)"/>
     <use xlink:href="#DejaVuSans-63" transform="translate(540.332031 0)"/>
     <use xlink:href="#DejaVuSans-65" transform="translate(595.3125 0)"/>
    </g>
   </g>
   <g id="text_4">
    <!-- hypersphere -->
    <g transform="translate(534.51 214.202456) scale(0.1 -0.1)">
     <defs>
      <path id="DejaVuSans-68" d="M 3513 2113 
L 3513 0 
L 2938 0 
L 2938 2094 
Q 2938 2591 2744 2837 
Q 2550 3084 2163 3084 
Q 1697 3084 1428 2787 
Q 1159 2491 1159 1978 
L 1159 0 
L 581 0 
L 581 4863 
L 1159 4863 
L 1159 2956 
Q 1366 3272 1645 3428 
Q 1925 3584 2291 3584 
Q 2894 3584 3203 3211 
Q 3513 2838 3513 2113 
z
" transform="scale(0.015625)"/>
      <path id="DejaVuSans-79" d="M 2059 -325 
Q 1816 -950 1584 -1140 
Q 1353 -1331 966 -1331 
L 506 -1331 
L 506 -850 
L 844 -850 
Q 1081 -850 1212 -737 
Q 1344 -625 1503 -206 
L 1606 56 
L 191 3500 
L 800 3500 
L 1894 763 
L 2988 3500 
L 3597 3500 
L 2059 -325 
z
" transform="scale(0.015625)"/>
      <path id="DejaVuSans-73" d="M 2834 3397 
L 2834 2853 
Q 2591 2978 2328 3040 
Q 2066 3103 1784 3103 
Q 1356 3103 1142 2972 
Q 928 2841 928 2578 
Q 928 2378 1081 2264 
Q 1234 2150 1697 2047 
L 1894 2003 
Q 2506 1872 2764 1633 
Q 3022 1394 3022 966 
Q 3022 478 2636 193 
Q 2250 -91 1575 -91 
Q 1294 -91 989 -36 
Q 684 19 347 128 
L 347 722 
Q 666 556 975 473 
Q 1284 391 1588 391 
Q 1994 391 2212 530 
Q 2431 669 2431 922 
Q 2431 1156 2273 1281 
Q 2116 1406 1581 1522 
L 1381 1569 
Q 847 1681 609 1914 
Q 372 2147 372 2553 
Q 372 3047 722 3315 
Q 1072 3584 1716 3584 
Q 2034 3584 2315 3537 
Q 2597 3491 2834 3397 
z
" transform="scale(0.015625)"/>
     </defs>
     <use xlink:href="#DejaVuSans-68"/>
     <use xlink:href="#DejaVuSans-79" transform="translate(63.378906 0)"/>
     <use xlink:href="#DejaVuSans-70" transform="translate(122.558594 0)"/>
     <use xlink:href="#DejaVuSans-65" transform="translate(186.035156 0)"/>
     <use xlink:href="#DejaVuSans-72" transform="translate(247.558594 0)"/>
     <use xlink:href="#DejaVuSans-73" transform="translate(288.671875 0)"/>
     <use xlink:href="#DejaVuSans-70" transform="translate(340.771484 0)"/>
     <use xlink:href="#DejaVuSans-68" transform="translate(404.248047 0)"/>
     <use xlink:href="#DejaVuSans-65" transform="translate(467.626953 0)"/>
     <use xlink:href="#DejaVuSans-72" transform="translate(529.150391 0)"/>
     <use xlink:href="#DejaVuSans-65" transform="translate(568.013672 0)"/>
    </g>
   </g>
   <g id="text_5">
    <!-- far from center -->
    <g transform="translate(547.940391 96.848025) scale(0.09 -0.09)">
     <defs>
      <path id="DejaVuSans-66" d="M 2375 4863 
L 2375 4384 
L 1825 4384 
Q 1516 4384 1395 4259 
Q 1275 4134 1275 3809 
L 1275 3500 
L 2222 3500 
L 2222 3053 
L 1275 3053 
L 1275 0 
L 697 0 
L 697 3053 
L 147 3053 
L 147 3500 
L 697 3500 
L 697 3744 
Q 697 4328 969 4595 
Q 1241 4863 1831 4863 
L 2375 4863 
z
" transform="scale(0.015625)"/>
      <path id="DejaVuSans-6d" d="M 3328 2828 
Q 3544 3216 3844 3400 
Q 4144 3584 4550 3584 
Q 5097 3584 5394 3201 
Q 5691 2819 5691 2113 
L 5691 0 
L 5113 0 
L 5113 2094 
Q 5113 2597 4934 2840 
Q 4756 3084 4391 3084 
Q 3944 3084 3684 2787 
Q 3425 2491 3425 1978 
L 3425 0 
L 2847 0 
L 2847 2094 
Q 2847 2600 2669 2842 
Q 2491 3084 2119 3084 
Q 1678 3084 1418 2786 
Q 1159 2488 1159 1978 
L 1159 0 
L 581 0 
L 581 3500 
L 1159 3500 
L 1159 2956 
Q 1356 3278 1631 3431 
Q 1906 3584 2284 3584 
Q 2666 3584 2933 3390 
Q 3200 3197 3328 2828 
z
" transform="scale(0.015625)"/>
     </defs>
     <use xlink:href="#DejaVuSans-66"/>
     <use xlink:href="#DejaVuSans-61" transform="translate(35.205078 0)"/>
     <use xlink:href="#DejaVuSans-72" transform="translate(96.484375 0)"/>
     <use xlink:href="#DejaVuSans-20" transform="translate(137.597656 0)"/>
     <use xlink:href="#DejaVuSans-66" transform="translate(169.384766 0)"/>
     <use xlink:href="#DejaVuSans-72" transform="translate(204.589844 0)"/>
     <use xlink:href="#DejaVuSans-6f" transform="translate(243.453125 0)"/>
     <use xlink:href="#DejaVuSans-6d" transform="translate(304.634766 0)"/>
     <use xlink:href="#DejaVuSans-20" transform="translate(402.046875 0)"/>
     <use xlink:href="#DejaVuSans-63" transform="translate(433.833984 0)"/>
     <use xlink:href="#DejaVuSans-65" transform="translate(488.814453 0)"/>
     <use xlink:href="#DejaVuSans-6e" transform="translate(550.337891 0)"/>
     <use xlink:href="#DejaVuSans-74" transform="translate(613.716797 0)"/>
     <use xlink:href="#DejaVuSans-65" transform="translate(652.925781 0)"/>
     <use xlink:href="#DejaVuSans-72" transform="translate(714.449219 0)"/>
    </g>
    <!-- = anomaly -->
    <g transform="translate(557.321484 106.926056) scale(0.09 -0.09)">
     <defs>
      <path id="DejaVuSans-3d" d="M 678 2906 
L 4684 2906 
L 4684 2381 
L 678 2381 
L 678 2906 
z
M 678 1631 
L 4684 1631 
L 4684 1100 
L 678 1100 
L 678 1631 
z
" transform="scale(0.015625)"/>
     </defs>
     <use xlink:href="#DejaVuSans-3d"/>
     <use xlink:href="#DejaVuSans-20" transform="translate(83.789062 0)"/>
     <use xlink:href="#DejaVuSans-61" transform="translate(115.576172 0)"/>
     <use xlink:href="#DejaVuSans-6e" transform="translate(176.855469 0)"/>
     <use xlink:href="#DejaVuSans-6f" transform="translate(240.234375 0)"/>
     <use xlink:href="#DejaVuSans-6d" transform="translate(301.416016 0)"/>
     <use xlink:href="#DejaVuSans-61" transform="translate(398.828125 0)"/>
     <use xlink:href="#DejaVuSans-6c" transform="translate(460.107422 0)"/>
     <use xlink:href="#DejaVuSans-79" transform="translate(487.890625 0)"/>
    </g>
   </g>
   <g id="text_6">
    <g id="patch_28">
     <path d="M 125.82 310.705456 
L 569.34 310.705456 
Q 573.19 310.705456 573.19 306.855456 
L 573.19 296.185456 
Q 573.19 292.335456 569.34 292.335456 
L 125.82 292.335456 
Q 121.97 292.335456 121.97 296.185456 
L 121.97 306.855456 
Q 121.97 310.705456 125.82 310.705456 
z
" style="fill: #ffffff; stroke: #cccccc; stroke-linejoin: miter"/>
    </g>
    <!-- Deep SVDD learns representations so that normal samples are close to center $c$. -->
    <g transform="translate(125.82 304.545456) scale(0.11 -0.11)">
     <defs>
      <path id="DejaVuSans-44" d="M 1259 4147 
L 1259 519 
L 2022 519 
Q 2988 519 3436 956 
Q 3884 1394 3884 2338 
Q 3884 3275 3436 3711 
Q 2988 4147 2022 4147 
L 1259 4147 
z
M 628 4666 
L 1925 4666 
Q 3281 4666 3915 4102 
Q 4550 3538 4550 2338 
Q 4550 1131 3912 565 
Q 3275 0 1925 0 
L 628 0 
L 628 4666 
z
" transform="scale(0.015625)"/>
      <path id="DejaVuSans-56" d="M 1831 0 
L 50 4666 
L 709 4666 
L 2188 738 
L 3669 4666 
L 4325 4666 
L 2547 0 
L 1831 0 
z
" transform="scale(0.015625)"/>
      <path id="DejaVuSans-69" d="M 603 3500 
L 1178 3500 
L 1178 0 
L 603 0 
L 603 3500 
z
M 603 4863 
L 1178 4863 
L 1178 4134 
L 603 4134 
L 603 4863 
z
" transform="scale(0.015625)"/>
      <path id="STIXGeneral-Italic-63" d="M 2240 685 
L 2342 621 
Q 2048 250 1769 90 
Q 1491 -70 1133 -70 
Q 678 -70 435 179 
Q 192 429 192 915 
Q 192 1344 409 1744 
Q 627 2144 979 2432 
Q 1472 2822 2048 2822 
Q 2342 2822 2531 2675 
Q 2720 2528 2720 2304 
Q 2720 2176 2630 2086 
Q 2541 1997 2413 1997 
Q 2285 1997 2224 2070 
Q 2163 2144 2163 2253 
Q 2163 2310 2211 2403 
Q 2259 2496 2259 2560 
Q 2259 2688 2022 2688 
Q 1619 2688 1325 2381 
Q 742 1766 742 890 
Q 742 544 889 352 
Q 1037 160 1312 160 
Q 1562 160 1766 281 
Q 1971 403 2240 685 
z
" transform="scale(0.015625)"/>
      <path id="DejaVuSans-2e" d="M 684 794 
L 1344 794 
L 1344 0 
L 684 0 
L 684 794 
z
" transform="scale(0.015625)"/>
     </defs>
     <use xlink:href="#DejaVuSans-44" transform="translate(0 0.015625)"/>
     <use xlink:href="#DejaVuSans-65" transform="translate(77.001953 0.015625)"/>
     <use xlink:href="#DejaVuSans-65" transform="translate(138.525391 0.015625)"/>
     <use xlink:href="#DejaVuSans-70" transform="translate(200.048828 0.015625)"/>
     <use xlink:href="#DejaVuSans-20" transform="translate(263.525391 0.015625)"/>
     <use xlink:href="#DejaVuSans-53" transform="translate(295.3125 0.015625)"/>
     <use xlink:href="#DejaVuSans-56" transform="translate(358.789062 0.015625)"/>
     <use xlink:href="#DejaVuSans-44" transform="translate(427.197266 0.015625)"/>
     <use xlink:href="#DejaVuSans-44" transform="translate(504.199219 0.015625)"/>
     <use xlink:href="#DejaVuSans-20" transform="translate(581.201172 0.015625)"/>
     <use xlink:href="#DejaVuSans-6c" transform="translate(612.988281 0.015625)"/>
     <use xlink:href="#DejaVuSans-65" transform="translate(640.771484 0.015625)"/>
     <use xlink:href="#DejaVuSans-61" transform="translate(702.294922 0.015625)"/>
     <use xlink:href="#DejaVuSans-72" transform="translate(763.574219 0.015625)"/>
     <use xlink:href="#DejaVuSans-6e" transform="translate(804.6875 0.015625)"/>
     <use xlink:href="#DejaVuSans-73" transform="translate(868.066406 0.015625)"/>
     <use xlink:href="#DejaVuSans-20" transform="translate(920.166016 0.015625)"/>
     <use xlink:href="#DejaVuSans-72" transform="translate(951.953125 0.015625)"/>
     <use xlink:href="#DejaVuSans-65" transform="translate(993.066406 0.015625)"/>
     <use xlink:href="#DejaVuSans-70" transform="translate(1054.589844 0.015625)"/>
     <use xlink:href="#DejaVuSans-72" transform="translate(1118.066406 0.015625)"/>
     <use xlink:href="#DejaVuSans-65" transform="translate(1159.179688 0.015625)"/>
     <use xlink:href="#DejaVuSans-73" transform="translate(1220.703125 0.015625)"/>
     <use xlink:href="#DejaVuSans-65" transform="translate(1272.802734 0.015625)"/>
     <use xlink:href="#DejaVuSans-6e" transform="translate(1334.326172 0.015625)"/>
     <use xlink:href="#DejaVuSans-74" transform="translate(1397.705078 0.015625)"/>
     <use xlink:href="#DejaVuSans-61" transform="translate(1436.914062 0.015625)"/>
     <use xlink:href="#DejaVuSans-74" transform="translate(1498.193359 0.015625)"/>
     <use xlink:href="#DejaVuSans-69" transform="translate(1537.402344 0.015625)"/>
     <use xlink:href="#DejaVuSans-6f" transform="translate(1565.185547 0.015625)"/>
     <use xlink:href="#DejaVuSans-6e" transform="translate(1626.367188 0.015625)"/>
     <use xlink:href="#DejaVuSans-73" transform="translate(1689.746094 0.015625)"/>
     <use xlink:href="#DejaVuSans-20" transform="translate(1741.845703 0.015625)"/>
     <use xlink:href="#DejaVuSans-73" transform="translate(1773.632812 0.015625)"/>
     <use xlink:href="#DejaVuSans-6f" transform="translate(1825.732422 0.015625)"/>
     <use xlink:href="#DejaVuSans-20" transform="translate(1886.914062 0.015625)"/>
     <use xlink:href="#DejaVuSans-74" transform="translate(1918.701172 0.015625)"/>
     <use xlink:href="#DejaVuSans-68" transform="translate(1957.910156 0.015625)"/>
     <use xlink:href="#DejaVuSans-61" transform="translate(2021.289062 0.015625)"/>
     <use xlink:href="#DejaVuSans-74" transform="translate(2082.568359 0.015625)"/>
     <use xlink:href="#DejaVuSans-20" transform="translate(2121.777344 0.015625)"/>
     <use xlink:href="#DejaVuSans-6e" transform="translate(2153.564453 0.015625)"/>
     <use xlink:href="#DejaVuSans-6f" transform="translate(2216.943359 0.015625)"/>
     <use xlink:href="#DejaVuSans-72" transform="translate(2278.125 0.015625)"/>
     <use xlink:href="#DejaVuSans-6d" transform="translate(2319.238281 0.015625)"/>
     <use xlink:href="#DejaVuSans-61" transform="translate(2416.650391 0.015625)"/>
     <use xlink:href="#DejaVuSans-6c" transform="translate(2477.929688 0.015625)"/>
     <use xlink:href="#DejaVuSans-20" transform="translate(2505.712891 0.015625)"/>
     <use xlink:href="#DejaVuSans-73" transform="translate(2537.5 0.015625)"/>
     <use xlink:href="#DejaVuSans-61" transform="translate(2589.599609 0.015625)"/>
     <use xlink:href="#DejaVuSans-6d" transform="translate(2650.878906 0.015625)"/>
     <use xlink:href="#DejaVuSans-70" transform="translate(2748.291016 0.015625)"/>
     <use xlink:href="#DejaVuSans-6c" transform="translate(2811.767578 0.015625)"/>
     <use xlink:href="#DejaVuSans-65" transform="translate(2839.550781 0.015625)"/>
     <use xlink:href="#DejaVuSans-73" transform="translate(2901.074219 0.015625)"/>
     <use xlink:href="#DejaVuSans-20" transform="translate(2953.173828 0.015625)"/>
     <use xlink:href="#DejaVuSans-61" transform="translate(2984.960938 0.015625)"/>
     <use xlink:href="#DejaVuSans-72" transform="translate(3046.240234 0.015625)"/>
     <use xlink:href="#DejaVuSans-65" transform="translate(3087.353516 0.015625)"/>
     <use xlink:href="#DejaVuSans-20" transform="translate(3148.876953 0.015625)"/>
     <use xlink:href="#DejaVuSans-63" transform="translate(3180.664062 0.015625)"/>
     <use xlink:href="#DejaVuSans-6c" transform="translate(3235.644531 0.015625)"/>
     <use xlink:href="#DejaVuSans-6f" transform="translate(3263.427734 0.015625)"/>
     <use xlink:href="#DejaVuSans-73" transform="translate(3324.609375 0.015625)"/>
     <use xlink:href="#DejaVuSans-65" transform="translate(3376.708984 0.015625)"/>
     <use xlink:href="#DejaVuSans-20" transform="translate(3438.232422 0.015625)"/>
     <use xlink:href="#DejaVuSans-74" transform="translate(3470.019531 0.015625)"/>
     <use xlink:href="#DejaVuSans-6f" transform="translate(3509.228516 0.015625)"/>
     <use xlink:href="#DejaVuSans-20" transform="translate(3570.410156 0.015625)"/>
     <use xlink:href="#DejaVuSans-63" transform="translate(3602.197266 0.015625)"/>
     <use xlink:href="#DejaVuSans-65" transform="translate(3657.177734 0.015625)"/>
     <use xlink:href="#DejaVuSans-6e" transform="translate(3718.701172 0.015625)"/>
     <use xlink:href="#DejaVuSans-74" transform="translate(3782.080078 0.015625)"/>
     <use xlink:href="#DejaVuSans-65" transform="translate(3821.289062 0.015625)"/>
     <use xlink:href="#DejaVuSans-72" transform="translate(3882.8125 0.015625)"/>
     <use xlink:href="#DejaVuSans-20" transform="translate(3923.925781 0.015625)"/>
     <use xlink:href="#STIXGeneral-Italic-63" transform="translate(3955.712891 0.015625)"/>
     <use xlink:href="#DejaVuSans-2e" transform="translate(4000.112885 0.015625)"/>
    </g>
   </g>
   <g id="text_7">
    <!-- Deep SVDD: Representation Learning + Hypersphere -->
    <g transform="translate(142.440234 18.597656) scale(0.15 -0.15)">
     <defs>
      <path id="DejaVuSans-3a" d="M 750 794 
L 1409 794 
L 1409 0 
L 750 0 
L 750 794 
z
M 750 3309 
L 1409 3309 
L 1409 2516 
L 750 2516 
L 750 3309 
z
" transform="scale(0.015625)"/>
      <path id="DejaVuSans-52" d="M 2841 2188 
Q 3044 2119 3236 1894 
Q 3428 1669 3622 1275 
L 4263 0 
L 3584 0 
L 2988 1197 
Q 2756 1666 2539 1819 
Q 2322 1972 1947 1972 
L 1259 1972 
L 1259 0 
L 628 0 
L 628 4666 
L 2053 4666 
Q 2853 4666 3247 4331 
Q 3641 3997 3641 3322 
Q 3641 2881 3436 2590 
Q 3231 2300 2841 2188 
z
M 1259 4147 
L 1259 2491 
L 2053 2491 
Q 2509 2491 2742 2702 
Q 2975 2913 2975 3322 
Q 2975 3731 2742 3939 
Q 2509 4147 2053 4147 
L 1259 4147 
z
" transform="scale(0.015625)"/>
      <path id="DejaVuSans-67" d="M 2906 1791 
Q 2906 2416 2648 2759 
Q 2391 3103 1925 3103 
Q 1463 3103 1205 2759 
Q 947 2416 947 1791 
Q 947 1169 1205 825 
Q 1463 481 1925 481 
Q 2391 481 2648 825 
Q 2906 1169 2906 1791 
z
M 3481 434 
Q 3481 -459 3084 -895 
Q 2688 -1331 1869 -1331 
Q 1566 -1331 1297 -1286 
Q 1028 -1241 775 -1147 
L 775 -588 
Q 1028 -725 1275 -790 
Q 1522 -856 1778 -856 
Q 2344 -856 2625 -561 
Q 2906 -266 2906 331 
L 2906 616 
Q 2728 306 2450 153 
Q 2172 0 1784 0 
Q 1141 0 747 490 
Q 353 981 353 1791 
Q 353 2603 747 3093 
Q 1141 3584 1784 3584 
Q 2172 3584 2450 3431 
Q 2728 3278 2906 2969 
L 2906 3500 
L 3481 3500 
L 3481 434 
z
" transform="scale(0.015625)"/>
      <path id="DejaVuSans-2b" d="M 2944 4013 
L 2944 2272 
L 4684 2272 
L 4684 1741 
L 2944 1741 
L 2944 0 
L 2419 0 
L 2419 1741 
L 678 1741 
L 678 2272 
L 2419 2272 
L 2419 4013 
L 2944 4013 
z
" transform="scale(0.015625)"/>
      <path id="DejaVuSans-48" d="M 628 4666 
L 1259 4666 
L 1259 2753 
L 3553 2753 
L 3553 4666 
L 4184 4666 
L 4184 0 
L 3553 0 
L 3553 2222 
L 1259 2222 
L 1259 0 
L 628 0 
L 628 4666 
z
" transform="scale(0.015625)"/>
     </defs>
     <use xlink:href="#DejaVuSans-44"/>
     <use xlink:href="#DejaVuSans-65" transform="translate(77.001953 0)"/>
     <use xlink:href="#DejaVuSans-65" transform="translate(138.525391 0)"/>
     <use xlink:href="#DejaVuSans-70" transform="translate(200.048828 0)"/>
     <use xlink:href="#DejaVuSans-20" transform="translate(263.525391 0)"/>
     <use xlink:href="#DejaVuSans-53" transform="translate(295.3125 0)"/>
     <use xlink:href="#DejaVuSans-56" transform="translate(358.789062 0)"/>
     <use xlink:href="#DejaVuSans-44" transform="translate(427.197266 0)"/>
     <use xlink:href="#DejaVuSans-44" transform="translate(504.199219 0)"/>
     <use xlink:href="#DejaVuSans-3a" transform="translate(581.201172 0)"/>
     <use xlink:href="#DejaVuSans-20" transform="translate(614.892578 0)"/>
     <use xlink:href="#DejaVuSans-52" transform="translate(646.679688 0)"/>
     <use xlink:href="#DejaVuSans-65" transform="translate(711.662109 0)"/>
     <use xlink:href="#DejaVuSans-70" transform="translate(773.185547 0)"/>
     <use xlink:href="#DejaVuSans-72" transform="translate(836.662109 0)"/>
     <use xlink:href="#DejaVuSans-65" transform="translate(875.525391 0)"/>
     <use xlink:href="#DejaVuSans-73" transform="translate(937.048828 0)"/>
     <use xlink:href="#DejaVuSans-65" transform="translate(989.148438 0)"/>
     <use xlink:href="#DejaVuSans-6e" transform="translate(1050.671875 0)"/>
     <use xlink:href="#DejaVuSans-74" transform="translate(1114.050781 0)"/>
     <use xlink:href="#DejaVuSans-61" transform="translate(1153.259766 0)"/>
     <use xlink:href="#DejaVuSans-74" transform="translate(1214.539062 0)"/>
     <use xlink:href="#DejaVuSans-69" transform="translate(1253.748047 0)"/>
     <use xlink:href="#DejaVuSans-6f" transform="translate(1281.53125 0)"/>
     <use xlink:href="#DejaVuSans-6e" transform="translate(1342.712891 0)"/>
     <use xlink:href="#DejaVuSans-20" transform="translate(1406.091797 0)"/>
     <use xlink:href="#DejaVuSans-4c" transform="translate(1437.878906 0)"/>
     <use xlink:href="#DejaVuSans-65" transform="translate(1491.841797 0)"/>
     <use xlink:href="#DejaVuSans-61" transform="translate(1553.365234 0)"/>
     <use xlink:href="#DejaVuSans-72" transform="translate(1614.644531 0)"/>
     <use xlink:href="#DejaVuSans-6e" transform="translate(1654.007812 0)"/>
     <use xlink:href="#DejaVuSans-69" transform="translate(1717.386719 0)"/>
     <use xlink:href="#DejaVuSans-6e" transform="translate(1745.169922 0)"/>
     <use xlink:href="#DejaVuSans-67" transform="translate(1808.548828 0)"/>
     <use xlink:href="#DejaVuSans-20" transform="translate(1872.025391 0)"/>
     <use xlink:href="#DejaVuSans-2b" transform="translate(1903.8125 0)"/>
     <use xlink:href="#DejaVuSans-20" transform="translate(1987.601562 0)"/>
     <use xlink:href="#DejaVuSans-48" transform="translate(2019.388672 0)"/>
     <use xlink:href="#DejaVuSans-79" transform="translate(2094.583984 0)"/>
     <use xlink:href="#DejaVuSans-70" transform="translate(2153.763672 0)"/>
     <use xlink:href="#DejaVuSans-65" transform="translate(2217.240234 0)"/>
     <use xlink:href="#DejaVuSans-72" transform="translate(2278.763672 0)"/>
     <use xlink:href="#DejaVuSans-73" transform="translate(2319.876953 0)"/>
     <use xlink:href="#DejaVuSans-70" transform="translate(2371.976562 0)"/>
     <use xlink:href="#DejaVuSans-68" transform="translate(2435.453125 0)"/>
     <use xlink:href="#DejaVuSans-65" transform="translate(2498.832031 0)"/>
     <use xlink:href="#DejaVuSans-72" transform="translate(2560.355469 0)"/>
     <use xlink:href="#DejaVuSans-65" transform="translate(2599.21875 0)"/>
    </g>
   </g>
  </g>
 </g>
 <defs>
  <clipPath id="p36a1b0f825">
   <rect x="7.2" y="24.597656" width="669.6" height="299.376"/>
  </clipPath>
 </defs>
</svg>
