<?xml version="1.0" encoding="utf-8" standalone="no"?>
<!DOCTYPE svg PUBLIC "-//W3C//DTD SVG 1.1//EN"
  "http://www.w3.org/Graphics/SVG/1.1/DTD/svg11.dtd">
<svg xmlns:xlink="http://www.w3.org/1999/xlink" width="562.738125pt" height="505.331875pt" viewBox="0 0 562.738125 505.331875" xmlns="http://www.w3.org/2000/svg" version="1.1">
 <metadata>
  <rdf:RDF xmlns:dc="http://purl.org/dc/elements/1.1/" xmlns:cc="http://creativecommons.org/ns#" xmlns:rdf="http://www.w3.org/1999/02/22-rdf-syntax-ns#">
   <cc:Work>
    <dc:type rdf:resource="http://purl.org/dc/dcmitype/StillImage"/>
    <dc:date>2026-05-12T14:13:37.587863</dc:date>
    <dc:format>image/svg+xml</dc:format>
    <dc:creator>
     <cc:Agent>
      <dc:title>Matplotlib v3.10.9, https://matplotlib.org/</dc:title>
     </cc:Agent>
    </dc:creator>
   </cc:Work>
  </rdf:RDF>
 </metadata>
 <defs>
  <style type="text/css">*{stroke-linejoin: round; stroke-linecap: butt}</style>
 </defs>
 <g id="figure_1">
  <g id="patch_1">
   <path d="M 0 505.331875 
L 562.738125 505.331875 
L 562.738125 0 
L 0 0 
z
" style="fill: #ffffff"/>
  </g>
  <g id="axes_1">
   <g id="patch_2">
    <path d="M 53.338125 254.16 
L 555.538125 254.16 
L 555.538125 77.76 
L 53.338125 77.76 
z
" style="fill: #ffffff"/>
   </g>
   <g id="FillBetweenPolyCollection_1">
    <defs>
     <path id="mb4049f924e" d="M 76.165398 -414.002059 
L 76.165398 -259.255613 
L 77.080318 -259.255613 
L 77.995239 -259.255613 
L 78.91016 -259.255613 
L 79.825081 -259.255613 
L 80.740001 -259.255613 
L 81.654922 -259.255613 
L 82.569843 -259.255613 
L 83.484764 -259.255613 
L 84.399684 -259.255613 
L 85.314605 -259.255613 
L 86.229526 -259.255613 
L 87.144447 -259.255613 
L 88.059367 -259.255613 
L 88.974288 -259.255613 
L 89.889209 -259.255613 
L 90.80413 -259.255613 
L 91.71905 -259.255613 
L 92.633971 -259.255613 
L 93.548892 -259.255613 
L 94.463813 -259.255613 
L 95.378733 -259.255613 
L 96.293654 -259.255613 
L 97.208575 -259.255613 
L 98.123496 -259.255613 
L 99.038416 -306.869907 
L 99.953337 -259.255613 
L 100.868258 -259.255613 
L 101.783179 -259.255613 
L 102.698099 -259.255613 
L 103.61302 -259.255613 
L 104.527941 -259.255613 
L 105.442862 -259.255613 
L 106.357782 -259.255613 
L 107.272703 -259.255613 
L 108.187624 -259.255613 
L 109.102545 -259.255613 
L 110.017465 -259.255613 
L 110.932386 -259.255613 
L 111.847307 -259.255613 
L 112.762228 -259.255613 
L 113.677149 -259.255613 
L 114.592069 -259.255613 
L 115.50699 -259.255613 
L 116.421911 -259.255613 
L 117.336832 -259.255613 
L 118.251752 -259.255613 
L 119.166673 -259.255613 
L 120.081594 -259.255613 
L 120.996515 -259.255613 
L 121.911435 -259.255613 
L 122.826356 -259.255613 
L 123.741277 -259.255613 
L 124.656198 -259.255613 
L 125.571118 -259.255613 
L 126.486039 -259.255613 
L 127.40096 -259.255613 
L 128.315881 -259.255613 
L 129.230801 -259.255613 
L 130.145722 -259.255613 
L 131.060643 -259.255613 
L 131.975564 -259.255613 
L 132.890484 -259.255613 
L 133.805405 -259.255613 
L 134.720326 -259.255613 
L 135.635247 -259.255613 
L 136.550167 -259.255613 
L 137.465088 -259.255613 
L 138.380009 -259.255613 
L 139.29493 -259.255613 
L 140.20985 -259.255613 
L 141.124771 -259.255613 
L 142.039692 -259.255613 
L 142.954613 -259.255613 
L 143.869533 -259.255613 
L 144.784454 -259.255613 
L 145.699375 -259.255613 
L 146.614296 -259.255613 
L 147.529216 -259.255613 
L 148.444137 -259.255613 
L 149.359058 -259.255613 
L 150.273979 -259.255613 
L 151.188899 -259.255613 
L 152.10382 -259.255613 
L 153.018741 -259.255613 
L 153.933662 -259.255613 
L 154.848582 -259.255613 
L 155.763503 -259.255613 
L 156.678424 -259.255613 
L 157.593345 -259.255613 
L 158.508265 -259.255613 
L 159.423186 -259.255613 
L 160.338107 -259.255613 
L 161.253028 -259.255613 
L 162.167948 -259.255613 
L 163.082869 -259.255613 
L 163.99779 -259.255613 
L 164.912711 -259.255613 
L 165.827631 -259.255613 
L 166.742552 -259.255613 
L 167.657473 -259.255613 
L 168.572394 -259.255613 
L 169.487314 -259.255613 
L 170.402235 -259.255613 
L 171.317156 -259.255613 
L 172.232077 -259.255613 
L 173.146997 -259.255613 
L 174.061918 -259.255613 
L 174.976839 -259.255613 
L 175.89176 -259.255613 
L 176.80668 -259.255613 
L 177.721601 -259.255613 
L 178.636522 -259.255613 
L 179.551443 -259.255613 
L 180.466363 -259.255613 
L 181.381284 -259.255613 
L 182.296205 -259.255613 
L 183.211126 -259.255613 
L 184.126046 -259.255613 
L 185.040967 -259.255613 
L 185.955888 -259.255613 
L 186.870809 -259.255613 
L 187.785729 -259.255613 
L 188.70065 -259.255613 
L 189.615571 -259.255613 
L 190.530492 -259.190057 
L 191.445412 -259.255613 
L 192.360333 -259.255613 
L 193.275254 -259.255613 
L 194.190175 -259.255613 
L 195.105095 -259.255613 
L 196.020016 -259.255613 
L 196.934937 -259.255613 
L 197.849858 -259.255613 
L 198.764778 -259.255613 
L 199.679699 -259.255613 
L 200.59462 -259.255613 
L 201.509541 -259.255613 
L 202.424461 -259.255613 
L 203.339382 -259.255613 
L 204.254303 -259.255613 
L 205.169224 -259.255613 
L 206.084144 -259.255613 
L 206.999065 -259.255613 
L 207.913986 -259.255613 
L 208.828907 -259.255613 
L 209.743827 -259.255613 
L 210.658748 -259.255613 
L 211.573669 -259.255613 
L 212.48859 -259.255613 
L 213.40351 -259.255613 
L 214.318431 -259.255613 
L 215.233352 -259.255613 
L 216.148273 -259.255613 
L 217.063193 -259.255613 
L 217.978114 -259.255613 
L 218.893035 -259.255613 
L 219.807956 -259.255613 
L 220.722876 -259.255613 
L 221.637797 -259.255613 
L 222.552718 -259.255613 
L 223.467639 -259.255613 
L 224.382559 -259.255613 
L 225.29748 -259.255613 
L 226.212401 -259.255613 
L 227.127322 -259.255613 
L 228.042242 -259.255613 
L 228.957163 -259.255613 
L 229.872084 -259.255613 
L 230.787005 -259.255613 
L 231.701925 -259.255613 
L 232.616846 -259.255613 
L 233.531767 -259.255613 
L 234.446688 -259.255613 
L 235.361608 -259.255613 
L 236.276529 -259.255613 
L 237.19145 -259.255613 
L 238.106371 -259.255613 
L 239.021291 -259.255613 
L 239.936212 -259.255613 
L 240.851133 -259.255613 
L 241.766054 -259.255613 
L 242.680974 -259.255613 
L 243.595895 -259.255613 
L 244.510816 -259.255613 
L 245.425737 -259.255613 
L 246.340657 -259.255613 
L 247.255578 -259.255613 
L 248.170499 -259.255613 
L 249.08542 -259.255613 
L 250.00034 -259.255613 
L 250.915261 -259.255613 
L 251.830182 -259.255613 
L 252.745103 -259.255613 
L 253.660023 -259.255613 
L 254.574944 -259.255613 
L 255.489865 -259.255613 
L 256.404786 -259.255613 
L 257.319706 -259.255613 
L 258.234627 -259.255613 
L 259.149548 -259.255613 
L 260.064469 -259.255613 
L 260.979389 -259.255613 
L 261.89431 -259.255613 
L 262.809231 -259.255613 
L 263.724152 -259.255613 
L 264.639072 -259.255613 
L 265.553993 -259.255613 
L 266.468914 -259.255613 
L 267.383835 -259.255613 
L 268.298755 -259.255613 
L 269.213676 -259.255613 
L 270.128597 -259.255613 
L 271.043518 -259.255613 
L 271.958438 -259.255613 
L 272.873359 -259.255613 
L 273.78828 -259.255613 
L 274.703201 -259.255613 
L 275.618121 -259.255613 
L 276.533042 -259.255613 
L 277.447963 -259.255613 
L 278.362884 -259.255613 
L 279.277804 -259.255613 
L 280.192725 -259.255613 
L 281.107646 -259.255613 
L 282.022567 -259.255613 
L 282.937487 -259.255613 
L 283.852408 -259.255613 
L 284.767329 -259.255613 
L 285.68225 -259.255613 
L 286.59717 -259.255613 
L 287.512091 -259.255613 
L 288.427012 -259.255613 
L 289.341933 -259.255613 
L 290.256853 -259.255613 
L 291.171774 -259.255613 
L 292.086695 -259.255613 
L 293.001616 -259.255613 
L 293.916536 -259.255613 
L 294.831457 -259.255613 
L 295.746378 -259.255613 
L 296.661299 -259.255613 
L 297.576219 -259.255613 
L 298.49114 -259.255613 
L 299.406061 -259.255613 
L 300.320982 -259.255613 
L 301.235902 -259.255613 
L 302.150823 -259.255613 
L 303.065744 -259.255613 
L 303.980665 -259.255613 
L 304.895585 -259.255613 
L 305.810506 -259.255613 
L 306.725427 -259.255613 
L 307.640348 -259.255613 
L 308.555268 -259.255613 
L 309.470189 -259.255613 
L 310.38511 -259.255613 
L 311.300031 -259.255613 
L 312.214951 -259.255613 
L 313.129872 -259.255613 
L 314.044793 -259.255613 
L 314.959714 -259.255613 
L 315.874634 -259.255613 
L 316.789555 -259.255613 
L 317.704476 -259.255613 
L 318.619397 -259.255613 
L 319.534317 -259.255613 
L 320.449238 -259.255613 
L 321.364159 -259.255613 
L 322.27908 -259.255613 
L 323.194 -259.255613 
L 324.108921 -259.255613 
L 325.023842 -259.255613 
L 325.938763 -259.255613 
L 326.853683 -259.255613 
L 327.768604 -259.255613 
L 328.683525 -259.255613 
L 329.598446 -259.255613 
L 330.513366 -259.255613 
L 331.428287 -259.255613 
L 332.343208 -259.255613 
L 333.258129 -259.255613 
L 334.173049 -259.255613 
L 335.08797 -259.255613 
L 336.002891 -259.255613 
L 336.917812 -259.255613 
L 337.832732 -259.255613 
L 338.747653 -259.255613 
L 339.662574 -259.255613 
L 340.577495 -259.255613 
L 341.492415 -259.255613 
L 342.407336 -259.255613 
L 343.322257 -259.255613 
L 344.237178 -259.255613 
L 345.152098 -259.255613 
L 346.067019 -259.255613 
L 346.98194 -259.255613 
L 347.896861 -259.255613 
L 348.811781 -259.255613 
L 349.726702 -259.255613 
L 350.641623 -259.255613 
L 351.556544 -259.255613 
L 352.471464 -259.255613 
L 353.386385 -259.255613 
L 354.301306 -259.255613 
L 355.216227 -259.255613 
L 356.131147 -259.255613 
L 357.046068 -259.255613 
L 357.960989 -259.255613 
L 358.87591 -259.255613 
L 359.79083 -259.255613 
L 360.705751 -259.255613 
L 361.620672 -259.255613 
L 362.535593 -259.255613 
L 363.450513 -259.255613 
L 364.365434 -259.255613 
L 365.280355 -259.255613 
L 366.195276 -259.255613 
L 367.110196 -259.255613 
L 368.025117 -259.255613 
L 368.940038 -259.255613 
L 369.854959 -259.255613 
L 370.769879 -259.255613 
L 371.6848 -259.255613 
L 372.599721 -259.255613 
L 373.514642 -259.255613 
L 374.429562 -259.255613 
L 375.344483 -259.255613 
L 376.259404 -259.255613 
L 377.174325 -259.255613 
L 378.089245 -259.255613 
L 379.004166 -259.255613 
L 379.919087 -259.255613 
L 380.834008 -259.255613 
L 381.748928 -259.255613 
L 382.663849 -259.255613 
L 383.57877 -259.255613 
L 384.493691 -259.255613 
L 385.408611 -259.255613 
L 386.323532 -259.255613 
L 387.238453 -259.255613 
L 388.153374 -259.255613 
L 389.068294 -259.255613 
L 389.983215 -259.255613 
L 390.898136 -259.255613 
L 391.813057 -259.255613 
L 392.727977 -259.255613 
L 393.642898 -259.255613 
L 394.557819 -259.255613 
L 395.47274 -259.255613 
L 396.38766 -259.255613 
L 397.302581 -259.255613 
L 398.217502 -259.255613 
L 399.132423 -259.255613 
L 400.047343 -259.255613 
L 400.962264 -259.255613 
L 401.877185 -259.255613 
L 402.792106 -259.255613 
L 403.707026 -259.255613 
L 404.621947 -259.255613 
L 405.536868 -259.255613 
L 406.451789 -259.255613 
L 407.366709 -259.255613 
L 408.28163 -259.255613 
L 409.196551 -259.255613 
L 410.111472 -259.255613 
L 411.026392 -259.255613 
L 411.941313 -259.255613 
L 412.856234 -259.255613 
L 413.771155 -259.255613 
L 414.686075 -259.255613 
L 415.600996 -259.255613 
L 416.515917 -259.255613 
L 417.430838 -259.255613 
L 418.345758 -259.233685 
L 419.260679 -259.255613 
L 420.1756 -259.255613 
L 421.090521 -259.255613 
L 422.005441 -259.255613 
L 422.920362 -259.255613 
L 423.835283 -259.255613 
L 424.750204 -259.255613 
L 425.665124 -259.255613 
L 426.580045 -259.255613 
L 427.494966 -259.255613 
L 428.409887 -259.255613 
L 429.324807 -259.255613 
L 430.239728 -259.255613 
L 431.154649 -259.255613 
L 432.06957 -259.255613 
L 432.98449 -259.255613 
L 433.899411 -259.255613 
L 434.814332 -259.255613 
L 435.729253 -259.255613 
L 436.644173 -259.255613 
L 437.559094 -259.255613 
L 438.474015 -259.255613 
L 439.388936 -259.255613 
L 440.303856 -259.255613 
L 441.218777 -259.255613 
L 442.133698 -259.255613 
L 443.048619 -259.255613 
L 443.963539 -259.255613 
L 444.87846 -259.255613 
L 445.793381 -259.255613 
L 446.708302 -259.255613 
L 447.623222 -259.255613 
L 448.538143 -259.255613 
L 449.453064 -259.255613 
L 450.367985 -259.255613 
L 451.282905 -259.255613 
L 452.197826 -259.255613 
L 453.112747 -259.255613 
L 454.027668 -259.255613 
L 454.942588 -259.255613 
L 455.857509 -259.255613 
L 456.77243 -259.255613 
L 457.687351 -259.255613 
L 458.602271 -259.255613 
L 459.517192 -259.255613 
L 460.432113 -259.255613 
L 461.347034 -259.255613 
L 462.261954 -259.255613 
L 463.176875 -259.255613 
L 464.091796 -259.255613 
L 465.006717 -259.255613 
L 465.921637 -259.255613 
L 466.836558 -259.255613 
L 467.751479 -259.255613 
L 468.6664 -259.255613 
L 469.58132 -259.255613 
L 470.496241 -259.255613 
L 471.411162 -259.255613 
L 472.326083 -259.255613 
L 473.241003 -259.255613 
L 474.155924 -259.255613 
L 475.070845 -259.255613 
L 475.985766 -259.255613 
L 476.900686 -259.255613 
L 477.815607 -259.255613 
L 478.730528 -259.255613 
L 479.645449 -259.255613 
L 480.560369 -259.255613 
L 481.47529 -259.255613 
L 482.390211 -259.255613 
L 483.305132 -259.255613 
L 484.220052 -259.255613 
L 485.134973 -259.255613 
L 486.049894 -259.255613 
L 486.964815 -259.255613 
L 487.879735 -259.255613 
L 488.794656 -259.255613 
L 489.709577 -259.255613 
L 490.624498 -259.255613 
L 491.539418 -259.255613 
L 492.454339 -259.255613 
L 493.36926 -259.255613 
L 494.284181 -259.255613 
L 495.199101 -259.255613 
L 496.114022 -259.255613 
L 497.028943 -259.255613 
L 497.943864 -259.255613 
L 498.858785 -259.255613 
L 499.773705 -259.255613 
L 500.688626 -295.964925 
L 501.603547 -259.255613 
L 502.518468 -259.255613 
L 503.433388 -259.255613 
L 504.348309 -259.255613 
L 505.26323 -259.255613 
L 506.178151 -259.255613 
L 507.093071 -259.255613 
L 508.007992 -259.255613 
L 508.922913 -259.255613 
L 509.837834 -259.255613 
L 510.752754 -259.255613 
L 511.667675 -259.255613 
L 512.582596 -259.255613 
L 513.497517 -259.255613 
L 514.412437 -259.255613 
L 515.327358 -259.255613 
L 516.242279 -259.255613 
L 517.1572 -259.255613 
L 518.07212 -259.255613 
L 518.987041 -259.255613 
L 519.901962 -259.255613 
L 520.816883 -259.255613 
L 521.731803 -259.255613 
L 522.646724 -259.255613 
L 523.561645 -259.255613 
L 524.476566 -259.255613 
L 525.391486 -259.255613 
L 526.306407 -259.255613 
L 527.221328 -259.255613 
L 528.136249 -259.255613 
L 529.051169 -259.255613 
L 529.96609 -259.255613 
L 530.881011 -259.255613 
L 531.795932 -259.255613 
L 532.710852 -259.255613 
L 532.710852 -414.002059 
L 532.710852 -414.002059 
L 531.795932 -414.002059 
L 530.881011 -414.002059 
L 529.96609 -414.002059 
L 529.051169 -414.002059 
L 528.136249 -414.002059 
L 527.221328 -414.002059 
L 526.306407 -414.002059 
L 525.391486 -414.002059 
L 524.476566 -414.002059 
L 523.561645 -414.002059 
L 522.646724 -414.002059 
L 521.731803 -414.002059 
L 520.816883 -414.002059 
L 519.901962 -414.002059 
L 518.987041 -414.002059 
L 518.07212 -414.002059 
L 517.1572 -414.002059 
L 516.242279 -414.002059 
L 515.327358 -414.002059 
L 514.412437 -414.002059 
L 513.497517 -414.002059 
L 512.582596 -414.002059 
L 511.667675 -414.002059 
L 510.752754 -414.002059 
L 509.837834 -414.002059 
L 508.922913 -414.002059 
L 508.007992 -414.002059 
L 507.093071 -414.002059 
L 506.178151 -414.002059 
L 505.26323 -414.002059 
L 504.348309 -414.002059 
L 503.433388 -414.002059 
L 502.518468 -414.002059 
L 501.603547 -414.002059 
L 500.688626 -419.553693 
L 499.773705 -414.002059 
L 498.858785 -414.002059 
L 497.943864 -414.002059 
L 497.028943 -414.002059 
L 496.114022 -414.002059 
L 495.199101 -414.002059 
L 494.284181 -414.002059 
L 493.36926 -414.002059 
L 492.454339 -414.002059 
L 491.539418 -414.002059 
L 490.624498 -414.002059 
L 489.709577 -414.002059 
L 488.794656 -414.002059 
L 487.879735 -414.002059 
L 486.964815 -414.002059 
L 486.049894 -414.002059 
L 485.134973 -414.002059 
L 484.220052 -414.002059 
L 483.305132 -414.002059 
L 482.390211 -414.002059 
L 481.47529 -414.002059 
L 480.560369 -414.002059 
L 479.645449 -414.002059 
L 478.730528 -414.002059 
L 477.815607 -414.002059 
L 476.900686 -414.002059 
L 475.985766 -414.002059 
L 475.070845 -414.002059 
L 474.155924 -414.002059 
L 473.241003 -414.002059 
L 472.326083 -414.002059 
L 471.411162 -414.002059 
L 470.496241 -414.002059 
L 469.58132 -414.002059 
L 468.6664 -414.002059 
L 467.751479 -414.002059 
L 466.836558 -414.002059 
L 465.921637 -414.002059 
L 465.006717 -414.002059 
L 464.091796 -414.002059 
L 463.176875 -414.002059 
L 462.261954 -414.002059 
L 461.347034 -414.002059 
L 460.432113 -414.002059 
L 459.517192 -414.002059 
L 458.602271 -414.002059 
L 457.687351 -414.002059 
L 456.77243 -414.002059 
L 455.857509 -414.002059 
L 454.942588 -414.002059 
L 454.027668 -414.002059 
L 453.112747 -414.002059 
L 452.197826 -414.002059 
L 451.282905 -414.002059 
L 450.367985 -414.002059 
L 449.453064 -414.002059 
L 448.538143 -414.002059 
L 447.623222 -414.002059 
L 446.708302 -414.002059 
L 445.793381 -414.002059 
L 444.87846 -414.002059 
L 443.963539 -414.002059 
L 443.048619 -414.002059 
L 442.133698 -414.002059 
L 441.218777 -414.002059 
L 440.303856 -414.002059 
L 439.388936 -414.002059 
L 438.474015 -414.002059 
L 437.559094 -414.002059 
L 436.644173 -414.002059 
L 435.729253 -414.002059 
L 434.814332 -414.002059 
L 433.899411 -414.002059 
L 432.98449 -414.002059 
L 432.06957 -414.002059 
L 431.154649 -414.002059 
L 430.239728 -414.002059 
L 429.324807 -414.002059 
L 428.409887 -414.002059 
L 427.494966 -414.002059 
L 426.580045 -414.002059 
L 425.665124 -414.002059 
L 424.750204 -414.002059 
L 423.835283 -414.002059 
L 422.920362 -414.002059 
L 422.005441 -414.002059 
L 421.090521 -414.002059 
L 420.1756 -414.002059 
L 419.260679 -414.002059 
L 418.345758 -413.979948 
L 417.430838 -414.002059 
L 416.515917 -414.002059 
L 415.600996 -414.002059 
L 414.686075 -414.002059 
L 413.771155 -414.002059 
L 412.856234 -414.002059 
L 411.941313 -414.002059 
L 411.026392 -414.002059 
L 410.111472 -414.002059 
L 409.196551 -414.002059 
L 408.28163 -414.002059 
L 407.366709 -414.002059 
L 406.451789 -414.002059 
L 405.536868 -414.002059 
L 404.621947 -414.002059 
L 403.707026 -414.002059 
L 402.792106 -414.002059 
L 401.877185 -414.002059 
L 400.962264 -414.002059 
L 400.047343 -414.002059 
L 399.132423 -414.002059 
L 398.217502 -414.002059 
L 397.302581 -414.002059 
L 396.38766 -414.002059 
L 395.47274 -414.002059 
L 394.557819 -414.002059 
L 393.642898 -414.002059 
L 392.727977 -414.002059 
L 391.813057 -414.002059 
L 390.898136 -414.002059 
L 389.983215 -414.002059 
L 389.068294 -414.002059 
L 388.153374 -414.002059 
L 387.238453 -414.002059 
L 386.323532 -414.002059 
L 385.408611 -414.002059 
L 384.493691 -414.002059 
L 383.57877 -414.002059 
L 382.663849 -414.002059 
L 381.748928 -414.002059 
L 380.834008 -414.002059 
L 379.919087 -414.002059 
L 379.004166 -414.002059 
L 378.089245 -414.002059 
L 377.174325 -414.002059 
L 376.259404 -414.002059 
L 375.344483 -414.002059 
L 374.429562 -414.002059 
L 373.514642 -414.002059 
L 372.599721 -414.002059 
L 371.6848 -414.002059 
L 370.769879 -414.002059 
L 369.854959 -414.002059 
L 368.940038 -414.002059 
L 368.025117 -414.002059 
L 367.110196 -414.002059 
L 366.195276 -414.002059 
L 365.280355 -414.002059 
L 364.365434 -414.002059 
L 363.450513 -414.002059 
L 362.535593 -414.002059 
L 361.620672 -414.002059 
L 360.705751 -414.002059 
L 359.79083 -414.002059 
L 358.87591 -414.002059 
L 357.960989 -414.002059 
L 357.046068 -414.002059 
L 356.131147 -414.002059 
L 355.216227 -414.002059 
L 354.301306 -414.002059 
L 353.386385 -414.002059 
L 352.471464 -414.002059 
L 351.556544 -414.002059 
L 350.641623 -414.002059 
L 349.726702 -414.002059 
L 348.811781 -414.002059 
L 347.896861 -414.002059 
L 346.98194 -414.002059 
L 346.067019 -414.002059 
L 345.152098 -414.002059 
L 344.237178 -414.002059 
L 343.322257 -414.002059 
L 342.407336 -414.002059 
L 341.492415 -414.002059 
L 340.577495 -414.002059 
L 339.662574 -414.002059 
L 338.747653 -414.002059 
L 337.832732 -414.002059 
L 336.917812 -414.002059 
L 336.002891 -414.002059 
L 335.08797 -414.002059 
L 334.173049 -414.002059 
L 333.258129 -414.002059 
L 332.343208 -414.002059 
L 331.428287 -414.002059 
L 330.513366 -414.002059 
L 329.598446 -414.002059 
L 328.683525 -414.002059 
L 327.768604 -414.002059 
L 326.853683 -414.002059 
L 325.938763 -414.002059 
L 325.023842 -414.002059 
L 324.108921 -414.002059 
L 323.194 -414.002059 
L 322.27908 -414.002059 
L 321.364159 -414.002059 
L 320.449238 -414.002059 
L 319.534317 -414.002059 
L 318.619397 -414.002059 
L 317.704476 -414.002059 
L 316.789555 -414.002059 
L 315.874634 -414.002059 
L 314.959714 -414.002059 
L 314.044793 -414.002059 
L 313.129872 -414.002059 
L 312.214951 -414.002059 
L 311.300031 -414.002059 
L 310.38511 -414.002059 
L 309.470189 -414.002059 
L 308.555268 -414.002059 
L 307.640348 -414.002059 
L 306.725427 -414.002059 
L 305.810506 -414.002059 
L 304.895585 -414.002059 
L 303.980665 -414.002059 
L 303.065744 -414.002059 
L 302.150823 -414.002059 
L 301.235902 -414.002059 
L 300.320982 -414.002059 
L 299.406061 -414.002059 
L 298.49114 -414.002059 
L 297.576219 -414.002059 
L 296.661299 -414.002059 
L 295.746378 -414.002059 
L 294.831457 -414.002059 
L 293.916536 -414.002059 
L 293.001616 -414.002059 
L 292.086695 -414.002059 
L 291.171774 -414.002059 
L 290.256853 -414.002059 
L 289.341933 -414.002059 
L 288.427012 -414.002059 
L 287.512091 -414.002059 
L 286.59717 -414.002059 
L 285.68225 -414.002059 
L 284.767329 -414.002059 
L 283.852408 -414.002059 
L 282.937487 -414.002059 
L 282.022567 -414.002059 
L 281.107646 -414.002059 
L 280.192725 -414.002059 
L 279.277804 -414.002059 
L 278.362884 -414.002059 
L 277.447963 -414.002059 
L 276.533042 -414.002059 
L 275.618121 -414.002059 
L 274.703201 -414.002059 
L 273.78828 -414.002059 
L 272.873359 -414.002059 
L 271.958438 -414.002059 
L 271.043518 -414.002059 
L 270.128597 -414.002059 
L 269.213676 -414.002059 
L 268.298755 -414.002059 
L 267.383835 -414.002059 
L 266.468914 -414.002059 
L 265.553993 -414.002059 
L 264.639072 -414.002059 
L 263.724152 -414.002059 
L 262.809231 -414.002059 
L 261.89431 -414.002059 
L 260.979389 -414.002059 
L 260.064469 -414.002059 
L 259.149548 -414.002059 
L 258.234627 -414.002059 
L 257.319706 -414.002059 
L 256.404786 -414.002059 
L 255.489865 -414.002059 
L 254.574944 -414.002059 
L 253.660023 -414.002059 
L 252.745103 -414.002059 
L 251.830182 -414.002059 
L 250.915261 -414.002059 
L 250.00034 -414.002059 
L 249.08542 -414.002059 
L 248.170499 -414.002059 
L 247.255578 -414.002059 
L 246.340657 -414.002059 
L 245.425737 -414.002059 
L 244.510816 -414.002059 
L 243.595895 -414.002059 
L 242.680974 -414.002059 
L 241.766054 -414.002059 
L 240.851133 -414.002059 
L 239.936212 -414.002059 
L 239.021291 -414.002059 
L 238.106371 -414.002059 
L 237.19145 -414.002059 
L 236.276529 -414.002059 
L 235.361608 -414.002059 
L 234.446688 -414.002059 
L 233.531767 -414.002059 
L 232.616846 -414.002059 
L 231.701925 -414.002059 
L 230.787005 -414.002059 
L 229.872084 -414.002059 
L 228.957163 -414.002059 
L 228.042242 -414.002059 
L 227.127322 -414.002059 
L 226.212401 -414.002059 
L 225.29748 -414.002059 
L 224.382559 -414.002059 
L 223.467639 -414.002059 
L 222.552718 -414.002059 
L 221.637797 -414.002059 
L 220.722876 -414.002059 
L 219.807956 -414.002059 
L 218.893035 -414.002059 
L 217.978114 -414.002059 
L 217.063193 -414.002059 
L 216.148273 -414.002059 
L 215.233352 -414.002059 
L 214.318431 -414.002059 
L 213.40351 -414.002059 
L 212.48859 -414.002059 
L 211.573669 -414.002059 
L 210.658748 -414.002059 
L 209.743827 -414.002059 
L 208.828907 -414.002059 
L 207.913986 -414.002059 
L 206.999065 -414.002059 
L 206.084144 -414.002059 
L 205.169224 -414.002059 
L 204.254303 -414.002059 
L 203.339382 -414.002059 
L 202.424461 -414.002059 
L 201.509541 -414.002059 
L 200.59462 -414.002059 
L 199.679699 -414.002059 
L 198.764778 -414.002059 
L 197.849858 -414.002059 
L 196.934937 -414.002059 
L 196.020016 -414.002059 
L 195.105095 -414.002059 
L 194.190175 -414.002059 
L 193.275254 -414.002059 
L 192.360333 -414.002059 
L 191.445412 -414.002059 
L 190.530492 -413.93632 
L 189.615571 -414.002059 
L 188.70065 -414.002059 
L 187.785729 -414.002059 
L 186.870809 -414.002059 
L 185.955888 -414.002059 
L 185.040967 -414.002059 
L 184.126046 -414.002059 
L 183.211126 -414.002059 
L 182.296205 -414.002059 
L 181.381284 -414.002059 
L 180.466363 -414.002059 
L 179.551443 -414.002059 
L 178.636522 -414.002059 
L 177.721601 -414.002059 
L 176.80668 -414.002059 
L 175.89176 -414.002059 
L 174.976839 -414.002059 
L 174.061918 -414.002059 
L 173.146997 -414.002059 
L 172.232077 -414.002059 
L 171.317156 -414.002059 
L 170.402235 -414.002059 
L 169.487314 -414.002059 
L 168.572394 -414.002059 
L 167.657473 -414.002059 
L 166.742552 -414.002059 
L 165.827631 -414.002059 
L 164.912711 -414.002059 
L 163.99779 -414.002059 
L 163.082869 -414.002059 
L 162.167948 -414.002059 
L 161.253028 -414.002059 
L 160.338107 -414.002059 
L 159.423186 -414.002059 
L 158.508265 -414.002059 
L 157.593345 -414.002059 
L 156.678424 -414.002059 
L 155.763503 -414.002059 
L 154.848582 -414.002059 
L 153.933662 -414.002059 
L 153.018741 -414.002059 
L 152.10382 -414.002059 
L 151.188899 -414.002059 
L 150.273979 -414.002059 
L 149.359058 -414.002059 
L 148.444137 -414.002059 
L 147.529216 -414.002059 
L 146.614296 -414.002059 
L 145.699375 -414.002059 
L 144.784454 -414.002059 
L 143.869533 -414.002059 
L 142.954613 -414.002059 
L 142.039692 -414.002059 
L 141.124771 -414.002059 
L 140.20985 -414.002059 
L 139.29493 -414.002059 
L 138.380009 -414.002059 
L 137.465088 -414.002059 
L 136.550167 -414.002059 
L 135.635247 -414.002059 
L 134.720326 -414.002059 
L 133.805405 -414.002059 
L 132.890484 -414.002059 
L 131.975564 -414.002059 
L 131.060643 -414.002059 
L 130.145722 -414.002059 
L 129.230801 -414.002059 
L 128.315881 -414.002059 
L 127.40096 -414.002059 
L 126.486039 -414.002059 
L 125.571118 -414.002059 
L 124.656198 -414.002059 
L 123.741277 -414.002059 
L 122.826356 -414.002059 
L 121.911435 -414.002059 
L 120.996515 -414.002059 
L 120.081594 -414.002059 
L 119.166673 -414.002059 
L 118.251752 -414.002059 
L 117.336832 -414.002059 
L 116.421911 -414.002059 
L 115.50699 -414.002059 
L 114.592069 -414.002059 
L 113.677149 -414.002059 
L 112.762228 -414.002059 
L 111.847307 -414.002059 
L 110.932386 -414.002059 
L 110.017465 -414.002059 
L 109.102545 -414.002059 
L 108.187624 -414.002059 
L 107.272703 -414.002059 
L 106.357782 -414.002059 
L 105.442862 -414.002059 
L 104.527941 -414.002059 
L 103.61302 -414.002059 
L 102.698099 -414.002059 
L 101.783179 -414.002059 
L 100.868258 -414.002059 
L 99.953337 -414.002059 
L 99.038416 -405.281389 
L 98.123496 -414.002059 
L 97.208575 -414.002059 
L 96.293654 -414.002059 
L 95.378733 -414.002059 
L 94.463813 -414.002059 
L 93.548892 -414.002059 
L 92.633971 -414.002059 
L 91.71905 -414.002059 
L 90.80413 -414.002059 
L 89.889209 -414.002059 
L 88.974288 -414.002059 
L 88.059367 -414.002059 
L 87.144447 -414.002059 
L 86.229526 -414.002059 
L 85.314605 -414.002059 
L 84.399684 -414.002059 
L 83.484764 -414.002059 
L 82.569843 -414.002059 
L 81.654922 -414.002059 
L 80.740001 -414.002059 
L 79.825081 -414.002059 
L 78.91016 -414.002059 
L 77.995239 -414.002059 
L 77.080318 -414.002059 
L 76.165398 -414.002059 
z
" style="stroke: #4c78a8; stroke-opacity: 0.18"/>
    </defs>
    <g clip-path="url(#p9963ff60e6)">
     <use xlink:href="#mb4049f924e" x="0" y="505.331875" style="fill: #4c78a8; fill-opacity: 0.18; stroke: #4c78a8; stroke-opacity: 0.18"/>
    </g>
   </g>
   <g id="PathCollection_1">
    <defs>
     <path id="m7d0e394bee" d="M 0 3.872983 
C 1.027127 3.872983 2.012324 3.464901 2.738613 2.738613 
C 3.464901 2.012324 3.872983 1.027127 3.872983 0 
C 3.872983 -1.027127 3.464901 -2.012324 2.738613 -2.738613 
C 2.012324 -3.464901 1.027127 -3.872983 0 -3.872983 
C -1.027127 -3.872983 -2.012324 -3.464901 -2.738613 -2.738613 
C -3.464901 -2.012324 -3.872983 -1.027127 -3.872983 0 
C -3.872983 1.027127 -3.464901 2.012324 -2.738613 2.738613 
C -2.012324 3.464901 -1.027127 3.872983 0 3.872983 
z
" style="stroke: #333333"/>
    </defs>
    <g clip-path="url(#p9963ff60e6)">
     <use xlink:href="#m7d0e394bee" x="98.99267" y="143.50398" style="fill: #e45756; stroke: #333333"/>
     <use xlink:href="#m7d0e394bee" x="190.301761" y="211.381595" style="fill: #e45756; stroke: #333333"/>
     <use xlink:href="#m7d0e394bee" x="290.741761" y="109.68795" style="fill: #e45756; stroke: #333333"/>
     <use xlink:href="#m7d0e394bee" x="418.574489" y="183.018018" style="fill: #e45756; stroke: #333333"/>
     <use xlink:href="#m7d0e394bee" x="500.75267" y="133.590415" style="fill: #e45756; stroke: #333333"/>
    </g>
   </g>
   <g id="matplotlib.axis_1">
    <g id="xtick_1">
     <g id="line2d_1">
      <defs>
       <path id="mc86b0686a7" d="M 0 0 
L 0 3.5 
" style="stroke: #000000; stroke-width: 0.8"/>
      </defs>
      <g>
       <use xlink:href="#mc86b0686a7" x="76.165398" y="254.16" style="stroke: #000000; stroke-width: 0.8"/>
      </g>
     </g>
    </g>
    <g id="xtick_2">
     <g id="line2d_2">
      <g>
       <use xlink:href="#mc86b0686a7" x="167.474489" y="254.16" style="stroke: #000000; stroke-width: 0.8"/>
      </g>
     </g>
    </g>
    <g id="xtick_3">
     <g id="line2d_3">
      <g>
       <use xlink:href="#mc86b0686a7" x="258.78358" y="254.16" style="stroke: #000000; stroke-width: 0.8"/>
      </g>
     </g>
    </g>
    <g id="xtick_4">
     <g id="line2d_4">
      <g>
       <use xlink:href="#mc86b0686a7" x="350.09267" y="254.16" style="stroke: #000000; stroke-width: 0.8"/>
      </g>
     </g>
    </g>
    <g id="xtick_5">
     <g id="line2d_5">
      <g>
       <use xlink:href="#mc86b0686a7" x="441.401761" y="254.16" style="stroke: #000000; stroke-width: 0.8"/>
      </g>
     </g>
    </g>
    <g id="xtick_6">
     <g id="line2d_6">
      <g>
       <use xlink:href="#mc86b0686a7" x="532.710852" y="254.16" style="stroke: #000000; stroke-width: 0.8"/>
      </g>
     </g>
    </g>
   </g>
   <g id="matplotlib.axis_2">
    <g id="ytick_1">
     <g id="line2d_7">
      <defs>
       <path id="m7d530cc068" d="M 0 0 
L -3.5 0 
" style="stroke: #000000; stroke-width: 0.8"/>
      </defs>
      <g>
       <use xlink:href="#m7d530cc068" x="53.338125" y="247.653763" style="stroke: #000000; stroke-width: 0.8"/>
      </g>
     </g>
     <g id="text_1">
      <!-- −2 -->
      <g transform="translate(30.121719 251.832903) scale(0.11 -0.11)">
       <defs>
        <path id="DejaVuSans-2212" d="M 678 2272 
L 4684 2272 
L 4684 1741 
L 678 1741 
L 678 2272 
z
" transform="scale(0.015625)"/>
        <path id="DejaVuSans-32" d="M 1228 531 
L 3431 531 
L 3431 0 
L 469 0 
L 469 531 
Q 828 903 1448 1529 
Q 2069 2156 2228 2338 
Q 2531 2678 2651 2914 
Q 2772 3150 2772 3378 
Q 2772 3750 2511 3984 
Q 2250 4219 1831 4219 
Q 1534 4219 1204 4116 
Q 875 4013 500 3803 
L 500 4441 
Q 881 4594 1212 4672 
Q 1544 4750 1819 4750 
Q 2544 4750 2975 4387 
Q 3406 4025 3406 3419 
Q 3406 3131 3298 2873 
Q 3191 2616 2906 2266 
Q 2828 2175 2409 1742 
Q 1991 1309 1228 531 
z
" transform="scale(0.015625)"/>
       </defs>
       <use xlink:href="#DejaVuSans-2212"/>
       <use xlink:href="#DejaVuSans-32" transform="translate(83.789062 0)"/>
      </g>
     </g>
    </g>
    <g id="ytick_2">
     <g id="line2d_8">
      <g>
       <use xlink:href="#m7d530cc068" x="53.338125" y="208.178401" style="stroke: #000000; stroke-width: 0.8"/>
      </g>
     </g>
     <g id="text_2">
      <!-- −1 -->
      <g transform="translate(30.121719 212.357542) scale(0.11 -0.11)">
       <defs>
        <path id="DejaVuSans-31" d="M 794 531 
L 1825 531 
L 1825 4091 
L 703 3866 
L 703 4441 
L 1819 4666 
L 2450 4666 
L 2450 531 
L 3481 531 
L 3481 0 
L 794 0 
L 794 531 
z
" transform="scale(0.015625)"/>
       </defs>
       <use xlink:href="#DejaVuSans-2212"/>
       <use xlink:href="#DejaVuSans-31" transform="translate(83.789062 0)"/>
      </g>
     </g>
    </g>
    <g id="ytick_3">
     <g id="line2d_9">
      <g>
       <use xlink:href="#m7d530cc068" x="53.338125" y="168.703039" style="stroke: #000000; stroke-width: 0.8"/>
      </g>
     </g>
     <g id="text_3">
      <!-- 0 -->
      <g transform="translate(39.339375 172.88218) scale(0.11 -0.11)">
       <defs>
        <path id="DejaVuSans-30" d="M 2034 4250 
Q 1547 4250 1301 3770 
Q 1056 3291 1056 2328 
Q 1056 1369 1301 889 
Q 1547 409 2034 409 
Q 2525 409 2770 889 
Q 3016 1369 3016 2328 
Q 3016 3291 2770 3770 
Q 2525 4250 2034 4250 
z
M 2034 4750 
Q 2819 4750 3233 4129 
Q 3647 3509 3647 2328 
Q 3647 1150 3233 529 
Q 2819 -91 2034 -91 
Q 1250 -91 836 529 
Q 422 1150 422 2328 
Q 422 3509 836 4129 
Q 1250 4750 2034 4750 
z
" transform="scale(0.015625)"/>
       </defs>
       <use xlink:href="#DejaVuSans-30"/>
      </g>
     </g>
    </g>
    <g id="ytick_4">
     <g id="line2d_10">
      <g>
       <use xlink:href="#m7d530cc068" x="53.338125" y="129.227677" style="stroke: #000000; stroke-width: 0.8"/>
      </g>
     </g>
     <g id="text_4">
      <!-- 1 -->
      <g transform="translate(39.339375 133.406818) scale(0.11 -0.11)">
       <use xlink:href="#DejaVuSans-31"/>
      </g>
     </g>
    </g>
    <g id="ytick_5">
     <g id="line2d_11">
      <g>
       <use xlink:href="#m7d530cc068" x="53.338125" y="89.752315" style="stroke: #000000; stroke-width: 0.8"/>
      </g>
     </g>
     <g id="text_5">
      <!-- 2 -->
      <g transform="translate(39.339375 93.931456) scale(0.11 -0.11)">
       <use xlink:href="#DejaVuSans-32"/>
      </g>
     </g>
    </g>
    <g id="text_6">
     <!-- Validation score -->
     <g transform="translate(23.834063 209.64375) rotate(-90) scale(0.11 -0.11)">
      <defs>
       <path id="DejaVuSans-56" d="M 1831 0 
L 50 4666 
L 709 4666 
L 2188 738 
L 3669 4666 
L 4325 4666 
L 2547 0 
L 1831 0 
z
" transform="scale(0.015625)"/>
       <path id="DejaVuSans-61" d="M 2194 1759 
Q 1497 1759 1228 1600 
Q 959 1441 959 1056 
Q 959 750 1161 570 
Q 1363 391 1709 391 
Q 2188 391 2477 730 
Q 2766 1069 2766 1631 
L 2766 1759 
L 2194 1759 
z
M 3341 1997 
L 3341 0 
L 2766 0 
L 2766 531 
Q 2569 213 2275 61 
Q 1981 -91 1556 -91 
Q 1019 -91 701 211 
Q 384 513 384 1019 
Q 384 1609 779 1909 
Q 1175 2209 1959 2209 
L 2766 2209 
L 2766 2266 
Q 2766 2663 2505 2880 
Q 2244 3097 1772 3097 
Q 1472 3097 1187 3025 
Q 903 2953 641 2809 
L 641 3341 
Q 956 3463 1253 3523 
Q 1550 3584 1831 3584 
Q 2591 3584 2966 3190 
Q 3341 2797 3341 1997 
z
" transform="scale(0.015625)"/>
       <path id="DejaVuSans-6c" d="M 603 4863 
L 1178 4863 
L 1178 0 
L 603 0 
L 603 4863 
z
" transform="scale(0.015625)"/>
       <path id="DejaVuSans-69" d="M 603 3500 
L 1178 3500 
L 1178 0 
L 603 0 
L 603 3500 
z
M 603 4863 
L 1178 4863 
L 1178 4134 
L 603 4134 
L 603 4863 
z
" transform="scale(0.015625)"/>
       <path id="DejaVuSans-64" d="M 2906 2969 
L 2906 4863 
L 3481 4863 
L 3481 0 
L 2906 0 
L 2906 525 
Q 2725 213 2448 61 
Q 2172 -91 1784 -91 
Q 1150 -91 751 415 
Q 353 922 353 1747 
Q 353 2572 751 3078 
Q 1150 3584 1784 3584 
Q 2172 3584 2448 3432 
Q 2725 3281 2906 2969 
z
M 947 1747 
Q 947 1113 1208 752 
Q 1469 391 1925 391 
Q 2381 391 2643 752 
Q 2906 1113 2906 1747 
Q 2906 2381 2643 2742 
Q 2381 3103 1925 3103 
Q 1469 3103 1208 2742 
Q 947 2381 947 1747 
z
" transform="scale(0.015625)"/>
       <path id="DejaVuSans-74" d="M 1172 4494 
L 1172 3500 
L 2356 3500 
L 2356 3053 
L 1172 3053 
L 1172 1153 
Q 1172 725 1289 603 
Q 1406 481 1766 481 
L 2356 481 
L 2356 0 
L 1766 0 
Q 1100 0 847 248 
Q 594 497 594 1153 
L 594 3053 
L 172 3053 
L 172 3500 
L 594 3500 
L 594 4494 
L 1172 4494 
z
" transform="scale(0.015625)"/>
       <path id="DejaVuSans-6f" d="M 1959 3097 
Q 1497 3097 1228 2736 
Q 959 2375 959 1747 
Q 959 1119 1226 758 
Q 1494 397 1959 397 
Q 2419 397 2687 759 
Q 2956 1122 2956 1747 
Q 2956 2369 2687 2733 
Q 2419 3097 1959 3097 
z
M 1959 3584 
Q 2709 3584 3137 3096 
Q 3566 2609 3566 1747 
Q 3566 888 3137 398 
Q 2709 -91 1959 -91 
Q 1206 -91 779 398 
Q 353 888 353 1747 
Q 353 2609 779 3096 
Q 1206 3584 1959 3584 
z
" transform="scale(0.015625)"/>
       <path id="DejaVuSans-6e" d="M 3513 2113 
L 3513 0 
L 2938 0 
L 2938 2094 
Q 2938 2591 2744 2837 
Q 2550 3084 2163 3084 
Q 1697 3084 1428 2787 
Q 1159 2491 1159 1978 
L 1159 0 
L 581 0 
L 581 3500 
L 1159 3500 
L 1159 2956 
Q 1366 3272 1645 3428 
Q 1925 3584 2291 3584 
Q 2894 3584 3203 3211 
Q 3513 2838 3513 2113 
z
" transform="scale(0.015625)"/>
       <path id="DejaVuSans-20" transform="scale(0.015625)"/>
       <path id="DejaVuSans-73" d="M 2834 3397 
L 2834 2853 
Q 2591 2978 2328 3040 
Q 2066 3103 1784 3103 
Q 1356 3103 1142 2972 
Q 928 2841 928 2578 
Q 928 2378 1081 2264 
Q 1234 2150 1697 2047 
L 1894 2003 
Q 2506 1872 2764 1633 
Q 3022 1394 3022 966 
Q 3022 478 2636 193 
Q 2250 -91 1575 -91 
Q 1294 -91 989 -36 
Q 684 19 347 128 
L 347 722 
Q 666 556 975 473 
Q 1284 391 1588 391 
Q 1994 391 2212 530 
Q 2431 669 2431 922 
Q 2431 1156 2273 1281 
Q 2116 1406 1581 1522 
L 1381 1569 
Q 847 1681 609 1914 
Q 372 2147 372 2553 
Q 372 3047 722 3315 
Q 1072 3584 1716 3584 
Q 2034 3584 2315 3537 
Q 2597 3491 2834 3397 
z
" transform="scale(0.015625)"/>
       <path id="DejaVuSans-63" d="M 3122 3366 
L 3122 2828 
Q 2878 2963 2633 3030 
Q 2388 3097 2138 3097 
Q 1578 3097 1268 2742 
Q 959 2388 959 1747 
Q 959 1106 1268 751 
Q 1578 397 2138 397 
Q 2388 397 2633 464 
Q 2878 531 3122 666 
L 3122 134 
Q 2881 22 2623 -34 
Q 2366 -91 2075 -91 
Q 1284 -91 818 406 
Q 353 903 353 1747 
Q 353 2603 823 3093 
Q 1294 3584 2113 3584 
Q 2378 3584 2631 3529 
Q 2884 3475 3122 3366 
z
" transform="scale(0.015625)"/>
       <path id="DejaVuSans-72" d="M 2631 2963 
Q 2534 3019 2420 3045 
Q 2306 3072 2169 3072 
Q 1681 3072 1420 2755 
Q 1159 2438 1159 1844 
L 1159 0 
L 581 0 
L 581 3500 
L 1159 3500 
L 1159 2956 
Q 1341 3275 1631 3429 
Q 1922 3584 2338 3584 
Q 2397 3584 2469 3576 
Q 2541 3569 2628 3553 
L 2631 2963 
z
" transform="scale(0.015625)"/>
       <path id="DejaVuSans-65" d="M 3597 1894 
L 3597 1613 
L 953 1613 
Q 991 1019 1311 708 
Q 1631 397 2203 397 
Q 2534 397 2845 478 
Q 3156 559 3463 722 
L 3463 178 
Q 3153 47 2828 -22 
Q 2503 -91 2169 -91 
Q 1331 -91 842 396 
Q 353 884 353 1716 
Q 353 2575 817 3079 
Q 1281 3584 2069 3584 
Q 2775 3584 3186 3129 
Q 3597 2675 3597 1894 
z
M 3022 2063 
Q 3016 2534 2758 2815 
Q 2500 3097 2075 3097 
Q 1594 3097 1305 2825 
Q 1016 2553 972 2059 
L 3022 2063 
z
" transform="scale(0.015625)"/>
      </defs>
      <use xlink:href="#DejaVuSans-56"/>
      <use xlink:href="#DejaVuSans-61" transform="translate(60.658203 0)"/>
      <use xlink:href="#DejaVuSans-6c" transform="translate(121.9375 0)"/>
      <use xlink:href="#DejaVuSans-69" transform="translate(149.720703 0)"/>
      <use xlink:href="#DejaVuSans-64" transform="translate(177.503906 0)"/>
      <use xlink:href="#DejaVuSans-61" transform="translate(240.980469 0)"/>
      <use xlink:href="#DejaVuSans-74" transform="translate(302.259766 0)"/>
      <use xlink:href="#DejaVuSans-69" transform="translate(341.46875 0)"/>
      <use xlink:href="#DejaVuSans-6f" transform="translate(369.251953 0)"/>
      <use xlink:href="#DejaVuSans-6e" transform="translate(430.433594 0)"/>
      <use xlink:href="#DejaVuSans-20" transform="translate(493.8125 0)"/>
      <use xlink:href="#DejaVuSans-73" transform="translate(525.599609 0)"/>
      <use xlink:href="#DejaVuSans-63" transform="translate(577.699219 0)"/>
      <use xlink:href="#DejaVuSans-6f" transform="translate(632.679688 0)"/>
      <use xlink:href="#DejaVuSans-72" transform="translate(693.861328 0)"/>
      <use xlink:href="#DejaVuSans-65" transform="translate(732.724609 0)"/>
     </g>
    </g>
   </g>
   <g id="line2d_12">
    <path d="M 76.165398 150.939126 
L 77.995239 148.49098 
L 79.825081 146.449254 
L 81.654922 144.810862 
L 83.484764 143.564003 
L 85.314605 142.688622 
L 87.144447 142.157047 
L 88.974288 141.934796 
L 90.80413 141.981536 
L 92.633971 142.252167 
L 95.378733 142.970753 
L 99.953337 144.573098 
L 103.61302 145.762738 
L 106.357782 146.360511 
L 108.187624 146.547917 
L 110.017465 146.532248 
L 111.847307 146.292304 
L 113.677149 145.814715 
L 115.50699 145.094308 
L 117.336832 144.134282 
L 119.166673 142.946174 
L 120.996515 141.549632 
L 123.741277 139.125752 
L 127.40096 135.476636 
L 132.890484 129.876997 
L 135.635247 127.41274 
L 137.465088 126.021051 
L 139.29493 124.892343 
L 141.124771 124.076107 
L 142.954613 123.617182 
L 144.784454 123.554633 
L 146.614296 123.920731 
L 148.444137 124.740096 
L 150.273979 126.028989 
L 152.10382 127.794796 
L 153.933662 130.0357 
L 155.763503 132.740553 
L 157.593345 135.888955 
L 159.423186 139.451538 
L 161.253028 143.390444 
L 163.99779 149.902547 
L 167.657473 159.420402 
L 177.721601 186.448586 
L 180.466363 192.959687 
L 182.296205 196.885029 
L 184.126046 200.417283 
L 185.955888 203.51238 
L 187.785729 206.134317 
L 189.615571 208.255817 
L 191.445412 209.858803 
L 193.275254 210.934674 
L 194.190175 211.274865 
L 195.105095 211.484373 
L 196.020016 211.564783 
L 196.934937 211.51825 
L 197.849858 211.347485 
L 198.764778 211.055729 
L 200.59462 210.12477 
L 202.424461 208.761158 
L 204.254303 207.007626 
L 206.084144 204.912828 
L 207.913986 202.530198 
L 210.658748 198.541829 
L 214.318431 192.763229 
L 219.807956 184.058064 
L 222.552718 180.073652 
L 225.29748 176.525742 
L 227.127322 174.453984 
L 228.957163 172.641314 
L 230.787005 171.099186 
L 232.616846 169.830557 
L 234.446688 168.829942 
L 236.276529 168.083668 
L 238.106371 167.570315 
L 239.936212 167.261351 
L 242.680974 167.103403 
L 246.340657 167.240865 
L 250.915261 167.435005 
L 253.660023 167.266264 
L 255.489865 166.936351 
L 257.319706 166.383058 
L 259.149548 165.569546 
L 260.979389 164.46504 
L 262.809231 163.045712 
L 264.639072 161.295411 
L 266.468914 159.20621 
L 268.298755 156.77877 
L 270.128597 154.022508 
L 271.958438 150.955553 
L 274.703201 145.832997 
L 277.447963 140.196214 
L 282.022567 130.102589 
L 287.512091 117.966863 
L 290.256853 112.392285 
L 293.001616 107.43164 
L 294.831457 104.563015 
L 296.661299 102.106261 
L 298.49114 100.106727 
L 300.320982 98.602421 
L 301.235902 98.045639 
L 302.150823 97.623172 
L 303.065744 97.33736 
L 303.980665 97.18996 
L 304.895585 97.182133 
L 305.810506 97.314439 
L 306.725427 97.586831 
L 307.640348 97.998656 
L 308.555268 98.548656 
L 310.38511 100.055162 
L 312.214951 102.08449 
L 314.044793 104.605796 
L 315.874634 107.579879 
L 317.704476 110.959979 
L 320.449238 116.673148 
L 323.194 122.976487 
L 327.768604 134.190856 
L 332.343208 145.37927 
L 335.08797 151.665403 
L 337.832732 157.403111 
L 339.662574 160.848175 
L 341.492415 163.947392 
L 343.322257 166.674285 
L 345.152098 169.011153 
L 346.98194 170.949271 
L 348.811781 172.488902 
L 350.641623 173.639093 
L 352.471464 174.417286 
L 354.301306 174.84873 
L 356.131147 174.965728 
L 357.960989 174.806726 
L 359.79083 174.415262 
L 362.535593 173.496827 
L 366.195276 171.920768 
L 370.769879 169.959279 
L 373.514642 169.069116 
L 375.344483 168.677996 
L 377.174325 168.484947 
L 379.004166 168.513134 
L 380.834008 168.778037 
L 382.663849 169.287019 
L 384.493691 170.039101 
L 386.323532 171.024925 
L 388.153374 172.226925 
L 390.898136 174.377662 
L 393.642898 176.840188 
L 401.877185 184.524728 
L 403.707026 185.9487 
L 405.536868 187.149301 
L 407.366709 188.073782 
L 409.196551 188.673067 
L 411.026392 188.90296 
L 412.856234 188.725262 
L 414.686075 188.108753 
L 416.515917 187.030033 
L 418.345758 185.47419 
L 420.1756 183.435284 
L 422.005441 180.916646 
L 423.835283 177.930958 
L 425.665124 174.500146 
L 427.494966 170.655054 
L 430.239728 164.198634 
L 432.98449 157.064268 
L 436.644173 146.839527 
L 444.87846 123.48016 
L 447.623222 116.410922 
L 450.367985 110.056407 
L 452.197826 106.304909 
L 454.027668 102.9924 
L 455.857509 100.153578 
L 457.687351 97.814332 
L 459.517192 95.991305 
L 461.347034 94.691658 
L 462.261954 94.237733 
L 463.176875 93.913031 
L 464.091796 93.7158 
L 465.006717 93.643723 
L 465.921637 93.693939 
L 466.836558 93.863059 
L 468.6664 94.541958 
L 470.496241 95.643678 
L 472.326083 97.124718 
L 474.155924 98.935867 
L 475.985766 101.023368 
L 478.730528 104.547408 
L 483.305132 110.974351 
L 487.879735 117.315368 
L 490.624498 120.747731 
L 493.36926 123.735241 
L 495.199101 125.43176 
L 497.028943 126.870091 
L 498.858785 128.040711 
L 500.688626 128.942582 
L 502.518468 129.583058 
L 504.348309 129.977595 
L 506.178151 130.14927 
L 508.007992 130.128117 
L 510.752754 129.815378 
L 514.412437 129.101192 
L 518.07212 128.400295 
L 520.816883 128.122922 
L 522.646724 128.14611 
L 524.476566 128.386794 
L 526.306407 128.883516 
L 528.136249 129.669036 
L 529.96609 130.769399 
L 531.795932 132.20316 
L 532.710852 133.04866 
L 532.710852 133.04866 
" clip-path="url(#p9963ff60e6)" style="fill: none; stroke: #333333; stroke-width: 1.5; stroke-linecap: square"/>
   </g>
   <g id="line2d_13">
    <path d="M 76.165398 168.703039 
L 98.123496 168.703039 
L 99.038416 149.256227 
L 99.953337 168.703039 
L 499.773705 168.703039 
L 500.688626 147.572566 
L 501.603547 168.703039 
L 532.710852 168.703039 
L 532.710852 168.703039 
" clip-path="url(#p9963ff60e6)" style="fill: none; stroke: #4c78a8; stroke-width: 2; stroke-linecap: square"/>
   </g>
   <g id="line2d_14">
    <path d="M 500.688626 254.16 
L 500.688626 77.76 
" clip-path="url(#p9963ff60e6)" style="fill: none; stroke-dasharray: 5.55,2.4; stroke-dashoffset: 0; stroke: #222222; stroke-width: 1.5"/>
   </g>
   <g id="patch_3">
    <path d="M 53.338125 254.16 
L 53.338125 77.76 
" style="fill: none; stroke: #000000; stroke-width: 0.8; stroke-linejoin: miter; stroke-linecap: square"/>
   </g>
   <g id="patch_4">
    <path d="M 53.338125 254.16 
L 555.538125 254.16 
" style="fill: none; stroke: #000000; stroke-width: 0.8; stroke-linejoin: miter; stroke-linecap: square"/>
   </g>
   <g id="text_7">
    <!-- Gaussian Process Surrogate -->
    <g transform="translate(213.867734 71.76) scale(0.13 -0.13)">
     <defs>
      <path id="DejaVuSans-47" d="M 3809 666 
L 3809 1919 
L 2778 1919 
L 2778 2438 
L 4434 2438 
L 4434 434 
Q 4069 175 3628 42 
Q 3188 -91 2688 -91 
Q 1594 -91 976 548 
Q 359 1188 359 2328 
Q 359 3472 976 4111 
Q 1594 4750 2688 4750 
Q 3144 4750 3555 4637 
Q 3966 4525 4313 4306 
L 4313 3634 
Q 3963 3931 3569 4081 
Q 3175 4231 2741 4231 
Q 1884 4231 1454 3753 
Q 1025 3275 1025 2328 
Q 1025 1384 1454 906 
Q 1884 428 2741 428 
Q 3075 428 3337 486 
Q 3600 544 3809 666 
z
" transform="scale(0.015625)"/>
      <path id="DejaVuSans-75" d="M 544 1381 
L 544 3500 
L 1119 3500 
L 1119 1403 
Q 1119 906 1312 657 
Q 1506 409 1894 409 
Q 2359 409 2629 706 
Q 2900 1003 2900 1516 
L 2900 3500 
L 3475 3500 
L 3475 0 
L 2900 0 
L 2900 538 
Q 2691 219 2414 64 
Q 2138 -91 1772 -91 
Q 1169 -91 856 284 
Q 544 659 544 1381 
z
M 1991 3584 
L 1991 3584 
z
" transform="scale(0.015625)"/>
      <path id="DejaVuSans-50" d="M 1259 4147 
L 1259 2394 
L 2053 2394 
Q 2494 2394 2734 2622 
Q 2975 2850 2975 3272 
Q 2975 3691 2734 3919 
Q 2494 4147 2053 4147 
L 1259 4147 
z
M 628 4666 
L 2053 4666 
Q 2838 4666 3239 4311 
Q 3641 3956 3641 3272 
Q 3641 2581 3239 2228 
Q 2838 1875 2053 1875 
L 1259 1875 
L 1259 0 
L 628 0 
L 628 4666 
z
" transform="scale(0.015625)"/>
      <path id="DejaVuSans-53" d="M 3425 4513 
L 3425 3897 
Q 3066 4069 2747 4153 
Q 2428 4238 2131 4238 
Q 1616 4238 1336 4038 
Q 1056 3838 1056 3469 
Q 1056 3159 1242 3001 
Q 1428 2844 1947 2747 
L 2328 2669 
Q 3034 2534 3370 2195 
Q 3706 1856 3706 1288 
Q 3706 609 3251 259 
Q 2797 -91 1919 -91 
Q 1588 -91 1214 -16 
Q 841 59 441 206 
L 441 856 
Q 825 641 1194 531 
Q 1563 422 1919 422 
Q 2459 422 2753 634 
Q 3047 847 3047 1241 
Q 3047 1584 2836 1778 
Q 2625 1972 2144 2069 
L 1759 2144 
Q 1053 2284 737 2584 
Q 422 2884 422 3419 
Q 422 4038 858 4394 
Q 1294 4750 2059 4750 
Q 2388 4750 2728 4690 
Q 3069 4631 3425 4513 
z
" transform="scale(0.015625)"/>
      <path id="DejaVuSans-67" d="M 2906 1791 
Q 2906 2416 2648 2759 
Q 2391 3103 1925 3103 
Q 1463 3103 1205 2759 
Q 947 2416 947 1791 
Q 947 1169 1205 825 
Q 1463 481 1925 481 
Q 2391 481 2648 825 
Q 2906 1169 2906 1791 
z
M 3481 434 
Q 3481 -459 3084 -895 
Q 2688 -1331 1869 -1331 
Q 1566 -1331 1297 -1286 
Q 1028 -1241 775 -1147 
L 775 -588 
Q 1028 -725 1275 -790 
Q 1522 -856 1778 -856 
Q 2344 -856 2625 -561 
Q 2906 -266 2906 331 
L 2906 616 
Q 2728 306 2450 153 
Q 2172 0 1784 0 
Q 1141 0 747 490 
Q 353 981 353 1791 
Q 353 2603 747 3093 
Q 1141 3584 1784 3584 
Q 2172 3584 2450 3431 
Q 2728 3278 2906 2969 
L 2906 3500 
L 3481 3500 
L 3481 434 
z
" transform="scale(0.015625)"/>
     </defs>
     <use xlink:href="#DejaVuSans-47"/>
     <use xlink:href="#DejaVuSans-61" transform="translate(77.490234 0)"/>
     <use xlink:href="#DejaVuSans-75" transform="translate(138.769531 0)"/>
     <use xlink:href="#DejaVuSans-73" transform="translate(202.148438 0)"/>
     <use xlink:href="#DejaVuSans-73" transform="translate(254.248047 0)"/>
     <use xlink:href="#DejaVuSans-69" transform="translate(306.347656 0)"/>
     <use xlink:href="#DejaVuSans-61" transform="translate(334.130859 0)"/>
     <use xlink:href="#DejaVuSans-6e" transform="translate(395.410156 0)"/>
     <use xlink:href="#DejaVuSans-20" transform="translate(458.789062 0)"/>
     <use xlink:href="#DejaVuSans-50" transform="translate(490.576172 0)"/>
     <use xlink:href="#DejaVuSans-72" transform="translate(549.128906 0)"/>
     <use xlink:href="#DejaVuSans-6f" transform="translate(587.992188 0)"/>
     <use xlink:href="#DejaVuSans-63" transform="translate(649.173828 0)"/>
     <use xlink:href="#DejaVuSans-65" transform="translate(704.154297 0)"/>
     <use xlink:href="#DejaVuSans-73" transform="translate(765.677734 0)"/>
     <use xlink:href="#DejaVuSans-73" transform="translate(817.777344 0)"/>
     <use xlink:href="#DejaVuSans-20" transform="translate(869.876953 0)"/>
     <use xlink:href="#DejaVuSans-53" transform="translate(901.664062 0)"/>
     <use xlink:href="#DejaVuSans-75" transform="translate(965.140625 0)"/>
     <use xlink:href="#DejaVuSans-72" transform="translate(1028.519531 0)"/>
     <use xlink:href="#DejaVuSans-72" transform="translate(1067.882812 0)"/>
     <use xlink:href="#DejaVuSans-6f" transform="translate(1106.746094 0)"/>
     <use xlink:href="#DejaVuSans-67" transform="translate(1167.927734 0)"/>
     <use xlink:href="#DejaVuSans-61" transform="translate(1231.404297 0)"/>
     <use xlink:href="#DejaVuSans-74" transform="translate(1292.683594 0)"/>
     <use xlink:href="#DejaVuSans-65" transform="translate(1331.892578 0)"/>
    </g>
   </g>
   <g id="legend_1">
    <g id="patch_5">
     <path d="M 422.248125 137.80125 
L 549.238125 137.80125 
Q 551.038125 137.80125 551.038125 136.00125 
L 551.038125 84.06 
Q 551.038125 82.26 549.238125 82.26 
L 422.248125 82.26 
Q 420.448125 82.26 420.448125 84.06 
L 420.448125 136.00125 
Q 420.448125 137.80125 422.248125 137.80125 
z
" style="fill: #ffffff; opacity: 0.8; stroke: #cccccc; stroke-linejoin: miter"/>
    </g>
    <g id="line2d_15">
     <path d="M 424.048125 89.548594 
L 433.048125 89.548594 
L 442.048125 89.548594 
" style="fill: none; stroke: #333333; stroke-width: 1.5; stroke-linecap: square"/>
    </g>
    <g id="text_8">
     <!-- True objective -->
     <g transform="translate(449.248125 92.698594) scale(0.09 -0.09)">
      <defs>
       <path id="DejaVuSans-54" d="M -19 4666 
L 3928 4666 
L 3928 4134 
L 2272 4134 
L 2272 0 
L 1638 0 
L 1638 4134 
L -19 4134 
L -19 4666 
z
" transform="scale(0.015625)"/>
       <path id="DejaVuSans-62" d="M 3116 1747 
Q 3116 2381 2855 2742 
Q 2594 3103 2138 3103 
Q 1681 3103 1420 2742 
Q 1159 2381 1159 1747 
Q 1159 1113 1420 752 
Q 1681 391 2138 391 
Q 2594 391 2855 752 
Q 3116 1113 3116 1747 
z
M 1159 2969 
Q 1341 3281 1617 3432 
Q 1894 3584 2278 3584 
Q 2916 3584 3314 3078 
Q 3713 2572 3713 1747 
Q 3713 922 3314 415 
Q 2916 -91 2278 -91 
Q 1894 -91 1617 61 
Q 1341 213 1159 525 
L 1159 0 
L 581 0 
L 581 4863 
L 1159 4863 
L 1159 2969 
z
" transform="scale(0.015625)"/>
       <path id="DejaVuSans-6a" d="M 603 3500 
L 1178 3500 
L 1178 -63 
Q 1178 -731 923 -1031 
Q 669 -1331 103 -1331 
L -116 -1331 
L -116 -844 
L 38 -844 
Q 366 -844 484 -692 
Q 603 -541 603 -63 
L 603 3500 
z
M 603 4863 
L 1178 4863 
L 1178 4134 
L 603 4134 
L 603 4863 
z
" transform="scale(0.015625)"/>
       <path id="DejaVuSans-76" d="M 191 3500 
L 800 3500 
L 1894 563 
L 2988 3500 
L 3597 3500 
L 2284 0 
L 1503 0 
L 191 3500 
z
" transform="scale(0.015625)"/>
      </defs>
      <use xlink:href="#DejaVuSans-54"/>
      <use xlink:href="#DejaVuSans-72" transform="translate(46.333984 0)"/>
      <use xlink:href="#DejaVuSans-75" transform="translate(87.447266 0)"/>
      <use xlink:href="#DejaVuSans-65" transform="translate(150.826172 0)"/>
      <use xlink:href="#DejaVuSans-20" transform="translate(212.349609 0)"/>
      <use xlink:href="#DejaVuSans-6f" transform="translate(244.136719 0)"/>
      <use xlink:href="#DejaVuSans-62" transform="translate(305.318359 0)"/>
      <use xlink:href="#DejaVuSans-6a" transform="translate(368.794922 0)"/>
      <use xlink:href="#DejaVuSans-65" transform="translate(396.578125 0)"/>
      <use xlink:href="#DejaVuSans-63" transform="translate(458.101562 0)"/>
      <use xlink:href="#DejaVuSans-74" transform="translate(513.082031 0)"/>
      <use xlink:href="#DejaVuSans-69" transform="translate(552.291016 0)"/>
      <use xlink:href="#DejaVuSans-76" transform="translate(580.074219 0)"/>
      <use xlink:href="#DejaVuSans-65" transform="translate(639.253906 0)"/>
     </g>
    </g>
    <g id="line2d_16">
     <path d="M 424.048125 102.758906 
L 433.048125 102.758906 
L 442.048125 102.758906 
" style="fill: none; stroke: #4c78a8; stroke-width: 2; stroke-linecap: square"/>
    </g>
    <g id="text_9">
     <!-- GP mean -->
     <g transform="translate(449.248125 105.908906) scale(0.09 -0.09)">
      <defs>
       <path id="DejaVuSans-6d" d="M 3328 2828 
Q 3544 3216 3844 3400 
Q 4144 3584 4550 3584 
Q 5097 3584 5394 3201 
Q 5691 2819 5691 2113 
L 5691 0 
L 5113 0 
L 5113 2094 
Q 5113 2597 4934 2840 
Q 4756 3084 4391 3084 
Q 3944 3084 3684 2787 
Q 3425 2491 3425 1978 
L 3425 0 
L 2847 0 
L 2847 2094 
Q 2847 2600 2669 2842 
Q 2491 3084 2119 3084 
Q 1678 3084 1418 2786 
Q 1159 2488 1159 1978 
L 1159 0 
L 581 0 
L 581 3500 
L 1159 3500 
L 1159 2956 
Q 1356 3278 1631 3431 
Q 1906 3584 2284 3584 
Q 2666 3584 2933 3390 
Q 3200 3197 3328 2828 
z
" transform="scale(0.015625)"/>
      </defs>
      <use xlink:href="#DejaVuSans-47"/>
      <use xlink:href="#DejaVuSans-50" transform="translate(77.490234 0)"/>
      <use xlink:href="#DejaVuSans-20" transform="translate(137.792969 0)"/>
      <use xlink:href="#DejaVuSans-6d" transform="translate(169.580078 0)"/>
      <use xlink:href="#DejaVuSans-65" transform="translate(266.992188 0)"/>
      <use xlink:href="#DejaVuSans-61" transform="translate(328.515625 0)"/>
      <use xlink:href="#DejaVuSans-6e" transform="translate(389.794922 0)"/>
     </g>
    </g>
    <g id="patch_6">
     <path d="M 424.048125 119.119219 
L 442.048125 119.119219 
L 442.048125 112.819219 
L 424.048125 112.819219 
z
" style="fill: #4c78a8; fill-opacity: 0.18; stroke: #4c78a8; stroke-opacity: 0.18; stroke-linejoin: miter"/>
    </g>
    <g id="text_10">
     <!-- Uncertainty -->
     <g transform="translate(449.248125 119.119219) scale(0.09 -0.09)">
      <defs>
       <path id="DejaVuSans-55" d="M 556 4666 
L 1191 4666 
L 1191 1831 
Q 1191 1081 1462 751 
Q 1734 422 2344 422 
Q 2950 422 3222 751 
Q 3494 1081 3494 1831 
L 3494 4666 
L 4128 4666 
L 4128 1753 
Q 4128 841 3676 375 
Q 3225 -91 2344 -91 
Q 1459 -91 1007 375 
Q 556 841 556 1753 
L 556 4666 
z
" transform="scale(0.015625)"/>
       <path id="DejaVuSans-79" d="M 2059 -325 
Q 1816 -950 1584 -1140 
Q 1353 -1331 966 -1331 
L 506 -1331 
L 506 -850 
L 844 -850 
Q 1081 -850 1212 -737 
Q 1344 -625 1503 -206 
L 1606 56 
L 191 3500 
L 800 3500 
L 1894 763 
L 2988 3500 
L 3597 3500 
L 2059 -325 
z
" transform="scale(0.015625)"/>
      </defs>
      <use xlink:href="#DejaVuSans-55"/>
      <use xlink:href="#DejaVuSans-6e" transform="translate(73.193359 0)"/>
      <use xlink:href="#DejaVuSans-63" transform="translate(136.572266 0)"/>
      <use xlink:href="#DejaVuSans-65" transform="translate(191.552734 0)"/>
      <use xlink:href="#DejaVuSans-72" transform="translate(253.076172 0)"/>
      <use xlink:href="#DejaVuSans-74" transform="translate(294.189453 0)"/>
      <use xlink:href="#DejaVuSans-61" transform="translate(333.398438 0)"/>
      <use xlink:href="#DejaVuSans-69" transform="translate(394.677734 0)"/>
      <use xlink:href="#DejaVuSans-6e" transform="translate(422.460938 0)"/>
      <use xlink:href="#DejaVuSans-74" transform="translate(485.839844 0)"/>
      <use xlink:href="#DejaVuSans-79" transform="translate(525.048828 0)"/>
     </g>
    </g>
    <g id="PathCollection_2">
     <g>
      <use xlink:href="#m7d0e394bee" x="433.048125" y="129.967031" style="fill: #e45756; stroke: #333333"/>
     </g>
    </g>
    <g id="text_11">
     <!-- Observed evaluations -->
     <g transform="translate(449.248125 132.329531) scale(0.09 -0.09)">
      <defs>
       <path id="DejaVuSans-4f" d="M 2522 4238 
Q 1834 4238 1429 3725 
Q 1025 3213 1025 2328 
Q 1025 1447 1429 934 
Q 1834 422 2522 422 
Q 3209 422 3611 934 
Q 4013 1447 4013 2328 
Q 4013 3213 3611 3725 
Q 3209 4238 2522 4238 
z
M 2522 4750 
Q 3503 4750 4090 4092 
Q 4678 3434 4678 2328 
Q 4678 1225 4090 567 
Q 3503 -91 2522 -91 
Q 1538 -91 948 565 
Q 359 1222 359 2328 
Q 359 3434 948 4092 
Q 1538 4750 2522 4750 
z
" transform="scale(0.015625)"/>
      </defs>
      <use xlink:href="#DejaVuSans-4f"/>
      <use xlink:href="#DejaVuSans-62" transform="translate(78.710938 0)"/>
      <use xlink:href="#DejaVuSans-73" transform="translate(142.1875 0)"/>
      <use xlink:href="#DejaVuSans-65" transform="translate(194.287109 0)"/>
      <use xlink:href="#DejaVuSans-72" transform="translate(255.810547 0)"/>
      <use xlink:href="#DejaVuSans-76" transform="translate(296.923828 0)"/>
      <use xlink:href="#DejaVuSans-65" transform="translate(356.103516 0)"/>
      <use xlink:href="#DejaVuSans-64" transform="translate(417.626953 0)"/>
      <use xlink:href="#DejaVuSans-20" transform="translate(481.103516 0)"/>
      <use xlink:href="#DejaVuSans-65" transform="translate(512.890625 0)"/>
      <use xlink:href="#DejaVuSans-76" transform="translate(574.414062 0)"/>
      <use xlink:href="#DejaVuSans-61" transform="translate(633.59375 0)"/>
      <use xlink:href="#DejaVuSans-6c" transform="translate(694.873047 0)"/>
      <use xlink:href="#DejaVuSans-75" transform="translate(722.65625 0)"/>
      <use xlink:href="#DejaVuSans-61" transform="translate(786.035156 0)"/>
      <use xlink:href="#DejaVuSans-74" transform="translate(847.314453 0)"/>
      <use xlink:href="#DejaVuSans-69" transform="translate(886.523438 0)"/>
      <use xlink:href="#DejaVuSans-6f" transform="translate(914.306641 0)"/>
      <use xlink:href="#DejaVuSans-6e" transform="translate(975.488281 0)"/>
      <use xlink:href="#DejaVuSans-73" transform="translate(1038.867188 0)"/>
     </g>
    </g>
   </g>
  </g>
  <g id="axes_2">
   <g id="patch_7">
    <path d="M 53.338125 465.84 
L 555.538125 465.84 
L 555.538125 289.44 
L 53.338125 289.44 
z
" style="fill: #ffffff"/>
   </g>
   <g id="PathCollection_3">
    <defs>
     <path id="mf24dc1d9bb" d="M 0 4.330127 
C 1.148363 4.330127 2.249847 3.873878 3.061862 3.061862 
C 3.873878 2.249847 4.330127 1.148363 4.330127 0 
C 4.330127 -1.148363 3.873878 -2.249847 3.061862 -3.061862 
C 2.249847 -3.873878 1.148363 -4.330127 0 -4.330127 
C -1.148363 -4.330127 -2.249847 -3.873878 -3.061862 -3.061862 
C -3.873878 -2.249847 -4.330127 -1.148363 -4.330127 0 
C -4.330127 1.148363 -3.873878 2.249847 -3.061862 3.061862 
C -2.249847 3.873878 -1.148363 4.330127 0 4.330127 
z
" style="stroke: #333333"/>
    </defs>
    <g clip-path="url(#p72f652f2ef)">
     <use xlink:href="#mf24dc1d9bb" x="500.688626" y="297.458182" style="fill: #f2c14e; stroke: #333333"/>
    </g>
   </g>
   <g id="matplotlib.axis_3">
    <g id="xtick_7">
     <g id="line2d_17">
      <g>
       <use xlink:href="#mc86b0686a7" x="76.165398" y="465.84" style="stroke: #000000; stroke-width: 0.8"/>
      </g>
     </g>
     <g id="text_12">
      <!-- 0 -->
      <g transform="translate(72.666023 481.198281) scale(0.11 -0.11)">
       <use xlink:href="#DejaVuSans-30"/>
      </g>
     </g>
    </g>
    <g id="xtick_8">
     <g id="line2d_18">
      <g>
       <use xlink:href="#mc86b0686a7" x="167.474489" y="465.84" style="stroke: #000000; stroke-width: 0.8"/>
      </g>
     </g>
     <g id="text_13">
      <!-- 1 -->
      <g transform="translate(163.975114 481.198281) scale(0.11 -0.11)">
       <use xlink:href="#DejaVuSans-31"/>
      </g>
     </g>
    </g>
    <g id="xtick_9">
     <g id="line2d_19">
      <g>
       <use xlink:href="#mc86b0686a7" x="258.78358" y="465.84" style="stroke: #000000; stroke-width: 0.8"/>
      </g>
     </g>
     <g id="text_14">
      <!-- 2 -->
      <g transform="translate(255.284205 481.198281) scale(0.11 -0.11)">
       <use xlink:href="#DejaVuSans-32"/>
      </g>
     </g>
    </g>
    <g id="xtick_10">
     <g id="line2d_20">
      <g>
       <use xlink:href="#mc86b0686a7" x="350.09267" y="465.84" style="stroke: #000000; stroke-width: 0.8"/>
      </g>
     </g>
     <g id="text_15">
      <!-- 3 -->
      <g transform="translate(346.593295 481.198281) scale(0.11 -0.11)">
       <defs>
        <path id="DejaVuSans-33" d="M 2597 2516 
Q 3050 2419 3304 2112 
Q 3559 1806 3559 1356 
Q 3559 666 3084 287 
Q 2609 -91 1734 -91 
Q 1441 -91 1130 -33 
Q 819 25 488 141 
L 488 750 
Q 750 597 1062 519 
Q 1375 441 1716 441 
Q 2309 441 2620 675 
Q 2931 909 2931 1356 
Q 2931 1769 2642 2001 
Q 2353 2234 1838 2234 
L 1294 2234 
L 1294 2753 
L 1863 2753 
Q 2328 2753 2575 2939 
Q 2822 3125 2822 3475 
Q 2822 3834 2567 4026 
Q 2313 4219 1838 4219 
Q 1578 4219 1281 4162 
Q 984 4106 628 3988 
L 628 4550 
Q 988 4650 1302 4700 
Q 1616 4750 1894 4750 
Q 2613 4750 3031 4423 
Q 3450 4097 3450 3541 
Q 3450 3153 3228 2886 
Q 3006 2619 2597 2516 
z
" transform="scale(0.015625)"/>
       </defs>
       <use xlink:href="#DejaVuSans-33"/>
      </g>
     </g>
    </g>
    <g id="xtick_11">
     <g id="line2d_21">
      <g>
       <use xlink:href="#mc86b0686a7" x="441.401761" y="465.84" style="stroke: #000000; stroke-width: 0.8"/>
      </g>
     </g>
     <g id="text_16">
      <!-- 4 -->
      <g transform="translate(437.902386 481.198281) scale(0.11 -0.11)">
       <defs>
        <path id="DejaVuSans-34" d="M 2419 4116 
L 825 1625 
L 2419 1625 
L 2419 4116 
z
M 2253 4666 
L 3047 4666 
L 3047 1625 
L 3713 1625 
L 3713 1100 
L 3047 1100 
L 3047 0 
L 2419 0 
L 2419 1100 
L 313 1100 
L 313 1709 
L 2253 4666 
z
" transform="scale(0.015625)"/>
       </defs>
       <use xlink:href="#DejaVuSans-34"/>
      </g>
     </g>
    </g>
    <g id="xtick_12">
     <g id="line2d_22">
      <g>
       <use xlink:href="#mc86b0686a7" x="532.710852" y="465.84" style="stroke: #000000; stroke-width: 0.8"/>
      </g>
     </g>
     <g id="text_17">
      <!-- 5 -->
      <g transform="translate(529.211477 481.198281) scale(0.11 -0.11)">
       <defs>
        <path id="DejaVuSans-35" d="M 691 4666 
L 3169 4666 
L 3169 4134 
L 1269 4134 
L 1269 2991 
Q 1406 3038 1543 3061 
Q 1681 3084 1819 3084 
Q 2600 3084 3056 2656 
Q 3513 2228 3513 1497 
Q 3513 744 3044 326 
Q 2575 -91 1722 -91 
Q 1428 -91 1123 -41 
Q 819 9 494 109 
L 494 744 
Q 775 591 1075 516 
Q 1375 441 1709 441 
Q 2250 441 2565 725 
Q 2881 1009 2881 1497 
Q 2881 1984 2565 2268 
Q 2250 2553 1709 2553 
Q 1456 2553 1204 2497 
Q 953 2441 691 2322 
L 691 4666 
z
" transform="scale(0.015625)"/>
       </defs>
       <use xlink:href="#DejaVuSans-35"/>
      </g>
     </g>
    </g>
    <g id="text_18">
     <!-- Hyperparameter value -->
     <g transform="translate(242.101641 495.844219) scale(0.11 -0.11)">
      <defs>
       <path id="DejaVuSans-48" d="M 628 4666 
L 1259 4666 
L 1259 2753 
L 3553 2753 
L 3553 4666 
L 4184 4666 
L 4184 0 
L 3553 0 
L 3553 2222 
L 1259 2222 
L 1259 0 
L 628 0 
L 628 4666 
z
" transform="scale(0.015625)"/>
       <path id="DejaVuSans-70" d="M 1159 525 
L 1159 -1331 
L 581 -1331 
L 581 3500 
L 1159 3500 
L 1159 2969 
Q 1341 3281 1617 3432 
Q 1894 3584 2278 3584 
Q 2916 3584 3314 3078 
Q 3713 2572 3713 1747 
Q 3713 922 3314 415 
Q 2916 -91 2278 -91 
Q 1894 -91 1617 61 
Q 1341 213 1159 525 
z
M 3116 1747 
Q 3116 2381 2855 2742 
Q 2594 3103 2138 3103 
Q 1681 3103 1420 2742 
Q 1159 2381 1159 1747 
Q 1159 1113 1420 752 
Q 1681 391 2138 391 
Q 2594 391 2855 752 
Q 3116 1113 3116 1747 
z
" transform="scale(0.015625)"/>
      </defs>
      <use xlink:href="#DejaVuSans-48"/>
      <use xlink:href="#DejaVuSans-79" transform="translate(75.195312 0)"/>
      <use xlink:href="#DejaVuSans-70" transform="translate(134.375 0)"/>
      <use xlink:href="#DejaVuSans-65" transform="translate(197.851562 0)"/>
      <use xlink:href="#DejaVuSans-72" transform="translate(259.375 0)"/>
      <use xlink:href="#DejaVuSans-70" transform="translate(300.488281 0)"/>
      <use xlink:href="#DejaVuSans-61" transform="translate(363.964844 0)"/>
      <use xlink:href="#DejaVuSans-72" transform="translate(425.244141 0)"/>
      <use xlink:href="#DejaVuSans-61" transform="translate(466.357422 0)"/>
      <use xlink:href="#DejaVuSans-6d" transform="translate(527.636719 0)"/>
      <use xlink:href="#DejaVuSans-65" transform="translate(625.048828 0)"/>
      <use xlink:href="#DejaVuSans-74" transform="translate(686.572266 0)"/>
      <use xlink:href="#DejaVuSans-65" transform="translate(725.78125 0)"/>
      <use xlink:href="#DejaVuSans-72" transform="translate(787.304688 0)"/>
      <use xlink:href="#DejaVuSans-20" transform="translate(828.417969 0)"/>
      <use xlink:href="#DejaVuSans-76" transform="translate(860.205078 0)"/>
      <use xlink:href="#DejaVuSans-61" transform="translate(919.384766 0)"/>
      <use xlink:href="#DejaVuSans-6c" transform="translate(980.664062 0)"/>
      <use xlink:href="#DejaVuSans-75" transform="translate(1008.447266 0)"/>
      <use xlink:href="#DejaVuSans-65" transform="translate(1071.826172 0)"/>
     </g>
    </g>
   </g>
   <g id="matplotlib.axis_4">
    <g id="ytick_6">
     <g id="line2d_23">
      <g>
       <use xlink:href="#m7d530cc068" x="53.338125" y="451.785002" style="stroke: #000000; stroke-width: 0.8"/>
      </g>
     </g>
     <g id="text_19">
      <!-- 1.65 -->
      <g transform="translate(21.845938 455.964142) scale(0.11 -0.11)">
       <defs>
        <path id="DejaVuSans-2e" d="M 684 794 
L 1344 794 
L 1344 0 
L 684 0 
L 684 794 
z
" transform="scale(0.015625)"/>
        <path id="DejaVuSans-36" d="M 2113 2584 
Q 1688 2584 1439 2293 
Q 1191 2003 1191 1497 
Q 1191 994 1439 701 
Q 1688 409 2113 409 
Q 2538 409 2786 701 
Q 3034 994 3034 1497 
Q 3034 2003 2786 2293 
Q 2538 2584 2113 2584 
z
M 3366 4563 
L 3366 3988 
Q 3128 4100 2886 4159 
Q 2644 4219 2406 4219 
Q 1781 4219 1451 3797 
Q 1122 3375 1075 2522 
Q 1259 2794 1537 2939 
Q 1816 3084 2150 3084 
Q 2853 3084 3261 2657 
Q 3669 2231 3669 1497 
Q 3669 778 3244 343 
Q 2819 -91 2113 -91 
Q 1303 -91 875 529 
Q 447 1150 447 2328 
Q 447 3434 972 4092 
Q 1497 4750 2381 4750 
Q 2619 4750 2861 4703 
Q 3103 4656 3366 4563 
z
" transform="scale(0.015625)"/>
       </defs>
       <use xlink:href="#DejaVuSans-31"/>
       <use xlink:href="#DejaVuSans-2e" transform="translate(63.623047 0)"/>
       <use xlink:href="#DejaVuSans-36" transform="translate(95.410156 0)"/>
       <use xlink:href="#DejaVuSans-35" transform="translate(159.033203 0)"/>
      </g>
     </g>
    </g>
    <g id="ytick_7">
     <g id="line2d_24">
      <g>
       <use xlink:href="#m7d530cc068" x="53.338125" y="427.887021" style="stroke: #000000; stroke-width: 0.8"/>
      </g>
     </g>
     <g id="text_20">
      <!-- 1.70 -->
      <g transform="translate(21.845938 432.066161) scale(0.11 -0.11)">
       <defs>
        <path id="DejaVuSans-37" d="M 525 4666 
L 3525 4666 
L 3525 4397 
L 1831 0 
L 1172 0 
L 2766 4134 
L 525 4134 
L 525 4666 
z
" transform="scale(0.015625)"/>
       </defs>
       <use xlink:href="#DejaVuSans-31"/>
       <use xlink:href="#DejaVuSans-2e" transform="translate(63.623047 0)"/>
       <use xlink:href="#DejaVuSans-37" transform="translate(95.410156 0)"/>
       <use xlink:href="#DejaVuSans-30" transform="translate(159.033203 0)"/>
      </g>
     </g>
    </g>
    <g id="ytick_8">
     <g id="line2d_25">
      <g>
       <use xlink:href="#m7d530cc068" x="53.338125" y="403.989039" style="stroke: #000000; stroke-width: 0.8"/>
      </g>
     </g>
     <g id="text_21">
      <!-- 1.75 -->
      <g transform="translate(21.845938 408.16818) scale(0.11 -0.11)">
       <use xlink:href="#DejaVuSans-31"/>
       <use xlink:href="#DejaVuSans-2e" transform="translate(63.623047 0)"/>
       <use xlink:href="#DejaVuSans-37" transform="translate(95.410156 0)"/>
       <use xlink:href="#DejaVuSans-35" transform="translate(159.033203 0)"/>
      </g>
     </g>
    </g>
    <g id="ytick_9">
     <g id="line2d_26">
      <g>
       <use xlink:href="#m7d530cc068" x="53.338125" y="380.091058" style="stroke: #000000; stroke-width: 0.8"/>
      </g>
     </g>
     <g id="text_22">
      <!-- 1.80 -->
      <g transform="translate(21.845938 384.270198) scale(0.11 -0.11)">
       <defs>
        <path id="DejaVuSans-38" d="M 2034 2216 
Q 1584 2216 1326 1975 
Q 1069 1734 1069 1313 
Q 1069 891 1326 650 
Q 1584 409 2034 409 
Q 2484 409 2743 651 
Q 3003 894 3003 1313 
Q 3003 1734 2745 1975 
Q 2488 2216 2034 2216 
z
M 1403 2484 
Q 997 2584 770 2862 
Q 544 3141 544 3541 
Q 544 4100 942 4425 
Q 1341 4750 2034 4750 
Q 2731 4750 3128 4425 
Q 3525 4100 3525 3541 
Q 3525 3141 3298 2862 
Q 3072 2584 2669 2484 
Q 3125 2378 3379 2068 
Q 3634 1759 3634 1313 
Q 3634 634 3220 271 
Q 2806 -91 2034 -91 
Q 1263 -91 848 271 
Q 434 634 434 1313 
Q 434 1759 690 2068 
Q 947 2378 1403 2484 
z
M 1172 3481 
Q 1172 3119 1398 2916 
Q 1625 2713 2034 2713 
Q 2441 2713 2670 2916 
Q 2900 3119 2900 3481 
Q 2900 3844 2670 4047 
Q 2441 4250 2034 4250 
Q 1625 4250 1398 4047 
Q 1172 3844 1172 3481 
z
" transform="scale(0.015625)"/>
       </defs>
       <use xlink:href="#DejaVuSans-31"/>
       <use xlink:href="#DejaVuSans-2e" transform="translate(63.623047 0)"/>
       <use xlink:href="#DejaVuSans-38" transform="translate(95.410156 0)"/>
       <use xlink:href="#DejaVuSans-30" transform="translate(159.033203 0)"/>
      </g>
     </g>
    </g>
    <g id="ytick_10">
     <g id="line2d_27">
      <g>
       <use xlink:href="#m7d530cc068" x="53.338125" y="356.193077" style="stroke: #000000; stroke-width: 0.8"/>
      </g>
     </g>
     <g id="text_23">
      <!-- 1.85 -->
      <g transform="translate(21.845938 360.372217) scale(0.11 -0.11)">
       <use xlink:href="#DejaVuSans-31"/>
       <use xlink:href="#DejaVuSans-2e" transform="translate(63.623047 0)"/>
       <use xlink:href="#DejaVuSans-38" transform="translate(95.410156 0)"/>
       <use xlink:href="#DejaVuSans-35" transform="translate(159.033203 0)"/>
      </g>
     </g>
    </g>
    <g id="ytick_11">
     <g id="line2d_28">
      <g>
       <use xlink:href="#m7d530cc068" x="53.338125" y="332.295095" style="stroke: #000000; stroke-width: 0.8"/>
      </g>
     </g>
     <g id="text_24">
      <!-- 1.90 -->
      <g transform="translate(21.845938 336.474236) scale(0.11 -0.11)">
       <defs>
        <path id="DejaVuSans-39" d="M 703 97 
L 703 672 
Q 941 559 1184 500 
Q 1428 441 1663 441 
Q 2288 441 2617 861 
Q 2947 1281 2994 2138 
Q 2813 1869 2534 1725 
Q 2256 1581 1919 1581 
Q 1219 1581 811 2004 
Q 403 2428 403 3163 
Q 403 3881 828 4315 
Q 1253 4750 1959 4750 
Q 2769 4750 3195 4129 
Q 3622 3509 3622 2328 
Q 3622 1225 3098 567 
Q 2575 -91 1691 -91 
Q 1453 -91 1209 -44 
Q 966 3 703 97 
z
M 1959 2075 
Q 2384 2075 2632 2365 
Q 2881 2656 2881 3163 
Q 2881 3666 2632 3958 
Q 2384 4250 1959 4250 
Q 1534 4250 1286 3958 
Q 1038 3666 1038 3163 
Q 1038 2656 1286 2365 
Q 1534 2075 1959 2075 
z
" transform="scale(0.015625)"/>
       </defs>
       <use xlink:href="#DejaVuSans-31"/>
       <use xlink:href="#DejaVuSans-2e" transform="translate(63.623047 0)"/>
       <use xlink:href="#DejaVuSans-39" transform="translate(95.410156 0)"/>
       <use xlink:href="#DejaVuSans-30" transform="translate(159.033203 0)"/>
      </g>
     </g>
    </g>
    <g id="ytick_12">
     <g id="line2d_29">
      <g>
       <use xlink:href="#m7d530cc068" x="53.338125" y="308.397114" style="stroke: #000000; stroke-width: 0.8"/>
      </g>
     </g>
     <g id="text_25">
      <!-- 1.95 -->
      <g transform="translate(21.845938 312.576254) scale(0.11 -0.11)">
       <use xlink:href="#DejaVuSans-31"/>
       <use xlink:href="#DejaVuSans-2e" transform="translate(63.623047 0)"/>
       <use xlink:href="#DejaVuSans-39" transform="translate(95.410156 0)"/>
       <use xlink:href="#DejaVuSans-35" transform="translate(159.033203 0)"/>
      </g>
     </g>
    </g>
    <g id="text_26">
     <!-- Acquisition score -->
     <g transform="translate(15.558281 424.287734) rotate(-90) scale(0.11 -0.11)">
      <defs>
       <path id="DejaVuSans-41" d="M 2188 4044 
L 1331 1722 
L 3047 1722 
L 2188 4044 
z
M 1831 4666 
L 2547 4666 
L 4325 0 
L 3669 0 
L 3244 1197 
L 1141 1197 
L 716 0 
L 50 0 
L 1831 4666 
z
" transform="scale(0.015625)"/>
       <path id="DejaVuSans-71" d="M 947 1747 
Q 947 1113 1208 752 
Q 1469 391 1925 391 
Q 2381 391 2643 752 
Q 2906 1113 2906 1747 
Q 2906 2381 2643 2742 
Q 2381 3103 1925 3103 
Q 1469 3103 1208 2742 
Q 947 2381 947 1747 
z
M 2906 525 
Q 2725 213 2448 61 
Q 2172 -91 1784 -91 
Q 1150 -91 751 415 
Q 353 922 353 1747 
Q 353 2572 751 3078 
Q 1150 3584 1784 3584 
Q 2172 3584 2448 3432 
Q 2725 3281 2906 2969 
L 2906 3500 
L 3481 3500 
L 3481 -1331 
L 2906 -1331 
L 2906 525 
z
" transform="scale(0.015625)"/>
      </defs>
      <use xlink:href="#DejaVuSans-41"/>
      <use xlink:href="#DejaVuSans-63" transform="translate(66.658203 0)"/>
      <use xlink:href="#DejaVuSans-71" transform="translate(121.638672 0)"/>
      <use xlink:href="#DejaVuSans-75" transform="translate(185.115234 0)"/>
      <use xlink:href="#DejaVuSans-69" transform="translate(248.494141 0)"/>
      <use xlink:href="#DejaVuSans-73" transform="translate(276.277344 0)"/>
      <use xlink:href="#DejaVuSans-69" transform="translate(328.376953 0)"/>
      <use xlink:href="#DejaVuSans-74" transform="translate(356.160156 0)"/>
      <use xlink:href="#DejaVuSans-69" transform="translate(395.369141 0)"/>
      <use xlink:href="#DejaVuSans-6f" transform="translate(423.152344 0)"/>
      <use xlink:href="#DejaVuSans-6e" transform="translate(484.333984 0)"/>
      <use xlink:href="#DejaVuSans-20" transform="translate(547.712891 0)"/>
      <use xlink:href="#DejaVuSans-73" transform="translate(579.5 0)"/>
      <use xlink:href="#DejaVuSans-63" transform="translate(631.599609 0)"/>
      <use xlink:href="#DejaVuSans-6f" transform="translate(686.580078 0)"/>
      <use xlink:href="#DejaVuSans-72" transform="translate(747.761719 0)"/>
      <use xlink:href="#DejaVuSans-65" transform="translate(786.625 0)"/>
     </g>
    </g>
   </g>
   <g id="line2d_30">
    <path d="M 76.165398 380.074228 
L 98.123496 380.074228 
L 99.038416 457.821818 
L 99.953337 380.074228 
L 189.615571 380.074228 
L 190.530492 380.870095 
L 191.445412 380.074228 
L 417.430838 380.074228 
L 418.345758 380.341849 
L 419.260679 380.074228 
L 499.773705 380.074228 
L 500.688626 297.458182 
L 501.603547 380.074228 
L 532.710852 380.074228 
L 532.710852 380.074228 
" clip-path="url(#p72f652f2ef)" style="fill: none; stroke: #7b2cbf; stroke-width: 2; stroke-linecap: square"/>
   </g>
   <g id="line2d_31">
    <path d="M 500.688626 465.84 
L 500.688626 289.44 
" clip-path="url(#p72f652f2ef)" style="fill: none; stroke-dasharray: 5.55,2.4; stroke-dashoffset: 0; stroke: #222222; stroke-width: 1.5"/>
   </g>
   <g id="patch_8">
    <path d="M 53.338125 465.84 
L 53.338125 289.44 
" style="fill: none; stroke: #000000; stroke-width: 0.8; stroke-linejoin: miter; stroke-linecap: square"/>
   </g>
   <g id="patch_9">
    <path d="M 53.338125 465.84 
L 555.538125 465.84 
" style="fill: none; stroke: #000000; stroke-width: 0.8; stroke-linejoin: miter; stroke-linecap: square"/>
   </g>
   <g id="text_27">
    <!-- Acquisition Function -->
    <g transform="translate(239.127344 283.44) scale(0.13 -0.13)">
     <defs>
      <path id="DejaVuSans-46" d="M 628 4666 
L 3309 4666 
L 3309 4134 
L 1259 4134 
L 1259 2759 
L 3109 2759 
L 3109 2228 
L 1259 2228 
L 1259 0 
L 628 0 
L 628 4666 
z
" transform="scale(0.015625)"/>
     </defs>
     <use xlink:href="#DejaVuSans-41"/>
     <use xlink:href="#DejaVuSans-63" transform="translate(66.658203 0)"/>
     <use xlink:href="#DejaVuSans-71" transform="translate(121.638672 0)"/>
     <use xlink:href="#DejaVuSans-75" transform="translate(185.115234 0)"/>
     <use xlink:href="#DejaVuSans-69" transform="translate(248.494141 0)"/>
     <use xlink:href="#DejaVuSans-73" transform="translate(276.277344 0)"/>
     <use xlink:href="#DejaVuSans-69" transform="translate(328.376953 0)"/>
     <use xlink:href="#DejaVuSans-74" transform="translate(356.160156 0)"/>
     <use xlink:href="#DejaVuSans-69" transform="translate(395.369141 0)"/>
     <use xlink:href="#DejaVuSans-6f" transform="translate(423.152344 0)"/>
     <use xlink:href="#DejaVuSans-6e" transform="translate(484.333984 0)"/>
     <use xlink:href="#DejaVuSans-20" transform="translate(547.712891 0)"/>
     <use xlink:href="#DejaVuSans-46" transform="translate(579.5 0)"/>
     <use xlink:href="#DejaVuSans-75" transform="translate(631.519531 0)"/>
     <use xlink:href="#DejaVuSans-6e" transform="translate(694.898438 0)"/>
     <use xlink:href="#DejaVuSans-63" transform="translate(758.277344 0)"/>
     <use xlink:href="#DejaVuSans-74" transform="translate(813.257812 0)"/>
     <use xlink:href="#DejaVuSans-69" transform="translate(852.466797 0)"/>
     <use xlink:href="#DejaVuSans-6f" transform="translate(880.25 0)"/>
     <use xlink:href="#DejaVuSans-6e" transform="translate(941.431641 0)"/>
    </g>
   </g>
   <g id="legend_2">
    <g id="patch_10">
     <path d="M 390.748125 323.080312 
L 549.238125 323.080312 
Q 551.038125 323.080312 551.038125 321.280312 
L 551.038125 295.74 
Q 551.038125 293.94 549.238125 293.94 
L 390.748125 293.94 
Q 388.948125 293.94 388.948125 295.74 
L 388.948125 321.280312 
Q 388.948125 323.080312 390.748125 323.080312 
z
" style="fill: #ffffff; opacity: 0.8; stroke: #cccccc; stroke-linejoin: miter"/>
    </g>
    <g id="line2d_32">
     <path d="M 392.548125 301.23 
L 401.548125 301.23 
L 410.548125 301.23 
" style="fill: none; stroke: #7b2cbf; stroke-width: 2; stroke-linecap: square"/>
    </g>
    <g id="text_28">
     <!-- UCB = mean + $\kappa$ uncertainty -->
     <g transform="translate(417.748125 304.38) scale(0.09 -0.09)">
      <defs>
       <path id="DejaVuSans-43" d="M 4122 4306 
L 4122 3641 
Q 3803 3938 3442 4084 
Q 3081 4231 2675 4231 
Q 1875 4231 1450 3742 
Q 1025 3253 1025 2328 
Q 1025 1406 1450 917 
Q 1875 428 2675 428 
Q 3081 428 3442 575 
Q 3803 722 4122 1019 
L 4122 359 
Q 3791 134 3420 21 
Q 3050 -91 2638 -91 
Q 1578 -91 968 557 
Q 359 1206 359 2328 
Q 359 3453 968 4101 
Q 1578 4750 2638 4750 
Q 3056 4750 3426 4639 
Q 3797 4528 4122 4306 
z
" transform="scale(0.015625)"/>
       <path id="DejaVuSans-42" d="M 1259 2228 
L 1259 519 
L 2272 519 
Q 2781 519 3026 730 
Q 3272 941 3272 1375 
Q 3272 1813 3026 2020 
Q 2781 2228 2272 2228 
L 1259 2228 
z
M 1259 4147 
L 1259 2741 
L 2194 2741 
Q 2656 2741 2882 2914 
Q 3109 3088 3109 3444 
Q 3109 3797 2882 3972 
Q 2656 4147 2194 4147 
L 1259 4147 
z
M 628 4666 
L 2241 4666 
Q 2963 4666 3353 4366 
Q 3744 4066 3744 3513 
Q 3744 3084 3544 2831 
Q 3344 2578 2956 2516 
Q 3422 2416 3680 2098 
Q 3938 1781 3938 1306 
Q 3938 681 3513 340 
Q 3088 0 2303 0 
L 628 0 
L 628 4666 
z
" transform="scale(0.015625)"/>
       <path id="DejaVuSans-3d" d="M 678 2906 
L 4684 2906 
L 4684 2381 
L 678 2381 
L 678 2906 
z
M 678 1631 
L 4684 1631 
L 4684 1100 
L 678 1100 
L 678 1631 
z
" transform="scale(0.015625)"/>
       <path id="DejaVuSans-2b" d="M 2944 4013 
L 2944 2272 
L 4684 2272 
L 4684 1741 
L 2944 1741 
L 2944 0 
L 2419 0 
L 2419 1741 
L 678 1741 
L 678 2272 
L 2419 2272 
L 2419 4013 
L 2944 4013 
z
" transform="scale(0.015625)"/>
       <path id="STIXGeneral-Italic-3ba" d="M 979 1440 
L 998 1446 
Q 1850 2541 2464 2790 
Q 2547 2822 2630 2822 
Q 2797 2822 2886 2736 
Q 2976 2650 2976 2522 
Q 2976 2387 2893 2307 
Q 2810 2227 2682 2227 
Q 2605 2227 2502 2288 
Q 2400 2349 2336 2349 
Q 2170 2349 1990 2205 
Q 1811 2061 1414 1645 
L 2042 544 
Q 2202 262 2310 182 
Q 2419 102 2624 102 
L 2624 0 
Q 2374 -83 2182 -83 
Q 1786 -83 1555 326 
L 960 1350 
L 576 0 
L 90 0 
L 640 1978 
Q 730 2317 730 2406 
Q 730 2560 518 2560 
L 339 2560 
L 339 2650 
Q 678 2694 1306 2822 
L 1325 2803 
L 979 1440 
z
" transform="scale(0.015625)"/>
      </defs>
      <use xlink:href="#DejaVuSans-55" transform="translate(0 0.015625)"/>
      <use xlink:href="#DejaVuSans-43" transform="translate(73.193359 0.015625)"/>
      <use xlink:href="#DejaVuSans-42" transform="translate(143.017578 0.015625)"/>
      <use xlink:href="#DejaVuSans-20" transform="translate(211.621094 0.015625)"/>
      <use xlink:href="#DejaVuSans-3d" transform="translate(243.408203 0.015625)"/>
      <use xlink:href="#DejaVuSans-20" transform="translate(327.197266 0.015625)"/>
      <use xlink:href="#DejaVuSans-6d" transform="translate(358.984375 0.015625)"/>
      <use xlink:href="#DejaVuSans-65" transform="translate(456.396484 0.015625)"/>
      <use xlink:href="#DejaVuSans-61" transform="translate(517.919922 0.015625)"/>
      <use xlink:href="#DejaVuSans-6e" transform="translate(579.199219 0.015625)"/>
      <use xlink:href="#DejaVuSans-20" transform="translate(642.578125 0.015625)"/>
      <use xlink:href="#DejaVuSans-2b" transform="translate(674.365234 0.015625)"/>
      <use xlink:href="#DejaVuSans-20" transform="translate(758.154297 0.015625)"/>
      <use xlink:href="#STIXGeneral-Italic-3ba" transform="translate(789.941406 0.015625)"/>
      <use xlink:href="#DejaVuSans-20" transform="translate(834.3414 0.015625)"/>
      <use xlink:href="#DejaVuSans-75" transform="translate(866.12851 0.015625)"/>
      <use xlink:href="#DejaVuSans-6e" transform="translate(929.507416 0.015625)"/>
      <use xlink:href="#DejaVuSans-63" transform="translate(992.886322 0.015625)"/>
      <use xlink:href="#DejaVuSans-65" transform="translate(1047.866791 0.015625)"/>
      <use xlink:href="#DejaVuSans-72" transform="translate(1109.390228 0.015625)"/>
      <use xlink:href="#DejaVuSans-74" transform="translate(1150.50351 0.015625)"/>
      <use xlink:href="#DejaVuSans-61" transform="translate(1189.712494 0.015625)"/>
      <use xlink:href="#DejaVuSans-69" transform="translate(1250.991791 0.015625)"/>
      <use xlink:href="#DejaVuSans-6e" transform="translate(1278.774994 0.015625)"/>
      <use xlink:href="#DejaVuSans-74" transform="translate(1342.1539 0.015625)"/>
      <use xlink:href="#DejaVuSans-79" transform="translate(1381.362885 0.015625)"/>
     </g>
    </g>
    <g id="line2d_33">
     <path d="M 392.548125 314.458594 
L 401.548125 314.458594 
L 410.548125 314.458594 
" style="fill: none; stroke-dasharray: 5.55,2.4; stroke-dashoffset: 0; stroke: #222222; stroke-width: 1.5"/>
    </g>
    <g id="text_29">
     <!-- Next evaluation -->
     <g transform="translate(417.748125 317.608594) scale(0.09 -0.09)">
      <defs>
       <path id="DejaVuSans-4e" d="M 628 4666 
L 1478 4666 
L 3547 763 
L 3547 4666 
L 4159 4666 
L 4159 0 
L 3309 0 
L 1241 3903 
L 1241 0 
L 628 0 
L 628 4666 
z
" transform="scale(0.015625)"/>
       <path id="DejaVuSans-78" d="M 3513 3500 
L 2247 1797 
L 3578 0 
L 2900 0 
L 1881 1375 
L 863 0 
L 184 0 
L 1544 1831 
L 300 3500 
L 978 3500 
L 1906 2253 
L 2834 3500 
L 3513 3500 
z
" transform="scale(0.015625)"/>
      </defs>
      <use xlink:href="#DejaVuSans-4e"/>
      <use xlink:href="#DejaVuSans-65" transform="translate(74.804688 0)"/>
      <use xlink:href="#DejaVuSans-78" transform="translate(134.578125 0)"/>
      <use xlink:href="#DejaVuSans-74" transform="translate(193.757812 0)"/>
      <use xlink:href="#DejaVuSans-20" transform="translate(232.966797 0)"/>
      <use xlink:href="#DejaVuSans-65" transform="translate(264.753906 0)"/>
      <use xlink:href="#DejaVuSans-76" transform="translate(326.277344 0)"/>
      <use xlink:href="#DejaVuSans-61" transform="translate(385.457031 0)"/>
      <use xlink:href="#DejaVuSans-6c" transform="translate(446.736328 0)"/>
      <use xlink:href="#DejaVuSans-75" transform="translate(474.519531 0)"/>
      <use xlink:href="#DejaVuSans-61" transform="translate(537.898438 0)"/>
      <use xlink:href="#DejaVuSans-74" transform="translate(599.177734 0)"/>
      <use xlink:href="#DejaVuSans-69" transform="translate(638.386719 0)"/>
      <use xlink:href="#DejaVuSans-6f" transform="translate(666.169922 0)"/>
      <use xlink:href="#DejaVuSans-6e" transform="translate(727.351562 0)"/>
     </g>
    </g>
   </g>
  </g>
  <g id="text_30">
   <!-- Bayesian Optimization with GP-UCB -->
   <g transform="translate(162.422109 18.597656) scale(0.15 -0.15)">
    <defs>
     <path id="DejaVuSans-7a" d="M 353 3500 
L 3084 3500 
L 3084 2975 
L 922 459 
L 3084 459 
L 3084 0 
L 275 0 
L 275 525 
L 2438 3041 
L 353 3041 
L 353 3500 
z
" transform="scale(0.015625)"/>
     <path id="DejaVuSans-77" d="M 269 3500 
L 844 3500 
L 1563 769 
L 2278 3500 
L 2956 3500 
L 3675 769 
L 4391 3500 
L 4966 3500 
L 4050 0 
L 3372 0 
L 2619 2869 
L 1863 0 
L 1184 0 
L 269 3500 
z
" transform="scale(0.015625)"/>
     <path id="DejaVuSans-68" d="M 3513 2113 
L 3513 0 
L 2938 0 
L 2938 2094 
Q 2938 2591 2744 2837 
Q 2550 3084 2163 3084 
Q 1697 3084 1428 2787 
Q 1159 2491 1159 1978 
L 1159 0 
L 581 0 
L 581 4863 
L 1159 4863 
L 1159 2956 
Q 1366 3272 1645 3428 
Q 1925 3584 2291 3584 
Q 2894 3584 3203 3211 
Q 3513 2838 3513 2113 
z
" transform="scale(0.015625)"/>
     <path id="DejaVuSans-2d" d="M 313 2009 
L 1997 2009 
L 1997 1497 
L 313 1497 
L 313 2009 
z
" transform="scale(0.015625)"/>
    </defs>
    <use xlink:href="#DejaVuSans-42"/>
    <use xlink:href="#DejaVuSans-61" transform="translate(68.603516 0)"/>
    <use xlink:href="#DejaVuSans-79" transform="translate(129.882812 0)"/>
    <use xlink:href="#DejaVuSans-65" transform="translate(189.0625 0)"/>
    <use xlink:href="#DejaVuSans-73" transform="translate(250.585938 0)"/>
    <use xlink:href="#DejaVuSans-69" transform="translate(302.685547 0)"/>
    <use xlink:href="#DejaVuSans-61" transform="translate(330.46875 0)"/>
    <use xlink:href="#DejaVuSans-6e" transform="translate(391.748047 0)"/>
    <use xlink:href="#DejaVuSans-20" transform="translate(455.126953 0)"/>
    <use xlink:href="#DejaVuSans-4f" transform="translate(486.914062 0)"/>
    <use xlink:href="#DejaVuSans-70" transform="translate(565.625 0)"/>
    <use xlink:href="#DejaVuSans-74" transform="translate(629.101562 0)"/>
    <use xlink:href="#DejaVuSans-69" transform="translate(668.310547 0)"/>
    <use xlink:href="#DejaVuSans-6d" transform="translate(696.09375 0)"/>
    <use xlink:href="#DejaVuSans-69" transform="translate(793.505859 0)"/>
    <use xlink:href="#DejaVuSans-7a" transform="translate(821.289062 0)"/>
    <use xlink:href="#DejaVuSans-61" transform="translate(873.779297 0)"/>
    <use xlink:href="#DejaVuSans-74" transform="translate(935.058594 0)"/>
    <use xlink:href="#DejaVuSans-69" transform="translate(974.267578 0)"/>
    <use xlink:href="#DejaVuSans-6f" transform="translate(1002.050781 0)"/>
    <use xlink:href="#DejaVuSans-6e" transform="translate(1063.232422 0)"/>
    <use xlink:href="#DejaVuSans-20" transform="translate(1126.611328 0)"/>
    <use xlink:href="#DejaVuSans-77" transform="translate(1158.398438 0)"/>
    <use xlink:href="#DejaVuSans-69" transform="translate(1240.185547 0)"/>
    <use xlink:href="#DejaVuSans-74" transform="translate(1267.96875 0)"/>
    <use xlink:href="#DejaVuSans-68" transform="translate(1307.177734 0)"/>
    <use xlink:href="#DejaVuSans-20" transform="translate(1370.556641 0)"/>
    <use xlink:href="#DejaVuSans-47" transform="translate(1402.34375 0)"/>
    <use xlink:href="#DejaVuSans-50" transform="translate(1479.833984 0)"/>
    <use xlink:href="#DejaVuSans-2d" transform="translate(1537.886719 0)"/>
    <use xlink:href="#DejaVuSans-55" transform="translate(1573.970703 0)"/>
    <use xlink:href="#DejaVuSans-43" transform="translate(1647.164062 0)"/>
    <use xlink:href="#DejaVuSans-42" transform="translate(1716.988281 0)"/>
   </g>
  </g>
 </g>
 <defs>
  <clipPath id="p9963ff60e6">
   <rect x="53.338125" y="77.76" width="502.2" height="176.4"/>
  </clipPath>
  <clipPath id="p72f652f2ef">
   <rect x="53.338125" y="289.44" width="502.2" height="176.4"/>
  </clipPath>
 </defs>
</svg>
